<?xml version="1.0" encoding="utf-8"?>
<!-- Generator: Adobe Illustrator 25.4.1, SVG Export Plug-In . SVG Version: 6.00 Build 0)  -->
<svg version="1.1" id="Layer_1" xmlns="http://www.w3.org/2000/svg" xmlns:xlink="http://www.w3.org/1999/xlink" x="0px" y="0px"
	 viewBox="0 0 360 360" style="enable-background:new 0 0 360 360;" xml:space="preserve">
<style type="text/css">
	.st0{fill:#FFFFFF;}
</style>
<path d="M943.98,31.9c2.52,0.44,4.56,0.79,6.61,1.14c2.89,0.49,5.76,0.21,8.57-0.51c6.92-1.77,10.97-7.58,10.27-14.72
	c-0.11-1.11-0.36-2.21-0.65-3.29c-1.67-6.16-4.94-11.29-9.85-15.66c-0.1,0.57-0.26,0.9-0.16,1.06c2.85,4.48,4.74,9.42,6.71,14.31
	c1.77,4.42,1.05,8-2.5,11.25c-5.85,5.35-12.54,7.51-20.33,4.81c-0.76-0.26-1.51-0.54-2.24-0.85c-4.69-2.01-5.5-3.27-5.47-8.34
	c0.03-5.6,0.02-11.2,0.06-16.8c0.01-1.44,0.01-2.91,0.32-4.29c0.27-1.22,0.71-2.55,1.49-3.47c5.3-6.24,11.56-11.03,19.87-12.5
	c1.72-0.3,3.49-0.44,5.24-0.53c2.87-0.15,5.3,0.98,7.41,2.85c0.6,0.53,1.22,1.07,1.65,1.73c2.12,3.18,4.97,3.6,8.4,2.54
	c2.9-0.9,5.86-1.59,8.8-2.34c2.56-0.66,3.8-0.24,4.59,2.03c1.7,4.91,2.25,9.97,1.18,15.11c-0.47,2.27-1.75,4.11-3.62,5.5
	c-2.95,2.19-5.87,4.44-8.92,6.49c-1.95,1.31-3.36,2.81-3.92,5.17c-0.47,1.99-1.23,3.9-1.86,5.85c0.56,0.41,0.9,0.78,1.31,0.94
	c4.54,1.69,7.18,5.16,9,9.43c1.52,3.57,2.27,7.36,2.61,11.17c0.79,8.83,0.33,17.55-2.38,26.1c-2.95,9.3-5.85,18.6-9.85,27.53
	c-0.97,2.16-1.59,4.48-2.45,6.94c1.24,0.62,2.2,1.08,3.15,1.58c1.55,0.81,3.19,1.5,4.62,2.48c2.06,1.42,2.66,3.54,2.07,5.94
	c-0.57,2.32-2.28,3.34-4.53,3.66c-1.6,0.22-3.17,0.31-4.88-0.44c-0.55-2.23,0.27-4.69-1.15-6.87c-1.45-2.23-3.6-3-5.6-3.35
	c-0.98-1.42-0.22-2.25,0.14-3.07c1.13-2.64,2.56-5.18,3.47-7.89c0.91-2.71,1.64-5.55,1.92-8.38c0.69-6.89-2.93-12.25-9.59-14.22
	c-4.35-1.29-8.83-1.45-13.24-0.03c-0.43,0.14-0.77,0.54-1.28,0.91c2.65,0.18,5.17,0.21,7.65,0.53c10.15,1.34,14.64,9.51,13.45,18.17
	c-0.48,3.51-1.55,6.85-3.24,9.98c-0.68,1.25-1.36,2.5-2.16,3.96c1.44,0.69,2.74,1.21,3.94,1.89c3.61,2.05,4.42,4.28,3.24,9.08
	c-1.14,0.13-2.38,0.38-3.63,0.4c-4.8,0.07-9.6,0.09-14.4,0.08c-16.32-0.05-32.64,0.04-48.96-0.25c-8.14-0.15-16.32-0.63-24.4-1.65
	c-10.38-1.3-15.32-7.01-17.12-16.71c-1.22-6.61,1.54-12.07,7.05-15.69c5.64-3.71,11.81-4.66,18.24-1.67
	c2.12,0.99,3.68,2.53,4.91,4.43c1.14,1.77,0.93,3.33-0.47,4.79c-1.46,1.52-2.85,1.67-4.71,0.52c-0.13-0.08-0.24-0.22-0.37-0.3
	c-3.46-2.24-6.09-2.16-8.61,0.26c-2.47,2.37-2.9,6.19-0.99,9.24c1.88,3.01,4.67,4.72,8.08,5.55c3.7,0.9,7.36,0.42,10.93-0.48
	c6.92-1.75,13.09-5.13,18.65-9.55c3.19-2.53,5.27-5.86,6.57-9.81c5.62-17.17,11.39-34.29,17.13-51.42c0.91-2.73,1.87-5.44,2.88-8.14
	C942.9,33.36,943.44,32.76,943.98,31.9z"/>
<path d="M374.75,867.4c-13.65,0-26.93-0.02-40.2,0c-37.91,0.07-75.82,0.14-113.73,0.25c-1.9,0.01-3.79,0.37-5.69,0.54
	c-1.23,0.11-2.23-0.64-2.33-1.85c-0.1-1.27-0.1-2.56-0.11-3.84c-0.19-18.55-0.37-37.11-0.55-55.66c-0.15-16.15-0.29-32.3-0.41-48.45
	c-0.02-2.25-0.23-4.33-1.26-6.47c-0.94-1.94-1.24-4.29-1.35-6.48c-0.11-2.19,1-3.17,3.23-3.36c1.91-0.16,3.83-0.15,5.75-0.15
	c28.79,0.11,57.59,0.22,86.38,0.36c20.47,0.1,40.95,0.23,61.42,0.35c2.08,0.01,4.16,0.05,6.24,0.07c2.21,0.02,4.39,0.34,6.59-0.65
	c1.7-0.76,3.07,0.2,3.73,1.98c0.86,2.36,0.96,4.78-0.23,6.98c-0.81,1.51-0.94,2.98-0.95,4.59c-0.18,28.63-0.39,57.26-0.6,85.9
	c-0.04,4.96-0.15,9.92-0.09,14.87c0.03,2.18-0.44,4.06-1.85,5.76C377.41,863.75,376.22,865.44,374.75,867.4z M372.51,797.24
	c0.11-0.7,0.32-1.45,0.35-2.22c0.43-9.9,0.32-37.17-0.18-40.49c-1.48-0.06-3.04-0.18-4.59-0.18c-4.31,0-8.63,0.07-12.94,0.07
	c-35.16-0.04-70.32-0.11-105.47-0.14c-10.23-0.01-20.46,0.04-30.68,0.1c-1.22,0.01-2.45,0.23-3.63,0.34
	c-0.16,0.77-0.34,1.23-0.33,1.68c0.15,13.26,0.31,26.53,0.5,39.79c0.01,0.76,0.28,1.51,0.42,2.19
	C221.77,799.18,363.34,798.13,372.51,797.24z M374.71,746.74c-1.32,0-2.27,0-3.22,0c-32.16-0.14-64.32-0.24-96.48-0.43
	c-19.52-0.12-39.04-0.39-58.56-0.56c-1.54-0.01-3.15-0.41-4.59,0.43c0.03,2.71,0.02,2.71,1.69,5.06c1.1,0.08,2.36,0.24,3.62,0.25
	c4.16,0.02,8.32-0.01,12.48-0.02c39.52-0.05,79.04-0.11,118.56-0.16c7.52-0.01,15.04,0.02,22.56-0.03
	C373.88,751.24,374.14,750.89,374.71,746.74z M241.1,854.2c0.27-2.84,0.39-5.49-0.07-7.95c-0.58-0.3-0.85-0.56-1.12-0.56
	c-7.16,0-14.32,0.03-21.48,0.07c-0.61,0-1.21,0.17-2.04,0.29c-0.63,3.04-0.7,5.9,0.12,8.7C221.55,855.2,236.54,854.87,241.1,854.2z
	 M257.5,834.17c-0.97-0.17-1.58-0.36-2.18-0.36c-7.49,0.03-14.99,0.08-22.48,0.15c-0.44,0-0.87,0.28-1.56,0.52
	c-0.25,2.64-0.46,5.25,0.64,7.75c6.81,0.61,21.69,0.25,25.5-0.62C257.93,839.32,257.72,836.97,257.5,834.17z M243.4,854.1
	c0.58,0.18,1.02,0.44,1.47,0.43c7.48-0.12,14.97-0.25,22.45-0.43c0.58-0.01,1.14-0.39,1.73-0.6c0.1-2.67,0.26-5.18-0.35-7.81
	c-0.95-0.12-1.71-0.3-2.47-0.29c-7.48,0.07-14.96,0.16-22.44,0.28c-0.27,0-0.53,0.31-0.94,0.57
	C242.57,848.83,242.83,851.47,243.4,854.1z M271.23,854.06c8.3-0.07,16.24-0.06,24.17-0.57c0.4-0.03,0.77-0.47,1.4-0.88
	c-0.18-2.27-0.36-4.6-0.55-7c-3.09-0.89-5.95-0.35-8.78-0.41c-2.7-0.06-5.41,0.01-8.12,0.1c-2.81,0.1-5.67-0.28-8.53,0.37
	C270.23,848.5,270.77,850.97,271.23,854.06z M242.59,822.92c-0.07,2.59-0.29,4.95,0.85,7.47c4.27,0.36,8.54,0.21,12.8,0.17
	c4.21-0.04,8.47,0.44,12.85-0.49c0-1.35,0.04-2.44-0.01-3.53c-0.05-1.23-0.18-2.46-0.28-3.6
	C264.85,822.15,247.28,822.13,242.59,822.92z M298.3,845.55c-0.41,2.47-0.26,4.94,0.4,7.56c1.05,0.13,1.97,0.37,2.89,0.35
	c6.85-0.1,13.7-0.23,20.54-0.39c0.6-0.01,1.18-0.3,1.71-0.44c0.63-4.44,0.63-4.44-0.26-7.51
	C318.69,844.49,302.13,844.76,298.3,845.55z M240.89,822.78c-6.33-0.76-21.53-0.5-24.95,0.39c-0.31,2.43-0.48,4.89,0.19,7.21
	c0.58,0.2,0.87,0.39,1.16,0.39c7.19-0.06,14.37-0.13,21.56-0.25c0.72-0.01,1.44-0.36,2.04-0.53
	C240.89,827.46,240.89,825.27,240.89,822.78z M326,844.73c-0.21,3.1-0.63,5.59,0.27,7.88c0.62,0.18,0.92,0.35,1.21,0.34
	c7.35-0.16,14.7-0.32,22.05-0.54c0.72-0.02,1.44-0.43,2.15-0.65c0.07-1.35,0.18-2.46,0.16-3.58c-0.02-1.06-0.19-2.12-0.33-3.56
	C342.94,844.62,334.69,844.54,326,844.73z M325.22,801.44c-0.26,2.15-0.56,4.32,0.6,6.58c4.36,0,8.66,0.08,12.95-0.02
	c4.25-0.1,8.55,0.42,12.81-0.4c0.38-2.3,0.61-4.31,0-6.3C346.91,800.46,329.05,800.56,325.22,801.44z M259.78,841.79
	c0.87,0.12,1.64,0.32,2.4,0.3c7.03-0.12,14.06-0.27,21.09-0.45c0.59-0.01,1.17-0.29,2.09-0.53c-0.31-2.44,0.55-4.79-0.62-7.11
	c-2.92-0.7-5.8-0.28-8.65-0.33c-2.72-0.05-5.44-0.08-8.15,0.07c-2.8,0.15-5.7-0.62-8.41,0.64
	C259.22,836.91,259.21,839.26,259.78,841.79z M325.42,822.89c0.14,2.25,0.29,4.56,0.45,6.98c3.1,0.63,5.95,0.23,8.78,0.26
	c2.86,0.04,5.72,0.08,8.58-0.07c2.78-0.15,5.67,0.63,8.41-0.66c0.1-2.31,0.36-4.5-0.17-6.57
	C346.93,821.93,329.45,821.94,325.42,822.89z M296.2,829.84c0-2.55,0-4.76,0-6.97c-0.63-0.21-1.08-0.48-1.52-0.48
	c-7.5-0.02-14.99-0.03-22.49,0.02c-0.57,0-1.13,0.41-1.71,0.63c0.02,2.52-0.21,4.88,0.72,7.05
	C275.86,830.74,292.32,830.58,296.2,829.84z M287.14,841.32c5.9,0.58,21.87,0.29,25.13-0.4c0.56-3.34,0.56-3.34-0.39-6.92
	c-0.41-0.12-0.85-0.35-1.3-0.35c-7.32-0.01-14.65-0.01-21.97,0.04c-0.56,0-1.13,0.41-1.83,0.68c0,1.71-0.03,3.29,0.01,4.87
	C286.82,839.84,286.99,840.44,287.14,841.32z M242.46,808.34c1.28,0.16,2.05,0.35,2.82,0.35c7.35-0.03,14.7-0.09,22.04-0.17
	c0.27,0,0.53-0.31,0.93-0.56c0.31-2.11,0.28-4.27-0.28-6.33c-4.77-0.8-21.89-0.68-25.52,0.16
	C242.46,803.79,242.46,805.82,242.46,808.34z M298.23,822.71c-0.36,2.58-0.32,4.88-0.07,7.13c4.88,0.69,21.85,0.56,25.74-0.2
	c0.03-1.01,0.11-2.09,0.07-3.16c-0.05-1.23-0.2-2.47-0.3-3.61C320.07,822.11,304.12,822.01,298.23,822.71z M215.92,808.21
	c0.55,0.19,0.99,0.47,1.43,0.47c7.19-0.04,14.39-0.11,21.58-0.2c0.44-0.01,0.87-0.3,1.44-0.5c0.18-2.19,0.47-4.36-0.48-6.37
	c-6.25-0.65-20.87-0.33-24.07,0.53C215.42,804.14,215.37,806.17,215.92,808.21z M270.15,801.11c-0.05,2.82-0.19,5.01,0.66,7.27
	c2.99,0.53,5.85,0.22,8.69,0.22c2.71,0,5.43,0.01,8.13-0.17c2.79-0.18,5.69,0.58,8.43-0.72c0.11-2.22,0.29-4.26-0.78-6.66
	C287.11,801.07,278.88,801.05,270.15,801.11z M314.61,840.86c3.78,0.49,21.09,0.35,24.47-0.15c0.42-0.06,0.81-0.42,1.28-0.68
	c0-0.99,0.06-1.94-0.02-2.89c-0.08-1.07-0.28-2.12-0.45-3.28c-1.16-0.12-2.1-0.3-3.03-0.3c-7.16,0.03-14.32,0.09-21.49,0.17
	c-0.27,0-0.53,0.29-1.14,0.65C314.36,836.35,314.48,838.51,314.61,840.86z M340.96,857.33c-0.84-0.25-1.14-0.42-1.44-0.42
	c-7.81,0.06-15.63,0.12-23.44,0.23c-0.56,0.01-1.12,0.37-1.71,0.58c0,1.3-0.04,2.41,0.02,3.51c0.03,0.61,0.24,1.2,0.42,2.04
	c2.89,0.57,5.75,0.2,8.58,0.23c3.03,0.03,6.07,0.07,9.09-0.08c2.8-0.14,5.69,0.61,8.48-0.67
	C340.96,860.91,340.96,859.2,340.96,857.33z M259.75,818.5c3.29,0,6.16,0,9.04,0c2.72,0,5.44,0.09,8.16-0.03
	c2.82-0.12,5.72,0.58,8.48-0.53c0.39-2.02,0.33-3.87-0.24-5.59c-4.71-0.73-21.33-0.62-25.66,0.15
	C258.75,814.32,259.32,816.14,259.75,818.5z M314.42,812.47c-0.28,1.86-0.22,3.71,0.28,5.54c0.62,0.19,1.07,0.44,1.51,0.45
	c7.5,0.03,15,0.03,22.49,0.01c0.44,0,0.88-0.27,1.45-0.45c0.43-2.02,0.59-3.98-0.24-5.83C333.39,811.47,317.77,811.65,314.42,812.47
	z M231.95,812.48c-0.37,3.23-0.39,3.23,0.54,5.86c2.7,0.04,5.53,0.09,8.36,0.12c2.7,0.02,5.4,0.1,8.1-0.02
	c2.8-0.12,5.68,0.59,8.47-0.54c0.16-1.97,0.5-3.82-0.48-5.76C248.59,811.84,240.38,812.16,231.95,812.48z M323.04,801.31
	c-5.48-0.76-21.63-0.57-25.37,0.29c0.06,1.04,0.1,2.12,0.21,3.19c0.11,1.06,0.31,2.11,0.45,3.07c4.57,0.65,21.17,0.45,24.79-0.29
	C323.49,805.6,323.44,803.6,323.04,801.31z M287.44,812.41c-0.31,2-0.38,3.97,0.86,6.06c7.81-0.03,15.59,0.24,23.38-0.2
	c0.24-0.01,0.46-0.38,0.79-0.68c0.13-1.78,0.35-3.64-0.44-5.34C307.03,811.61,291.01,811.71,287.44,812.41z M287.48,863.21
	c4.65,0.67,21.34,0.55,25.01-0.2c0.05-0.88,0.18-1.81,0.13-2.74c-0.05-0.91-0.28-1.81-0.41-2.63c-4.9-0.82-21.11-0.4-25.08,0.65
	C286.91,859.94,286.8,861.62,287.48,863.21z M231.16,858.91c-0.33,1.81-0.65,3.32,0.55,5.03c2.76,0,5.61,0.01,8.46,0
	c3.02-0.01,6.06,0.06,9.07-0.1c2.8-0.15,5.69,0.57,8.45-0.66c0.05-0.92,0.14-1.71,0.11-2.5c-0.03-0.75-0.21-1.5-0.3-2.16
	C253.22,857.84,237.74,858.07,231.16,858.91z M285.23,857.97c-4.34-0.62-8.47-0.16-12.57-0.1c-4.26,0.06-8.57-0.43-12.74,0.46
	c-0.52,2.91-0.49,2.91,0.37,5.13c0.3,0.09,0.6,0.24,0.9,0.24c7.5,0,15.01-0.01,22.51-0.06c0.57,0,1.15-0.36,1.9-0.61
	C285.49,861.34,285.37,859.8,285.23,857.97z M371.76,852.1c1.22-3.29,1.24-3.94,0.24-7.41c-5.43-0.47-14.83-0.22-18.19,0.52
	c-0.47,2.26-0.63,4.54,0.12,6.89C360.07,852.1,365.95,852.1,371.76,852.1z M372.75,822.86c-5.06-0.81-15.69-0.71-19.1,0.11
	c-0.36,2.15-0.46,4.32,0.14,6.43c4.08,0.81,15.12,0.65,18.65-0.27c0.1-0.55,0.27-1.15,0.29-1.77
	C372.78,825.94,372.75,824.52,372.75,822.86z M372.68,801.22c-0.32-0.22-0.57-0.56-0.83-0.56c-5.27,0.02-10.54,0.07-15.81,0.15
	c-0.62,0.01-1.23,0.23-1.96,0.38c-0.5,2.22-0.71,4.34-0.03,6.39c4.91,0.57,15.02,0.37,18.49-0.35
	C373.08,805.26,372.91,803.22,372.68,801.22z M362.78,834.18c-6.08-0.82-16.95-0.78-20.37,0.02c-0.43,3.69-0.43,3.69,0.6,6.31
	c5.62,0.44,16.02,0.16,19.73-0.56C363.28,838.17,363.07,836.32,362.78,834.18z M342.55,817.94c3.97,0.77,15.55,0.72,19.65-0.09
	c0.57-1.91,0.68-3.84-0.07-5.7c-6.03-0.69-16.42-0.49-19.92,0.42c0,1.16-0.04,2.41,0.02,3.65
	C342.25,816.82,342.45,817.42,342.55,817.94z M362.97,857.03c-4.27-0.68-16.39-0.43-20.02,0.37c-0.39,1.77-0.42,3.59,0.23,5.81
	c3.35,0.25,6.65,0.04,9.93-0.09c3.27-0.12,6.61,0.45,9.86-0.57C362.97,860.64,362.97,858.95,362.97,857.03z M229.75,842.25
	c0-1.81,0.05-3.09-0.01-4.36c-0.06-1.22-0.25-2.43-0.4-3.77c-4.56-0.26-8.8-0.36-13.29,0c-0.31,2.89-0.53,5.52,0.36,8.41
	C220.73,842.72,224.97,842.76,229.75,842.25z M229.67,812.46c-4.92,0.13-9.3-0.41-13.88,0.18c-0.09,1.96-0.53,3.63,0.38,5.4
	c2.17,0.6,4.4,0.34,6.58,0.31c2.3-0.03,4.7,0.54,6.93-0.55C229.67,816.13,229.67,814.6,229.67,812.46z M216.29,864.06
	c4.77,0.08,8.96,0.45,13.24-0.63c0-1.23,0.05-2.16-0.02-3.09c-0.04-0.44-0.32-0.86-0.47-1.24c-4.25-0.7-9.49-0.58-12.75,0.32
	C216.29,860.78,216.29,862.17,216.29,864.06z M372.43,818.24c0.54-2.28,0.48-4.11,0.1-6.21c-2.81-0.19-5.41-0.7-8.01,0.4
	c-0.18,2.01-0.51,3.87,0.36,5.81C367.37,818.24,369.71,818.24,372.43,818.24z M372.44,834.01c-2.9-0.22-5.39-0.79-7.83,0.48
	c-0.03,2.01-0.42,3.91,0.56,5.76c2.44,0.32,4.76,0.41,7.21-0.01C372.86,838.16,372.8,836.32,372.44,834.01z M372.17,856.46
	c-2.55-0.27-4.99-0.6-7.38,0.64c-0.2,1.95-0.6,3.8,0.41,5.66c2.5,0.25,4.96,0.9,7.34-0.47C372.7,860.28,372.96,858.43,372.17,856.46
	z"/>
<path d="M-684.92,263.11c-1.15-1.06-2.27-2.17-3.47-3.17c-3.31-2.76-6.69-5.46-9.99-8.23c-1.09-0.92-2.16-1.92-3.02-3.04
	c-1.09-1.43-0.57-3.17,1.02-4.03c2.11-1.14,4.34-1.02,6.54-0.48c5.2,1.28,9.92,3.5,13.87,7.22c2.67,2.52,5.4,4.99,8.16,7.42
	c2.13,1.88,4.6,2.79,7.85,2.13c-0.37-1.1-0.6-2.12-1.05-3.04c-3.59-7.32-7.23-14.61-10.83-21.91c-0.71-1.43-1.39-2.88-1.94-4.38
	c-0.74-1.99,0.57-3.94,2.71-3.96c0.92-0.01,1.91,0.24,2.74,0.63c2.22,1.04,3.89,2.76,5.29,4.75c2.01,2.87,4.05,5.71,6.19,8.73
	c0.88-0.36,1.58-0.65,2.21-0.91c0.1-0.43,0.29-0.77,0.21-1.03c-0.39-1.38-0.87-2.73-1.27-4.11c-0.4-1.38-0.84-2.76-1.09-4.17
	c-0.28-1.61-0.25-3.22,1.26-4.34c0.99-0.73,2.56-0.39,4.23,1.27c1.47,1.45,2.75,3.11,4,4.76c1.34,1.78,2.54,3.66,3.82,5.51
	c2.96,0.2,5.82,0.61,8.67,0.54c3.01-0.08,6.02-0.58,9.02-0.99c1.26-0.17,2.53-0.47,3.72-0.92c9.62-3.6,18.92-1.86,27.99,1.89
	c3.06,1.27,5.95,3.12,8.61,5.12c5.11,3.84,10.01,7.95,14.96,12c2.48,2.02,4.84,4.17,7.31,6.21c2.46,2.03,4.93,4.03,7.79,5.54
	c3.03,1.61,3.57,2.95,2.81,6.3c-0.92,4.1-2.58,7.93-5.13,11.26c-2.33,3.04-4.88,5.91-7.47,8.74c-1.84,2.02-2.99,2.03-4.64-0.28
	c-3.09-4.34-7.1-7.78-10.79-11.52c-2.93-2.97-6.3-5.39-9.87-7.56c-4.05-2.47-8.33-2.98-12.91-1.95c-4.41,0.99-8.47,2.81-12.41,4.97
	c-2.8,1.54-5.63,3.04-8.87,3.5c-0.63,0.09-1.29,0.43-1.88,0.33c-4.68-0.82-9.57-0.1-14.12-1.96c-1.77-0.72-3.58-1.37-5.41-1.94
	c-4-1.25-8-1.86-12.26-0.99c-2.27,0.47-4.77,0.06-7.13-0.24c-5.86-0.73-11.57-2.49-17.52-2.64c-2.87-0.08-5.75-0.13-8.62-0.26
	c-1.59-0.07-3.21-0.13-4.76-0.44c-1.93-0.4-2.72-2.56-1.5-4.12c0.77-0.98,1.78-1.85,2.83-2.53c2.75-1.76,5.82-2.59,9.08-2.67
	c1.58-0.04,3.15-0.01,4.73-0.01C-685.1,263.77-685.01,263.44-684.92,263.11z M-630.03,272.89c0.6,0.7,0.92,1.43,1.35,1.49
	c1.39,0.22,2.86,0.42,4.22,0.2c1.55-0.26,3.1-0.82,4.5-1.54c3.12-1.6,6.15-3.35,9.19-5.09c5.58-3.19,11.29-4.23,17.33-1.33
	c1,0.48,2.06,0.88,3.12,1.18c0.56,0.16,1.2,0.03,1.78,0.03c0-0.38,0.06-0.57-0.01-0.66c-0.27-0.37-0.51-0.82-0.88-1.06
	c-6.11-3.88-12.51-4.5-19.11-1.41c-2.74,1.28-5.36,2.82-8.01,4.28c-3.54,1.95-7.23,3.32-11.34,3.38
	C-628.47,272.36-629.05,272.64-630.03,272.89z M-631.88,252.38c2.6,2.75,3.88,3.47,7.71,3.67c3.01,0.15,6.23,1.16,9.3-1.15
	c-0.7-0.5-1.16-1.09-1.66-1.12c-2.36-0.16-4.73-0.06-7.08-0.26C-626.09,253.29-628.54,252.85-631.88,252.38z M-574.08,287.62
	c4.25-3.27,8.23-8.92,9.91-13.11c0.04-0.11-0.31-0.37-0.61-0.72c-2.83,4.11-5.61,8.16-8.39,12.21
	C-573.52,286.51-573.78,287.08-574.08,287.62z M-633.94,273.85c-0.02-0.15,0.01-0.33-0.06-0.45c-0.69-1.13-2.35-1.8-3.61-1.35
	c-0.31,0.11-0.66,0.76-0.61,1.11c0.17,1.08,1.08,1.52,2.03,1.57c0.7,0.04,1.43-0.28,2.13-0.47
	C-633.99,274.24-633.98,273.99-633.94,273.85z M-638.56,253.19c0.33,0.52,0.48,0.98,0.79,1.18c0.33,0.21,0.83,0.26,1.24,0.22
	c0.15-0.02,0.44-0.59,0.36-0.72c-0.21-0.34-0.55-0.69-0.91-0.8C-637.46,252.95-637.92,253.12-638.56,253.19z M-568.44,287.56
	c-0.07-0.15-0.12-0.25-0.17-0.35c-0.31,0.25-0.62,0.5-0.91,0.77c-0.03,0.03,0.1,0.22,0.16,0.34
	C-569.05,288.06-568.74,287.81-568.44,287.56z"/>
<path d="M-553.58,474.66c-10.47,4.13-21.32,4.11-32.22,3.86c-10.95-0.25-20.92-4.16-31.23-8.12c-0.19-0.89-0.49-1.93-0.62-3
	c-0.9-7.62-1.74-15.25-2.64-22.88c-1.12-9.53-2.29-19.05-3.39-28.58c-0.55-4.75,0.23-6.37,4.64-8.21c2.92-1.22,6.04-2.18,9.16-2.71
	c14.65-2.51,29.26-2.83,43.75,1.22c5.42,1.51,10.55,3.7,15.55,6.25c3.65,1.86,6.52,4.55,8.41,8.01
	C-544.24,433.47-551.5,468.03-553.58,474.66z M-546.15,421.05c-1.08-2.52-2.65-3.87-4.46-4.87c-2.51-1.39-5.05-2.76-7.7-3.85
	c-17.62-7.23-35.76-7.39-54.15-3.77c-0.44,0.09-0.84,0.4-1.26,0.61c7.96,1.16,15.04,3.53,22,6.39c6.97,2.87,14.2,4.85,21.7,5.73
	C-562.25,422.21-554.47,422.53-546.15,421.05z"/>
<path d="M217.49-254.08c-1.7,0.83-3.64,0.75-5.54,0.75c-20.8-0.01-41.59-0.05-62.39-0.07c-0.96,0-1.92,0.06-2.88,0.07
	c-3.88,0.06-4.31-0.26-4.65-4.3c-0.38-4.46-0.58-8.93-0.88-13.7c-2.12-3.16-4.28-6.71-6.76-10.02c-2.01-2.67-4.26-5.2-6.67-7.52
	c-2.88-2.76-6.06-5.22-9.1-7.82c-3.66-3.13-6.99-6.57-9.82-10.48c-3.43-4.73-4.92-9.97-4.29-15.82c1.41-13.02,8.13-22.3,19.79-28.04
	c4.73-2.33,9.81-2.76,14.99-2.11c3.9,0.49,7.41,1.92,10.26,4.55c2.59-0.44,4.95-0.79,7.29-1.24c2.86-0.55,5.7-0.67,8.59-0.18
	c0.91,0.15,1.94,0.22,2.79-0.05c3.36-1.1,4.64-3.94,3.29-7.24c-0.48-1.17-1.26-2.22-1.88-3.34c-2.64-4.75-1.96-9.26,2.02-13.03
	c0.93-0.88,2-1.6,2.96-2.44c0.6-0.52,1.2-1.07,1.7-1.68c0.75-0.93,1.09-2.11,0.44-3.12c-0.33-0.51-1.31-0.69-2.04-0.82
	c-0.89-0.16-1.51-0.4-1.26-1.78c0.45-0.12,1.02-0.27,1.59-0.41c0.46-0.11,0.92-0.22,1.34-0.32c0.11-0.19,0.26-0.33,0.27-0.47
	c0.1-1.25,0.18-2.51,0.26-3.84c0.45-0.13,0.88-0.32,1.32-0.35c0.46-0.03,0.93,0.1,1.47,0.18c0.13,1.37,0.27,2.71,0.41,4.22
	c1.28,0.16,2.4,0.17,3.42,0.47c0.97,0.28,0.97,1.09,0.4,2.06c-0.95,0.16-2.01,0.33-3.1,0.51c-0.2,0.52-0.44,0.94-0.52,1.39
	c-0.22,1.23,0.34,2.19,1.23,2.96c1.21,1.04,2.53,1.97,3.71,3.04c4.65,4.23,5.58,10.19,2.48,15.66c-0.16,0.28-0.34,0.54-0.53,0.8
	c-1.23,1.67-1.83,3.5-0.52,5.31c1.35,1.87,3.14,3.36,5.68,2.8c4.67-1.04,9.23-0.29,13.79,0.63c1.47,0.3,2.77,0.24,4.15-0.46
	c11.69-5.98,25.19-2.16,33.86,6.65c11,11.17,10.91,26.63,3.97,37.51c-1.88,2.94-4.2,5.65-6.61,8.2c-3.4,3.6-7.07,6.96-10.61,10.43
	c-2.17,2.13-4.44,4.17-6.45,6.44c-1.58,1.78-2.93,3.79-4.21,5.81c-1.03,1.63-1.49,3.46-1.45,5.47c0.06,3.36-0.06,6.72-0.2,10.07
	C218.54-257.19,218.67-255.53,217.49-254.08z M177.06-312.14c0.04,0,0.08,0,0.12,0c0-6.71,0-13.42,0-20.12
	c0-1.59,0.24-3.21-0.72-4.65c-2.56-3.83-5.78-6.76-10.45-7.83c-4.19-0.96-8.24-0.2-12.31,0.7c-6.69,1.47-10.93,5.75-13.35,11.9
	c-2.13,5.43-1.92,10.93,0.26,16.36c1.92,4.79,4.74,9.03,7.71,13.2c2.96,4.16,5.76,8.44,8.73,12.59c1.2,1.68,2.58,3.25,4.04,4.71
	c1.41,1.42,3.26,2.15,5.25,1.83c2.03-0.32,4.11-0.74,5.98-1.54c3.2-1.36,4.88-3.77,4.79-7.5
	C176.93-299.04,177.06-305.59,177.06-312.14z M181.86-313.08c0.06,0,0.13,0,0.19,0c0,1.92,0.01,3.83,0,5.75
	c-0.01,2.08-0.07,4.15-0.07,6.23c0,3.19-0.03,6.39,0.06,9.58c0.11,3.81,2.19,6.18,5.72,7.4c5.92,2.03,10.68,0.31,13.96-4.98
	c1.6-2.57,3.24-5.12,4.95-7.62c2.26-3.29,4.77-6.41,6.89-9.79c1.86-2.96,3.49-6.09,4.93-9.28c1.68-3.72,2.09-7.71,1.36-11.73
	c-1.36-7.41-5.11-13.04-12.45-15.67c-3.16-1.13-6.49-1.61-9.87-1.7c-5.3-0.15-9.62,1.79-13.11,5.76c-1.76,2-2.71,4.11-2.62,6.91
	C181.99-325.85,181.86-319.46,181.86-313.08z M214.65-346.11c1.68,1.77,3.15,3.18,4.45,4.73c5.45,6.52,7.52,13.94,5.79,22.33
	c-1.08,5.24-3.32,10-6.29,14.4c-2.77,4.1-5.8,8.03-8.59,12.12c-1.61,2.37-3.04,4.87-4.43,7.38c-0.95,1.71-1.25,3.61-1,5.57
	c0.29,2.28,1.49,3.8,3.7,4.53c3.58,1.19,6.54,0.39,8.77-2.97c3.04-4.59,7.02-8.26,10.9-12.05c4.11-4.01,8.3-7.97,12.18-12.2
	c4.52-4.92,7.45-10.65,8.15-17.48c0.38-3.75,0.11-7.3-1.08-10.85c-1.8-5.4-5.54-9.19-9.99-12.5
	C230.37-348.19,223-348.69,214.65-346.11z M143.74-345.68c-0.15-0.45-0.15-0.64-0.24-0.71c-0.38-0.28-0.76-0.65-1.2-0.77
	c-4.9-1.33-9.74-1.48-14.59,0.38c-10.69,4.1-18.23,15.03-18.15,26.47c0.02,2.78,0.57,5.48,2.1,7.77c1.86,2.78,3.81,5.56,6.11,7.96
	c2.98,3.11,6.27,5.93,9.57,8.71c5.44,4.57,10.14,9.74,13.75,15.88c0.89,1.51,1.98,2.91,2.96,4.37c1.03,1.54,2.45,1.86,4.19,1.51
	c5.4-1.07,8.13-6.56,5.48-11.42c-1.45-2.66-3.22-5.15-4.95-7.64c-2.65-3.81-5.42-7.53-8.07-11.33c-2.49-3.56-4.38-7.44-5.7-11.58
	c-3.19-10.02-1.17-18.92,5.92-26.67C141.88-343.78,142.88-344.77,143.74-345.68z M145.63-268.09c0.44,3.93-0.22,7.72,0.82,11.61
	c2.57,0,4.94,0.02,7.31,0c19.36-0.23,38.71-0.47,58.07-0.72c0.91-0.01,1.81-0.21,3.02-0.35c0.13-2.94,0.26-5.63,0.34-8.32
	c0.02-0.76-0.11-1.53-0.19-2.49c-0.92-0.13-1.68-0.31-2.45-0.33C198.18-269.13,150.75-268.76,145.63-268.09z"/>
<path d="M47.99,688.88c-3.81,0.23-20.41,4.22-26.42,6.33c-0.07,1.16-0.2,2.42-0.21,3.68c-0.04,7.04,0,14.08-0.09,21.11
	c-0.06,5.14-1.98,6.78-7.15,6.38c-2.68-0.21-3.75-1.09-3.88-3.88c-0.29-6.23-0.36-12.47-0.57-18.7c-0.06-1.71,0.29-3.49-0.51-5.03
	c-0.47-0.14-0.79-0.34-1.07-0.29c-1.26,0.21-2.51,0.45-3.75,0.76c-5.58,1.36-11.15,2.75-16.99,4.2c0,1.3-0.01,2.39,0,3.48
	c0.08,15.35,0.18,30.71,0.24,46.06c0.01,2.07-0.13,4.15-0.29,6.22c-0.11,1.45-1.01,2.29-2.42,2.58c-0.31,0.06-0.63,0.12-0.95,0.15
	c-5.84,0.53-7.5,0.26-7.56-6.45c-0.15-16.31-0.34-32.63-0.51-48.94c-0.01-0.79,0-1.57,0-2.24c-4.62-1.92-9.02-3.74-13.41-5.57
	c-4.22-1.76-8.17-4.19-13.04-5.46c0,8.67,0,16.96,0,25.25c0,8.3,0.37,16.6,0.09,24.83c-2.72,2.03-5.51,2.15-8.41,1.59
	c-1.47-0.29-2.13-1.04-2.33-2.64c-0.14-1.11-0.14-2.23-0.16-3.35c-0.26-16.31-0.52-32.62-0.78-48.93c-0.01-0.79-0.09-1.58-0.14-2.59
	c-2.59-1.23-5.12-2.58-7.77-3.65c-4.38-1.76-5.83-5.24-5.77-9.55c0.07-4.45,2.37-7.53,6.43-9.24c1.3-0.55,2.71-0.86,4.13-1.31
	c0.77-2.07,0.26-4.08,0.24-6.08c-3.68-0.12-14.15,2.23-21.65,4.79c-0.83,1.45-0.4,3.07-0.4,4.62c0.03,14.87,0.11,29.75,0.16,44.62
	c0.01,2.08-0.05,4.16-0.21,6.23c-0.12,1.65-0.75,2.46-2.26,2.64c-1.89,0.23-3.81,0.29-5.72,0.21c-1.44-0.06-2.31-1.06-2.51-2.48
	c-0.17-1.26-0.26-2.54-0.28-3.82c-0.25-16.15-0.49-32.3-0.73-48.46c-0.02-1.09-0.12-2.18-0.18-3.34
	c-9.02-2.32-16.77-7.3-25.19-10.41c-1.4,1.15-0.92,2.51-0.92,3.7c0.05,13.6,0.14,27.19,0.22,40.79c0.01,1.28,0.04,2.56-0.03,3.84
	c-0.11,1.82-0.66,2.47-2.51,2.99c-0.92,0.26-1.87,0.47-2.82,0.54c-4.45,0.32-5.75-0.8-5.83-5.39c-0.26-16.31-0.43-32.63-0.64-48.94
	c-0.01-0.95,0-1.9,0-3.11c-0.9-0.55-1.8-1.17-2.76-1.65c-1.72-0.85-3.45-1.7-5.23-2.4c-4.4-1.72-5.79-5.31-5.82-9.55
	c-0.03-4.28,2.85-7.93,6.97-9.39c0.45-0.16,0.91-0.31,1.37-0.43c24.59-6.42,49.15-12.92,73.78-19.19
	c7.41-1.89,14.92-1.44,22.26,0.86c0.76,0.24,1.51,0.55,2.21,0.91c11.82,6.03,23.61,12.11,35.45,18.08c3.7,1.86,6.08,4.55,6.7,8.71
	c0.67,4.47-0.78,7.4-4.88,9.36c-1.28,0.61-2.7,0.94-4.07,1.34c-1.51,0.43-3.04,0.79-4.58,1.19c-0.27,2.17-0.44,4.02,0.46,6.11
	c5.78-1.5,11.5-2.93,17.19-4.49c3.72-1.02,7.46-1.72,11.32-1.92c4.52-0.23,8.94,0.31,13.28,1.53c1.23,0.34,2.46,0.75,3.59,1.33
	c11.68,5.94,23.3,12,35.03,17.85c3.89,1.94,6.38,4.67,7.16,8.95c0.69,3.8-0.72,7.01-4.15,8.86c-1.38,0.75-2.94,1.22-4.45,1.68
	c-1.66,0.5-3.36,0.84-5.3,1.32c0,1.45-0.01,2.7,0,3.95c0.14,14.71,0.29,29.43,0.41,44.14c0.01,1.76-0.01,3.52-0.17,5.27
	c-0.21,2.36-1.22,3.43-3.53,3.84c-0.93,0.17-1.92,0.23-2.86,0.15c-2.98-0.26-3.79-1.38-3.85-3.85c-0.16-6.23-0.46-12.47-0.56-18.7
	c-0.15-9.44-0.18-18.87-0.27-28.31C48.16,691.07,48.05,689.97,47.99,688.88z M-70.12,669.95c-0.27,0.16-0.64,0.24-0.8,0.48
	c-2.8,4.24-1.82,8.11,2.68,10.2c12.61,5.86,25.22,11.72,37.88,17.47c6.02,2.73,12.31,3.19,18.74,1.58
	c25.12-6.28,50.24-12.53,75.36-18.8c0.93-0.23,1.89-0.38,2.77-0.74c2.29-0.91,3.49-2.91,3.17-5.33c-0.4-3-1.66-5.29-4.64-6.74
	c-11.21-5.46-22.39-10.97-33.44-16.74c-7.63-3.98-15.53-4.66-23.72-2.9c-5.47,1.17-10.85,2.73-16.27,4.11
	c-18.73,4.78-37.47,9.56-56.2,14.37c-2.15,0.55-4.41,0.99-5.69,3.15C-70.26,670.07-70.12,669.95-70.12,669.95z M-59.06,606.38
	c-3.49-0.31-7.33,0.77-11.21,1.77c-22.89,5.89-45.79,11.69-68.67,17.59c-1.81,0.47-3.71,1.2-5.18,2.32
	c-4.2,3.18-3.49,8.96,1.23,11.28c0.57,0.28,1.16,0.54,1.74,0.8c11.75,5.42,23.52,10.79,35.24,16.26c6.64,3.1,13.42,3.72,20.53,1.94
	c24.94-6.26,49.89-12.45,74.83-18.67c0.77-0.19,1.57-0.32,2.32-0.59c2.73-1,4.05-3.23,3.48-6.03c-0.56-2.79-1.91-4.85-4.68-6.2
	c-11.06-5.38-22.09-10.82-32.98-16.53C-47.51,607.66-52.79,606.34-59.06,606.38z M-15.4,758.67c0-18.21,0-35.73-0.02-53.25
	c0-0.28-0.26-0.56-0.48-0.99c-1.6-0.41-3.24-0.4-4.74,0.14c-0.17,0.61-0.33,0.91-0.33,1.21c0.12,16.89,0.25,33.79,0.4,50.68
	c0.01,0.75,0.28,1.49,0.48,2.53C-18.55,758.89-17.19,758.8-15.4,758.67z M-133.27,648.03c0,1.94-0.01,3.04,0,4.15
	c0.12,10.53,0.23,21.06,0.38,31.59c0.07,5.1,0.21,10.21,0.35,15.31c0.01,0.43,0.34,0.85,0.56,1.37c0.64,0.07,1.27,0.24,1.87,0.18
	c0.73-0.07,1.45-0.34,2.36-0.57c0.09-16.79-0.07-33.32-0.3-49.96C-129.76,649.42-131.2,648.85-133.27,648.03z M-90.4,717.47
	c0.22-0.72,0.47-1.16,0.47-1.6c0.01-17.26,0-34.51-0.04-51.77c0-0.27-0.28-0.55-0.53-1c-1.58-0.1-3.27-0.44-4.89,0.51
	c0.17,17.58,0.33,34.98,0.52,52.38c0,0.45,0.25,0.89,0.43,1.49C-93.06,717.47-91.73,717.47-90.4,717.47z M-58.66,689.26
	c-0.1,1.51-0.25,2.57-0.23,3.64c0.16,12.14,0.35,24.28,0.53,36.43c0.05,3.67,0.08,7.35,0.17,11.02c0.01,0.43,0.35,0.85,0.63,1.46
	c1.21-0.05,2.43-0.11,3.4-0.15c0.33-0.42,0.5-0.53,0.52-0.67c0.1-0.63,0.23-1.26,0.22-1.89c-0.06-15.66-0.13-31.31-0.21-46.97
	c0-0.15-0.09-0.31-0.17-0.45c-0.07-0.13-0.18-0.25-0.46-0.63C-55.44,690.58-56.86,690-58.66,689.26z M51.5,687.59
	c-0.2,0.6-0.39,0.89-0.38,1.19c0.26,16.25,0.54,32.49,0.84,48.74c0.01,0.74,0.35,1.47,0.59,2.4c1.2-0.14,2.22-0.26,3.32-0.38
	c0.07-1.1,0.17-1.88,0.17-2.66c-0.03-16.41-0.07-32.82-0.12-49.23c0-0.14-0.13-0.28-0.21-0.41c-0.08-0.13-0.19-0.24-0.46-0.56
	C54.02,686.98,52.67,687.3,51.5,687.59z M-26.2,647.51c-5.05,0.46-9.27,1.89-13.56,2.98c-4.42,1.12-8.98,1.79-13.26,3.64
	c0,1.23-0.05,2.18,0.01,3.13c0.06,0.9,0.22,1.8,0.33,2.68c4.29-0.35,22.48-5.11,26.22-6.86C-26.38,651.52-26.3,649.82-26.2,647.51z
	 M17.71,722.64c0.57-3.99,0.73-22.57,0.2-26.84c-1.73,0.81-3.7,0.48-5.44,2.01c0.28,7.86,0.54,15.79,0.86,23.72
	c0.02,0.57,0.45,1.12,0.78,1.89C15.43,723.13,16.62,722.88,17.71,722.64z M-56.66,661.51c0.58-2.31,0.69-4.29,0.16-6.68
	c-1.98,0.51-3.91,0.26-5.5,1.88c0.16,1.81-0.22,3.72,0.86,5.81C-59.62,662.17-58.14,661.84-56.66,661.51z M-23.52,646.5
	c0.3,2.31,0.52,3.98,0.79,6.05c1.6-0.44,2.89-0.79,4.04-1.1c0.45-3.41,0.45-3.41-0.41-5.93C-20.42,645.81-21.76,646.11-23.52,646.5z
	"/>
<path d="M407.57-288.04c-1.22-0.59-2.03-1.02-2.87-1.38c-3.22-1.42-6.53-2.65-9.65-4.27c-2.97-1.54-5.83-3.33-8.55-5.26
	c-2.81-1.99-4.58-4.87-5.76-8.09c-1.03-2.82-0.97-5.64,0.07-8.44c1.43-3.83,4.2-5.96,8.26-6.29c1.73-0.14,3.47-0.02,5.31-0.02
	c0.84-5.77,2.45-10.86,7.3-14.29c4.1-2.9,6.77-3.51,15.73-3.32c-0.1-1.09-0.23-2.15-0.27-3.22c-0.25-5.76,3.95-10.37,9.51-10.49
	c5.46-0.12,10.02,4.48,9.99,10.12c-0.01,1.11-0.24,2.21-0.41,3.66c0.83,0,1.59,0.11,2.31-0.02c2.58-0.48,5.09-0.08,7.63,0.33
	c6.51,1.05,10.63,4.86,12.69,10.98c0.65,1.94,0.98,3.99,1.5,6.16c0.63,0,1.24,0.05,1.84-0.01c0.63-0.07,1.25-0.28,1.89-0.35
	c8.61-0.96,14.4,6.23,11.65,14.52c-1.13,3.41-3.03,6.42-6,8.49c-2.87,2-5.88,3.87-9,5.45c-3.41,1.73-7.03,3.06-10.55,4.59
	c-0.54,0.23-1.03,0.56-1.8,0.99c1.16,1.78,2.72,2.59,4.33,3.15c8.61,3,17.22,3.4,25.67-0.55c4.33-2.02,7.55-5.33,9.87-9.49
	c0.54-0.97,0.95-2.04,1.2-3.12c0.73-3.07-0.52-4.97-3.57-5.63c-4.4-0.96-8.65,2.33-8.96,6.97c-0.02,0.27,0.25,0.57,0.52,1.15
	c0.78-0.14,1.67-0.25,2.52-0.48c1.09-0.29,1.91,0,2.38,1c0.51,1.08-0.17,1.86-0.93,2.44c-3.41,2.62-7.7,1.02-8.4-3.16
	c-0.18-1.07-0.11-2.25,0.15-3.31c1.58-6.45,8.87-10.28,15.09-7.99c3.78,1.39,5.67,4.13,5.24,8.12c-0.22,2.02-0.94,3.99-1.51,6.26
	c0.89,0.44,1.87,0.87,2.8,1.4c1.31,0.74,2.31,1.8,2.42,3.35c0.05,0.68-0.33,1.39-0.65,2.58c-0.98-0.73-1.65-1.07-2.12-1.6
	c-1.75-1.99-3.44-1.97-5.45-0.37c-1.08,0.86-1.98,2.08-2.65,3.31c-1.06,1.95-0.39,3.72,1.56,4.86c1.63,0.95,3.36,1.07,5.09,0.46
	c1.66-0.58,3.25-1.35,4.87-2.02c2.08-0.86,4.2-1.54,6.51-1.34c3.71,0.31,6.73,2.85,7.5,6.37c0.51,2.34,0.02,4.47-1.61,6.24
	c-0.84,0.91-1.85,1.66-2.84,2.53c1.03,1.54,2.03,2.95,2.91,4.44c0.16,0.27-0.04,1.09-0.29,1.22c-0.49,0.24-1.17,0.32-1.71,0.19
	c-0.4-0.09-0.73-0.59-1.02-0.96c-2.88-3.64-6.8-5.78-10.97-7.48c-8.03-3.28-16.38-5.38-24.93-6.82
	c-14.08-2.37-28.28-3.38-42.52-3.52c-18.43-0.18-36.76,1.18-54.77,5.45c-5.45,1.29-10.82,2.89-15.97,5.11
	c-4.6,1.98-8.87,4.44-11.79,8.74c-0.19,0.28-1.12,0.46-1.24,0.3c-0.35-0.43-0.64-1.06-0.62-1.6c0.02-0.6,0.36-1.21,0.66-1.77
	c0.45-0.82,0.98-1.59,1.57-2.54c-0.96-0.62-1.79-1.08-2.54-1.65c-2.33-1.79-3.59-4.15-2.97-7.1c0.63-3.01,2.45-5.18,5.44-6.19
	c2.54-0.86,5.07-0.5,7.52,0.41c1.5,0.55,2.94,1.25,4.4,1.9c1.82,0.81,3.7,1.04,5.62,0.55c2.68-0.68,3.85-3.1,2.56-5.52
	c-0.59-1.1-1.41-2.15-2.34-2.97c-2.02-1.76-3.62-1.56-5.79,0.46c-0.34,0.32-0.71,0.62-1.09,0.9c-0.1,0.08-0.3,0.03-0.45,0.05
	c-1.25-1.81-1.33-2.77-0.34-4.07c0.92-1.2,2.16-1.9,3.62-2.17c1.08-0.2,2.18-0.27,3.46-0.43c-0.56-1.72-1.13-3.2-1.51-4.73
	c-1.39-5.55,1.75-9.9,7.47-10.45c5.97-0.57,11.19,2.99,12.77,8.66c0.56,1.99,0.29,3.82-0.84,5.5c-1.92,2.85-6.09,2.93-8.18,0.13
	c-0.32-0.42-0.35-1.25-0.19-1.79c0.26-0.87,1.09-1.12,1.94-0.94c0.9,0.19,1.77,0.49,2.83,0.79c0.31-0.78,0.78-1.38,0.71-1.9
	c-0.69-4.72-5.57-7.75-10.01-6.28c-2.22,0.73-3.31,2.54-2.81,4.87c0.55,2.54,1.78,4.76,3.4,6.8c4.34,5.46,10.16,8.16,16.91,9.01
	c5.32,0.67,10.54-0.05,15.61-1.74C403.89-284.85,405.79-285.74,407.57-288.04z M437.32-292.45c0.27-0.07,0.6-0.05,0.78-0.2
	c6.5-5.38,11.76-11.76,15.17-19.5c1.15-2.61,2.01-5.42,2.5-8.22c1.1-6.22-2.47-12.58-7.94-14.27c-2.11-0.65-4.39-1.03-6.6-1.05
	c-4.31-0.03-8.19,1.34-11.14,4.67c-0.55,0.63-0.83,1.5-1.3,2.36c2.01,0.68,3.67,1.23,5.32,1.81c4.78,1.69,7.57,5.15,8.79,9.98
	c0.88,3.47,0.84,6.96,0.1,10.45c-0.88,4.11-2.64,7.86-4.76,11.46C437.82-294.2,436.8-293.61,437.32-292.45z M423.36-328.55
	c-0.04-0.47,0.03-0.85-0.11-1.08c-2.85-4.45-7.1-6.49-12.19-6.04c-5.43,0.48-9.69,3.19-11.64,8.58c-1.9,5.25-1.19,10.39,1.29,15.26
	c3.15,6.19,7.77,11.25,12.7,16.05c0.16,0.15,0.51,0.1,1.2,0.21c-0.53-0.86-0.9-1.5-1.3-2.12c-1.67-2.56-2.92-5.3-3.74-8.24
	c-2.75-9.79,2.05-19.25,11.17-21.7C421.63-327.86,422.51-328.24,423.36-328.55z M459.91-318.58c-0.41,0.83-0.71,1.24-0.82,1.68
	c-1.5,6.17-4.44,11.65-8.36,16.56c-2.48,3.11-5.32,5.94-7.96,8.93c-0.44,0.5-1.46,0.79-0.82,2.02c3.55-1.39,7.12-2.72,10.63-4.19
	c3.09-1.3,6.17-2.65,9.14-4.2c1.97-1.03,3.79-2.37,5.58-3.71c1.96-1.46,3.28-3.45,4.32-5.66c0.92-1.95,1.15-3.97,0.82-6.08
	c-0.65-4.18-3.46-6.53-7.66-6.24C463.19-319.36,461.64-318.91,459.91-318.58z M411.99-290.89c-0.49-0.6-0.96-1.22-1.47-1.81
	c-3.12-3.63-6.26-7.24-9.37-10.89c-2.95-3.46-5.01-7.36-5.77-11.91c-0.18-1.05-0.66-2.05-1.02-3.12c-1.3-0.14-2.4-0.36-3.5-0.35
	c-3.96,0.06-6.23,2.02-6.91,5.9c-0.43,2.44-0.01,4.73,1.09,6.96c1.86,3.77,5.02,6.18,8.54,8.13
	C399.29-294.83,405.32-292.37,411.99-290.89z M417.52-300.12c0.08-1.24,0.12-2.49,0.26-3.73c0.46-3.99,1.23-7.91,3.77-11.19
	c3.13-4.05,7.67-4.13,10.96-0.22c1.78,2.12,2.79,4.63,3.38,7.31c0.4,1.79,0.76,3.58,1.21,5.67c2.79-5.09,3.31-10.55,1.6-15.03
	c-0.95-2.49-2.54-4.37-4.98-5.54c-2.33-1.11-4.74-1.88-7.33-2c-6.86-0.32-12.87,4.74-13.62,11.52
	C412.23-308.34,413.78-303.98,417.52-300.12z M421.29-301.8c0.19,2.28,0.23,3.89,0.47,5.46c0.2,1.25,0.48,2.54,1.01,3.68
	c0.66,1.43,1.51,2.81,2.48,4.04c0.88,1.1,2.4,1.08,3.4,0.09c1.62-1.59,2.76-3.47,3.35-5.71c1.25-4.77,1.09-9.5-0.3-14.19
	c-0.36-1.21-0.92-2.4-1.58-3.47c-1.88-3.06-4.37-2.99-6.23,0.18c-0.64,1.09-1.18,2.29-1.47,3.52
	C421.89-305.87,421.58-303.5,421.29-301.8z M432.73-343.28c-0.04-3.23-2.97-6.02-6.22-5.92c-3.23,0.1-6.08,3.11-5.92,6.24
	c0.14,2.83,3.12,5.64,6.04,5.72C429.82-337.15,432.77-340.07,432.73-343.28z M493.07-274.31c2.83,1.28,4.87,2.13,6.84,3.12
	c2.03,1.02,4.04,0.62,5.96-0.06c2.49-0.88,2.93-3.95,0.97-5.79c-1.4-1.31-3.1-1.58-4.86-1.11
	C499.1-277.39,496.5-275.95,493.07-274.31z M360.23-273.93c-2.82-1.26-4.96-2.28-7.15-3.16c-1.63-0.65-3.35-0.94-5.1-0.41
	c-2.75,0.82-3.93,4.29-1.87,5.91c1.91,1.5,4.31,2.1,6.64,1.26C355.09-271.17,357.27-272.47,360.23-273.93z M370.07-276.8
	c3.41-0.74,6.18-1.33,8.94-1.97c0.2-0.05,0.31-0.46,0.6-0.92c-2.54-1.21-5.06-2.4-7.71-3.65
	C371.32-281.25,370.78-279.32,370.07-276.8z M481.3-282.47c-2.34,0.93-4.5,1.78-6.84,2.7c2.5,1.57,4.67,2.11,8.86,2.26
	C482.65-279.15,482.02-280.7,481.3-282.47z M437.7-283.45c5.07,1.2,6.53,1.25,10.24,0.48c-1.25-1.34-2.39-2.57-3.6-3.88
	c-1.47,0.65-2.77,1.19-4.03,1.8C439.61-284.72,438.99-284.26,437.7-283.45z M411.63-286.67c-2.49,2.58-2.49,2.58-2.73,4.36
	c2.39-0.11,4.75-0.19,7.11-0.36c0.47-0.04,0.91-0.47,1.94-1.03C415.42-284.89,413.47-285.81,411.63-286.67z"/>
<path d="M-617.34,476.51c1.09,2.58,3.14,3.76,5.34,4.78c4.39,2.02,9.01,3.26,13.74,4.12c10.27,1.88,20.61,2.63,31.03,1.62
	c1.58-0.15,3.15-0.52,4.72-0.8c3.62-0.65,6.6-2.28,8.52-5.8c8.07,1.45,15.91,3.49,23.26,7.11c1.28,0.63,2.53,1.39,3.66,2.26
	c4.69,3.63,4.47,7.71-0.67,10.53c-2.08,1.14-4.36,2.02-6.65,2.66c-5.86,1.63-11.87,2.58-17.94,3.02c-21.95,1.6-43.78,0.37-65.5-2.97
	c-7.74-1.19-15.42-2.76-22.8-5.49c-2.39-0.88-4.79-1.83-7-3.08c-1.63-0.92-3.16-2.22-4.37-3.65c-1.92-2.26-1.68-4.81,0.53-6.83
	c1.16-1.06,2.55-1.97,4-2.57c2.2-0.91,4.51-1.63,6.83-2.19C-633.15,477.43-625.51,476.81-617.34,476.51z M-606.46,499.58
	c0.23,0,0.46,0,0.69,0c-0.27,0.04-0.54,0.08-0.81,0.11c-0.47-0.37-0.9-0.95-1.42-1.06c-2.02-0.44-4.06-0.78-6.11-1.05
	c-10.8-1.45-21.22-4.09-30.79-9.5c-0.06-0.03-0.23,0.14-0.5,0.3c0.18,0.35,0.27,0.86,0.57,1.04c1.35,0.83,2.72,1.65,4.16,2.31
	C-629.82,496.68-618.32,498.88-606.46,499.58z"/>
<g>
	<path d="M1023.75-186c-1.01-2.12-2.02-4.24-3.03-6.37c-0.13,0.06-0.28,0.1-0.39,0.18c-4.36,3.41-6.2,3.04-8.91-1.79
		c-0.22-0.4-0.52-0.75-0.98-1.41c-0.72,0.99-1.26,1.89-1.95,2.65c-2.23,2.44-5.24,2.47-7.55,0.11c-0.44-0.45-0.86-0.96-1.18-1.51
		c-2.29-4.01-2.54-8.24-0.81-12.45c1.76-4.29,5.51-4.91,8.72-1.56c0.86,0.9,1.52,2.06,2.02,3.21c0.57,1.3,0.85,2.73,1.32,4.33
		c0.98-0.98,1.77-1.97,2.75-2.71c1.99-1.5,4.51-1.05,5.81,1.08c0.82,1.34,1.38,2.85,2.16,4.52c0.62-0.5,1.15-1.03,1.77-1.41
		c2.02-1.25,3.54-1.13,5.11,0.62c0.83,0.92,1.46,2.09,1.9,3.26c0.38,1.02,0.36,2.18,0.55,3.48c0.94-0.49,1.72-1,2.58-1.31
		c1.74-0.64,3.12-0.16,4.16,1.38c1.02,1.5,1.49,3.17,1.39,4.99c-0.05,0.91-0.16,1.82-0.24,2.76c4.11-0.42,5.73,0.5,6.24,3.38
		c0.64,3.6-1.07,6.19-4.62,7.02c-0.3,0.07-0.59,0.17-0.89,0.26c0.58,2.24,1.29,4.45,1.7,6.72c0.39,2.19,0.46,4.43,0.66,6.5
		c0.55,0.5,0.85,0.89,1.25,1.12c7.49,4.44,14.04,10.03,20.1,16.23c4.14,4.23,8.21,8.52,12.24,12.86c5.69,6.13,10.1,13.2,14.66,20.15
		c2.71,4.14,4.82,8.69,9.14,11.54c0.24,0.16,0.47,0.5,0.51,0.79c0.06,0.44,0.08,1-0.14,1.34c-0.22,0.34-0.78,0.7-1.16,0.66
		c-2.18-0.21-3.96-1.31-5.28-2.99c-1.67-2.14-3.22-4.38-4.73-6.63c-3.38-5.04-6.54-10.25-10.12-15.14c-2.73-3.73-5.83-7.22-9-10.58
		c-4.94-5.23-9.98-10.38-15.2-15.32c-2.89-2.73-6.22-5-9.39-7.43c-0.58-0.44-1.32-0.67-2.47-1.24c-0.05,2.22-0.13,3.91-0.13,5.61
		c0.01,7.08-0.85,14.03-2.82,20.84c-1.12,3.87-2.7,7.55-5.02,10.83c-1.38,1.94-2.99,3.75-4.69,5.42c-1.62,1.59-3.68,2.51-5.97,2.84
		c-5.86,0.85-10.55-2.64-11.08-8.53c-0.21-2.36,0.08-4.79,0.35-7.16c0.54-4.76,1.49-9.47,1.42-14.3c-0.06-4.05-0.69-7.98-2.05-11.76
		c-1.73-4.82-3.99-9.4-6.51-13.74c-6.18-1.74-15.94-1.83-24.01-0.22c-6.86,10.59-10.59,22-8.38,34.88c0.49,2.83,0.92,5.69,1.13,8.56
		c0.13,1.88,0.08,3.86-0.36,5.69c-1.24,5.2-6.26,8.02-11.46,6.7c-2.57-0.65-4.67-2.01-6.5-3.87c-3.32-3.36-5.59-7.37-7.27-11.74
		c-2.2-5.72-3.34-11.68-3.68-17.78c-0.19-3.5-0.04-7.03-0.04-10.97c-1.26,0.35-2.18,0.42-2.91,0.83c-4.77,2.66-9.12,5.93-13.06,9.7
		c-6.01,5.76-11.71,11.81-16.76,18.45c-4.94,6.49-9.93,12.94-14.95,19.37c-1.47,1.88-3.08,3.68-4.75,5.39
		c-0.63,0.65-1.59,1.04-2.46,1.37c-0.32,0.12-0.97-0.18-1.22-0.48c-0.25-0.3-0.28-0.86-0.25-1.3c0.02-0.28,0.3-0.55,0.5-0.8
		c6.7-8.56,13.41-17.11,20.09-25.69c6.41-8.23,13.42-15.9,21.6-22.4c3.49-2.77,7.35-5.08,11.06-7.58c0.92-0.62,1.89-1.16,2.89-1.77
		c0.88-4.88,0.16-10,2.96-14.33c-0.43-0.28-0.66-0.57-0.89-0.57c-1.75,0.02-3.08-0.69-4.02-2.16c-1.01-1.57-1.14-3.29-0.86-5.08
		c0.21-1.33,0.91-2.36,2.01-3.14c1.06-0.75,2.1-0.46,3.17,0.01c0.23,0.1,0.57-0.05,0.98-0.09c-0.07-1.09-0.26-2.19-0.18-3.27
		c0.08-1.1,0.25-2.24,0.66-3.25c1.17-2.85,2.79-3.44,5.71-2.21c0.55,0.23,1.08,0.52,1.75,0.86c0.16-1.18,0.15-2.18,0.46-3.06
		c0.41-1.18,0.88-2.43,1.66-3.38c1.74-2.13,3.29-2.2,5.81-0.57c0.39,0.25,0.76,0.53,1.38,0.97c0.56-1.2,1.03-2.3,1.58-3.36
		c1.72-3.35,4.51-3.85,7.34-1.3c0.56,0.51,1.02,1.13,1.77,1.97c0.5-1.73,0.83-3.08,1.29-4.38c0.72-2.03,1.98-3.63,3.92-4.66
		c2.34-1.25,4.23-0.86,5.9,1.26c3.23,4.08,2.54,12.49-1.3,15.97c-2.26,2.05-5.14,1.96-7.23-0.31c-0.73-0.8-1.3-1.74-2.13-2.89
		c-0.62,1.19-1.01,2.16-1.58,3.01c-1.98,2.97-4.25,3.32-7.27,1.17c-0.37-0.26-0.68-0.59-1.1-0.95c-1.12,1.97-2.2,3.87-3.28,5.77
		c-1.1,0.04-2.19,0.06-3.29,0.13c-1.06,0.07-1.62-1.69-2.94-0.76c-0.21,1.24-0.33,2.5-0.65,3.72c-0.28,1.08-0.82,2.07-2.02,2.45
		c-1.39,1.27-2.97,0.07-4.63,0.17c0.09,1.57,0.17,2.95,0.26,4.68c1.75-1.16,3.09-2.24,4.13-3.65c0.23-0.31,0.1-0.89,0.13-1.35
		c3.69-0.67,6.42-2.9,8.88-5.54c1.22-0.27,2.46-0.45,3.64-0.84c2.88-0.95,5.76-1.83,8.84-1.85c5.59-0.04,9.27,3.35,9.7,8.99
		c0.2,2.59-0.22,5.08-1.02,7.53c-0.29,0.89-0.49,1.8-0.81,2.96c3.55,0.62,6.83-0.22,10.11-0.15c3.14,0.07,6.28,0.89,9.68,0.31
		c-0.43-1.57-0.77-2.94-1.18-4.29c-0.75-2.49-0.94-5.02-0.6-7.57c0.67-4.95,4.12-7.92,9.12-7.96c3.06-0.02,6.02,0.55,8.87,1.64
		c1.34,0.51,2.67,1.03,4.02,1.53c2.17,1.49,4.29,3.04,6.5,4.44c0.75,0.48,1.72,0.6,2.59,0.89c0.05,0.44-0.07,1.04,0.18,1.29
		c0.99,1.01,2.08,1.93,3.17,2.83c0.15,0.12,0.54-0.05,0.83-0.09c0-1.38,0-2.75,0-3.87c-1.57,0-2.95,0-4.32,0
		c-2.77-1.46-2.2-4.58-3.13-6.58C1027.59-186.79,1025.67-186.39,1023.75-186z M948.79-152.1c-0.16,7.41,0.44,14.71,2.34,21.89
		c1.24,4.69,3.27,9.01,6.21,12.88c1.46,1.93,3.14,3.64,5.5,4.49c3.73,1.36,7.3-0.54,8.01-4.42c0.25-1.39,0.19-2.87,0.04-4.29
		c-0.31-2.86-0.79-5.7-1.17-8.55c-1.27-9.4-0.49-18.51,3.81-27.13c1.43-2.86,2.94-5.68,4.25-8.6c1.3-2.91,2.57-5.86,3.51-8.9
		c0.55-1.78,0.69-3.79,0.55-5.67c-0.26-3.41-2.32-5.09-5.75-5.04c-3.75,0.05-7.25,1.06-10.56,2.8c-4.57,2.41-8.53,5.63-12.36,9.04
		c-2.02,1.8-3.13,4-3.32,6.67C949.49-161.98,949.14-157.04,948.79-152.1z M1038.72-152.11c-0.37-4.94-0.75-9.88-1.09-14.82
		c-0.19-2.68-1.2-4.92-3.2-6.75c-3.91-3.57-8.03-6.85-12.73-9.34c-3.17-1.68-6.57-2.5-10.12-2.7c-3.45-0.2-5.39,1.42-5.97,4.85
		c-0.39,2.27-0.08,4.5,0.71,6.61c1.12,2.99,2.36,5.94,3.68,8.84c1.52,3.35,3.26,6.59,4.77,9.95c2.46,5.47,3.8,11.24,3.5,17.24
		c-0.23,4.46-0.93,8.89-1.36,13.35c-0.21,2.22-0.53,4.48-0.38,6.69c0.3,4.39,4.16,6.61,8.31,5.02c2.18-0.84,3.74-2.43,5.12-4.21
		c3.2-4.1,5.29-8.73,6.54-13.76C1038.2-138.03,1038.85-145.01,1038.72-152.11z M1004.48-206.95c-2.86,0.93-3.15,3.24-3.16,5.45
		c-0.02,2.54,0.36,5.11,2.62,6.84c0.74,0.57,1.62,0.32,2.06-0.42c0.56-0.93,1.13-1.97,1.27-3.01
		C1007.73-201.47,1007.47-204.7,1004.48-206.95z M986.11-201.98c-0.28-0.79-0.66-2.32-1.37-3.68c-0.65-1.24-2.41-1.14-3.1,0.12
		c-0.6,1.09-1.14,2.27-1.41,3.48c-0.53,2.36-0.41,4.71,0.88,6.87c0.75,1.25,2.19,1.34,3.12,0.2
		C985.71-196.81,985.96-198.99,986.11-201.98z M973.18-197.14c-0.19-0.46-0.57-1.65-1.15-2.73c-0.43-0.81-1.88-0.71-2.47,0.03
		c-0.85,1.06-1.07,2.28-0.95,3.58c0.2,2.08,1.43,3.65,2.61,3.38C972.34-193.12,973.09-194.47,973.18-197.14z M1018.93-196.91
		c-0.23-1-0.23-1.71-0.56-2.2c-0.4-0.6-1-1.22-1.64-1.45c-0.85-0.3-1.53,0.39-1.84,1.12c-0.76,1.82-0.81,3.67,0.12,5.48
		c0.56,1.08,2.16,1.27,2.7,0.23C1018.27-194.83,1018.6-196.04,1018.93-196.91z M961.06-196.23c-1.91,3.38-1.75,4.8,0.79,6.62
		c1.35-1.17,1.56-2.68,1.17-4.3C962.76-194.98,962.49-196.12,961.06-196.23z M1026.45-196.57c-2.97,2.45-3.04,4.36-0.15,6.73
		C1028.07-192.09,1028.14-194.25,1026.45-196.57z M1035.21-189.93c-1.92,1.71-1.82,3.41-0.98,5.81
		C1036.03-185.95,1035.93-187.65,1035.21-189.93z M952.83-183.96c1.43-1.79,1.17-3.11,0.6-4.43c-0.26-0.6-0.65-1.09-1.53-0.42
		C951.35-187.34,951.65-185.9,952.83-183.96z M1041.43-180.28c-0.29,0.75-0.52,1.28-0.7,1.83c-0.03,0.09,0.17,0.25,0.27,0.38
		c0.35-0.43,0.74-0.84,1.03-1.31C1042.09-179.46,1041.77-179.78,1041.43-180.28z M946.19-179.98c-0.41,0.38-0.71,0.53-0.71,0.68
		c0,0.42,0.12,0.84,0.2,1.26c0.25-0.06,0.72-0.12,0.72-0.18C946.38-178.73,946.29-179.25,946.19-179.98z"/>
	<path d="M1085.29-93.5c-1.65,0.68-3.58,0.4-5.46,0.4c-14.72,0.02-29.44-0.05-44.16,0.03c-42.08,0.25-84.15,0.56-126.23,0.84
		c-1.91,0.01-3.84-0.07-5.74-0.25c-1.17-0.11-2.22-0.72-2.32-2.04c-0.3-3.79-0.55-7.58,0.05-11.33c1.97-0.91,3.75-0.69,5.47-0.72
		c20.16-0.3,40.31-0.58,60.47-0.85c15.04-0.2,30.08-0.22,45.11-0.57c17.43-0.41,34.86-0.37,52.28-0.7
		c5.28-0.1,10.56-0.22,15.83-0.29c1.58-0.02,3.2-0.21,4.84,0.77c0.11,0.84,0.31,1.77,0.33,2.7c0.09,3.66,0.13,7.33,0.15,11
		C1085.92-94.25,1085.61-93.99,1085.29-93.5z M1082.51-105.46c-1.58,0-2.67-0.01-3.76,0c-19.83,0.21-39.65,0.43-59.48,0.65
		c-36.94,0.4-73.87,0.79-110.81,1.2c-1.39,0.02-2.89-0.4-4.23,0.73c-0.2,2.45-0.31,4.94,0.4,7.65c1.92,0.04,3.65,0.12,5.38,0.11
		c45.73-0.29,91.46-0.58,137.2-0.9c10.55-0.08,21.1-0.28,31.66-0.47c1.21-0.02,2.41-0.3,3.9-0.5c0-1.72,0.03-3.14-0.01-4.56
		C1082.72-102.66,1082.62-103.76,1082.51-105.46z"/>
</g>
<g>
	<path d="M246.99,651.2c1.1,0.64,1.83,1.31,2.67,1.48c1.71,0.35,3.48,0.43,5.23,0.62c3.38,0.36,6.06,1.97,8.03,4.7
		c2.55,3.54,1.57,6.93-2.55,8.34c-4.58,1.56-9.38,2.07-14.2,1.73c-2.98-0.21-5.93-0.94-9.17-1.48c0,1.19-0.05,2.42,0.01,3.64
		c0.11,1.97-0.24,3.83-1.15,5.56c-1.86,3.53-5.22,4.32-8.39,1.91c-1.14-0.86-2.09-1.97-3.11-2.98c-0.77-0.76-1.52-1.55-2.4-2.46
		c-3.6,2.46-7.07,4.7-10.4,7.14c-5.22,3.83-11.03,6.49-17.03,8.69c-2.34,0.86-4.99,1.05-7.52,1.16c-7.35,0.32-14.7,0.49-22.06,0.64
		c-5.35,0.11-10.43,1.1-15.23,3.64c-6.52,3.45-13.62,5.5-20.56,7.91c-0.28,0.1-0.62,0.01-1.22,0.01c-3.06-2.74-6.09-5.71-7.9-9.77
		c-3.49-7.78-5.92-15.87-7.26-24.28c-0.3-1.88-0.25-3.82-0.3-5.74c-0.05-2.02,0.99-3.32,2.86-3.95c1.66-0.56,3.33-1.13,5.03-1.56
		c7.9-2,15.82-3.9,23.71-5.95c1.84-0.48,3.64-1.24,5.33-2.13c6.22-3.27,12.39-6.65,18.58-10c1.69-0.91,3.3-1.96,5.02-2.82
		c5.6-2.82,11.37-5.15,17.89-5.08c0.95-1.87,1.83-3.55,2.66-5.26c1.82-3.74,3.67-7.46,5.39-11.24c2.68-5.89,6.97-10.28,12.39-13.64
		c2.85-1.77,5.78-3.42,8.69-5.1c7.76-4.47,15.62-8.76,23.25-13.44c4.15-2.54,8.05-2.69,12.23-0.55c2.42,1.24,4.84,2.46,7.24,3.75
		c2.43,1.3,4.53,3.05,6.1,5.31c2.09,3.01,4.19,6.04,6,9.22c1.36,2.4,1.97,4.91,0.21,7.67c-0.89,1.39-0.9,3.36-1.24,5.08
		c-1.8,9.02-6.39,16.27-13.72,21.81c-1.4,1.05-2.78,2.12-4.01,3.06c-0.06,0.59-0.21,0.95-0.1,1.18c1.73,3.52,1.76,4.08-0.82,6.7
		c-1.56,1.59-3.37,2.93-5.11,4.34C249.19,649.75,248.24,650.33,246.99,651.2z M194.82,664.75c-5.42,1.05-10.58,2.1-15.76,3.01
		c-1.38,0.24-2.85,0.18-4.26,0.04c-1.18-0.12-1.92-1.4-1.49-2.53c0.51-1.34,1.1-2.66,1.85-3.88c5.08-8.23,12.5-13.03,21.92-14.88
		c1.39-0.27,2.79-0.55,4.25-0.83c0.74-1.52,1.5-2.92,2.11-4.38c0.58-1.39,1.7-2.64,1.59-4.34c-2.51-1.03-4.94-0.87-7.29-1.15
		c-8.71-1.02-16.77,0.62-24.26,5.4c-4.97,3.17-10.21,5.95-15.43,8.72c-4.23,2.24-8.46,4.57-13.15,5.72
		c-7.91,1.94-15.85,3.73-23.76,5.63c-1.18,0.28-2.32,0.77-3.61,1.21c0.65,3.11,1.18,5.93,1.82,8.72c1.42,6.24,3.29,12.35,5.87,18.22
		c0.95,2.16,1.89,4.37,3.88,5.95c6.8-2.24,13.44-4.52,19.81-7.48c4.28-1.98,8.73-3.02,13.44-3.09c7.99-0.12,15.98-0.32,23.97-0.44
		c2.91-0.04,5.78-0.23,8.38-1.65c4.62-2.53,9.21-5.12,13.78-7.74c0.61-0.35,1.51-0.72,1.06-1.83
		C204.07,671.53,199.95,667.53,194.82,664.75z M205.31,651.45c2.93-1.23,4.91-1.87,6.71-2.85c5.86-3.18,10.77-7.45,14.39-13.1
		c1.12-1.75,2.26-3.5,3.28-5.3c2.85-5.03,7.01-8.7,12.02-11.41c2.52-1.37,5.16-2.54,7.82-3.64c4.17-1.74,8.05-3.9,11.28-7.12
		c0.56-0.55,1.21-1.15,1.92-1.36c0.68-0.21,1.59-0.13,2.25,0.15c0.97,0.42,1.36,1.43,1.1,2.42c-0.24,0.89-0.68,1.81-1.28,2.51
		c-1.8,2.07-3.99,3.69-6.47,4.87c-2.89,1.37-5.78,2.74-8.72,3.99c-4.01,1.7-7.7,3.93-10.99,6.75c-1.44,1.23-2.64,2.77-3.83,4.26
		c-0.54,0.69-0.79,1.61-1.19,2.47c3.13,0.9,12.88,1.93,16.46,1.84c2.76-2.52,5.31-4.93,7.94-7.25c5.19-4.59,8.74-10.13,10.15-16.97
		c0.48-2.35,0.88-4.72,1.55-7.02c0.5-1.7,0.25-3.12-0.63-4.56c-2.94-4.84-6.22-9.32-11.59-11.77c-1.45-0.66-2.88-1.4-4.23-2.26
		c-2.31-1.47-4.33-1.19-6.66,0.2c-6.85,4.11-13.85,7.99-20.77,11.99c-4.01,2.32-8.03,4.65-11.98,7.08
		c-4.59,2.82-8.28,6.43-10.54,11.48c-1.63,3.64-3.63,7.12-5.43,10.69c-0.4,0.79-1.2,1.56-0.24,2.79c3.41,0.5,7.02,1.03,10.62,1.56
		c0.73-0.98,1.31-1.73,1.86-2.5c4.42-6.27,8.81-12.56,13.26-18.82c1.02-1.43,2.16-2.77,3.33-4.09c0.63-0.71,1.38-1.35,2.17-1.87
		c0.68-0.45,1.59-0.63,2.17,0.1c0.34,0.43,0.57,1.25,0.4,1.73c-0.44,1.18-1.04,2.33-1.74,3.39c-1.94,2.93-4,5.79-5.95,8.72
		c-3.8,5.73-7.71,11.39-11.28,17.26c-2.32,3.81-4.15,7.92-6.13,11.93C205.95,648.5,205.85,649.45,205.31,651.45z M221.75,648.48
		c1.08,0.35,1.51,0.58,1.96,0.61c5.28,0.4,10.52,0.08,15.73-0.82c3.83-0.67,7.32-2.19,10.44-4.51c0.43-0.32,0.69-0.88,1.32-1.71
		c-3.18-0.31-5.84-0.59-8.5-0.83c-3.49-0.32-6.99-0.62-10.48-0.91c-1.29-0.11-2.54-0.09-3.54,0.97
		C226.51,643.57,224.3,645.83,221.75,648.48z M212.19,654.64c3.64,1.83,6.3,4.74,8.81,7.81c1.72,2.1,3.34,4.28,5.02,6.4
		c0.99,1.25,2,2.48,3.05,3.68c0.55,0.63,1.23,1.02,2.08,0.49c1.68-5.93-0.69-12.32-6.9-18.61c-2.68-0.38-5.37-0.75-8.05-1.16
		C214.71,653.03,213.34,653.1,212.19,654.64z M232.81,654.36c2.96,5.89,6.17,8.13,11.85,8.5c4.31,0.28,8.57-0.26,12.81-0.92
		c0.57-0.09,1.32-0.01,1.61-1.22c-0.31-0.39-0.68-1.07-1.24-1.53c-1.8-1.48-3.94-1.96-6.24-1.92c-3.31,0.05-6.24-0.99-8.79-3.11
		c-0.48-0.4-1.02-0.73-1.7-1.21C238.43,653.41,235.67,653.88,232.81,654.36z M193.57,653.7c1.92,4.66,2.11,4.92,5.5,7.33
		c2.46,1.74,4.93,3.47,7.41,5.17c0.49,0.33,1.09,0.52,1.91,0.9c1.35-4.34-0.43-7.51-2.5-10.53c-4.56-0.81-4.56-0.81-6.92-4.57
		C197.19,652.17,195.3,652.15,193.57,653.7z M181.35,661.89c2.31-0.4,3.72-0.62,5.11-0.9c1.37-0.28,2.89-0.18,4.1-1.67
		c-0.5-1.16-1.05-2.42-1.71-3.96C185.89,656.84,183.34,658.28,181.35,661.89z M218.44,667.78c-1.24-1.69-1.99-3.42-4.15-4.28
		c-0.23,2.7-0.44,5.11-0.66,7.66C215.75,670.61,217.19,669.7,218.44,667.78z"/>
	<path d="M170.09,596.62c0.33-1.64,0.5-2.89,0.83-4.09c1.83-6.72,7.29-11.22,15.87-8.98c3.61,0.94,5.53,3.61,6.26,7.16
		c0.69,3.33,0.69,6.7-0.1,9.99c-1.68,7.02-4.8,13.52-7.61,20.11c-0.25,0.58-1.17,1.09-1.86,1.23c-1.07,0.21-2.22,0.12-3.33,0.09
		c-5.93-0.16-11.74-1.17-17.36-3.04c-3.25-1.08-5.92-3.12-8.11-5.74c-4.99-5.95-3.4-12.86,3.71-16.06c2.98-1.34,6.08-1.91,9.33-1.11
		C168.32,596.32,168.94,596.4,170.09,596.62z M182.04,616.42c2.54-5.57,4.69-10.88,5.96-16.49c0.64-2.81,0.68-5.68-0.26-8.5
		c-0.56-1.69-1.69-2.64-3.36-3.05c-4.61-1.14-8.66,1.97-8.82,6.83c-0.05,1.59,0.25,3.19,0.16,4.77c-0.14,2.43-1.89,3.76-4.26,3.28
		c-1.4-0.28-2.74-0.82-4.1-1.27c-2.59-0.86-5.06-0.42-7.41,0.78c-3.18,1.62-3.69,4.16-1.48,7.05c2.15,2.83,5.15,4.24,8.53,4.85
		c3.76,0.67,7.55,1.21,11.34,1.73C179.41,616.54,180.53,616.42,182.04,616.42z"/>
</g>
<g>
	<path d="M474.17,523.2c0.23-0.96,0.18-1.7,0.53-2.05c2.8-2.81,6.85-1.84,7.95,1.84c1.85,6.21-3.13,12.58-9.62,12.31
		c-6.32-0.27-10.78-4.54-11.3-10.84c-0.38-4.62,0.8-8.87,3.04-12.87c3.2-5.7,13.93-10.91,22.37-5.7c7.19,4.45,11.41,10.57,11.2,19.3
		c-0.18,7.35-7.15,20.66-17.14,25.09c-2.12,0.94-4.31,1.1-6.56,1.13c-14.07,0.21-28.14,0.44-42.22,0.65
		c-25.11,0.38-50.21,0.77-75.32,1.14c-2.24,0.03-4.48,0.05-6.72,0.03c-0.79-0.01-1.59-0.12-2.37-0.27c-1.03-0.2-1.82-1.12-1.54-2.04
		c0.2-0.67,0.76-1.57,1.33-1.72c1.53-0.4,3.14-0.56,4.73-0.62c4.32-0.15,8.63-0.21,12.95-0.29c33.1-0.6,66.2-1.19,99.3-1.78
		c3.04-0.05,6.08-0.23,9.11-0.13c5.17,0.16,9.33-1.99,12.83-5.5c3.81-3.83,6.18-8.54,7.37-13.79c0.98-4.33-0.25-8.27-2.81-11.76
		c-1.91-2.61-4.41-4.63-7.25-6.19c-2.65-1.45-5.4-1.61-8.34-0.76c-6.26,1.8-9.61,5.96-10.54,12.28c-0.73,4.94,1.69,8.86,6.36,10.48
		c2.06,0.72,3.76,0.23,5.31-1.14c1.79-1.58,2.81-3.49,2.23-5.95c-0.21-0.87-0.9-1.31-1.78-1.25
		C476.34,522.86,475.45,523.03,474.17,523.2z"/>
	<path d="M412.03,593.43c-18.55,0-37.09,0-55.64-0.01c-1.6,0-3.2-0.01-4.79-0.14c-1.51-0.12-2.23-0.78-2.35-1.91
		c-0.12-1.12,0.6-1.93,2.11-2.09c1.75-0.19,3.51-0.28,5.26-0.29c13.27-0.11,26.54-0.21,39.81-0.27c24.14-0.11,48.28-0.18,72.43-0.27
		c7.23-0.03,13.35-2.74,18.57-7.66c2.27-2.14,3.99-4.53,4.29-7.79c0.1-1.08,0.55-2.16,0.99-3.17c0.14-0.33,0.85-0.67,1.19-0.58
		c0.53,0.14,1.24,0.54,1.39,0.99c0.66,2.06,0.21,4.12-0.4,6.12c-0.82,2.65-2.29,4.95-4.35,6.79c-2.14,1.92-4.36,3.75-6.63,5.52
		c-4.2,3.27-9.05,4.6-14.32,4.6c-19.19,0-38.37,0-57.56,0C412.03,593.33,412.03,593.38,412.03,593.43z"/>
	<path d="M412.32,568.39c18.72,0,37.44-0.18,56.16,0.08c9.45,0.13,16.27-3.82,21.18-11.55c1.37-2.15,2.42-4.5,3.66-6.74
		c0.47-0.84,1.04-1.65,2.2-1.5c0.85,0.11,1.38,1.35,1.05,2.83c-0.28,1.23-0.64,2.5-1.23,3.61c-2.5,4.69-5.56,8.96-9.59,12.49
		c-3.88,3.4-8.33,5.3-13.51,5.42c-1.12,0.03-2.24,0.05-3.36,0.04c-37.6-0.32-75.2-0.63-112.79-0.96c-1.6-0.01-3.2-0.12-4.79-0.28
		c-0.61-0.06-1.32-0.24-1.77-0.61c-0.42-0.35-0.73-1.01-0.79-1.57c-0.03-0.34,0.43-0.92,0.8-1.07c0.72-0.29,1.53-0.45,2.32-0.49
		c2.4-0.13,4.79-0.23,7.19-0.23c17.76-0.02,35.52-0.01,53.28-0.01C412.32,568.02,412.32,568.2,412.32,568.39z"/>
	<path d="M337.78,580.24c0.99-0.45,1.52-0.84,2.09-0.92c0.94-0.14,1.91-0.1,2.87-0.11c21.43-0.22,42.86-0.45,64.29-0.64
		c1.75-0.02,3.51,0.13,5.25,0.31c0.84,0.09,1.46,0.62,1.44,1.58c-0.02,0.96-0.68,1.47-1.49,1.6c-1.41,0.23-2.85,0.43-4.28,0.43
		c-19.99,0.02-39.99,0.03-59.98-0.04c-2.7-0.01-5.42-0.43-8.1-0.8C339.25,581.56,338.71,580.89,337.78,580.24z"/>
	<path d="M471.39,560.1c-0.91,0.73-1.42,1.46-2.05,1.59c-1.71,0.35-3.47,0.57-5.22,0.61c-7.99,0.15-15.98,0.2-23.97,0.34
		c-10.07,0.17-20.14,0.43-30.2,0.55c-3.19,0.04-6.38-0.19-9.57-0.35c-0.6-0.03-1.22-0.3-1.78-0.58c-0.21-0.1-0.37-0.52-0.37-0.8
		c0-0.27,0.17-0.7,0.38-0.78c0.73-0.29,1.5-0.59,2.27-0.65c2.39-0.17,4.79-0.22,7.18-0.34c18.21-0.85,36.42-1.14,54.65-1.04
		c1.92,0.01,3.84,0.02,5.74,0.23C469.31,558.98,470.13,559.56,471.39,560.1z"/>
</g>
<g>
	<path d="M117.2,197.9c-1.45-0.59-2.77-1.24-4.15-1.65c-14.32-4.28-28.65-8.51-42.97-12.79c-1.65-0.49-3.28-1.08-4.84-1.81
		c-0.44-0.21-0.83-1.08-0.78-1.61c0.04-0.54,0.53-1.28,1.02-1.51c1.17-0.55,2.43-0.91,3.69-1.25c15.68-4.23,31.37-8.44,47.06-12.65
		c2.04-0.55,4.09-1.23,6.66-0.52c-0.15,1.25-0.19,2.28-0.4,3.27c-1.37,6.44-1.13,12.93-0.56,19.42c0.15,1.71,0.64,3.41,1.16,5.05
		c0.76,2.43,1.57,2.58,5.22,1.02c-0.18-1.6-0.31-3.3-0.56-4.98c-4.21-28.11,14.3-54.07,42.29-59.27
		c27.06-5.03,52.28,10.37,60.06,36.69c7.06,23.9-3.94,49.58-26.24,61.19c-1.92,1-3.89,1.9-6.17,3c-0.18,1.53-0.38,3.21-0.56,4.89
		c-0.28,2.59-0.74,4.95-2.66,7.1c-1.33,1.49-1.75,3.87-2.31,5.93c-3.85,13.99-7.61,28-11.45,41.99c-0.55,2-0.36,5.18-2.72,5.4
		c-3.23,0.3-2.85-3.28-3.48-5.33c-4.23-13.88-8.27-27.81-12.4-41.72c-0.61-2.04-1.32-4.05-2.01-6.16c-1.58-0.17-2.85-0.42-4.12-0.43
		c-5.85-0.05-11.7,0.01-17.56-0.07c-2.88-0.04-5.56,0.5-8.16,1.75c-5.66,2.72-11.37,5.34-17.09,7.94c-1.33,0.6-2.78,1.59-4.27,0.49
		c-1.81-1.34-0.98-3.07-0.47-4.73c0.44-1.43,0.83-2.87,1.2-4.15c-0.81-1.77-2.27-1.37-3.48-1.4c-4.55-0.09-9.1-0.09-13.65-0.15
		c-1.3-0.02-2.61,0-3.89-0.18c-3.23-0.44-4.65-1.64-5.26-4.84c-1.32-6.88,0.4-13.02,5.52-17.81c5.38-5.03,11.76-7.14,19.5-4.83
		c1.23-2.76,2.25-5.58,3.71-8.15C113.45,202.63,115.31,200.49,117.2,197.9z M196.21,224.04c23.8-7.37,37.09-35.35,28.41-59.86
		c-9.16-25.84-36.05-38.38-62.39-28.81c-23.38,8.5-36.65,37.11-27.65,57.69c2.44,0.82,5.09,1.29,7.29,2.55
		c2.39,1.37,4.57,3.28,6.46,5.3c1.72,1.83,2.93,4.14,4.73,6.76c5.81-5.95,12.36-8.51,20.23-6.14c8.15,2.45,11.16,8.91,12.52,16.74
		C190.61,218.21,193.6,221.03,196.21,224.04z M181.98,221.98c-0.22-2.34-0.4-3.83-0.48-5.32c-0.14-2.7-1.14-5.06-2.76-7.17
		c-4.6-5.98-13.26-7.1-19.83-2.49c-1.4,0.98-2.57,2.31-3.85,3.47c-2.47,2.24-4.14,2.06-5.7-0.66c-0.97-1.69-1.77-3.48-2.8-5.12
		c-1.77-2.82-4.17-4.95-7.28-6.24c-8.37-3.46-19.22,0.09-23.97,7.88c-2.81,4.6-3.25,7.07-2.52,14.19c-1.81,1.42-2.76-0.08-3.64-1.21
		c-3.03-3.91-6.95-3.97-11.15-2.69c-7.75,2.36-12.21,8.72-11.79,16.65c0.17,3.15,1.19,4.17,4.41,4.36c0.65,0.04,1.3-0.01,1.95-0.01
		c31.42,0.02,62.85,0.04,94.27,0.04c1.9,0,3.8-0.22,5.73-0.34c1.27-3.55,1.2-6.74,0.31-9.9c-0.9-3.2-2.93-5.27-6.46-5.42
		C185.15,221.93,183.89,221.98,181.98,221.98z M119.35,193.56c-0.51-4.64-1.13-8.66-1.36-12.71c-0.22-4.06-0.05-8.15-0.05-12.23
		c-4.66,0.34-38.12,9.37-43.42,11.7C78.46,182.64,105.73,190.76,119.35,193.56z M165.05,241.61c1.88,9.61,10.36,37.97,12.49,42.03
		c1.41-0.29,1.28-1.56,1.55-2.53c3.34-12.11,6.68-24.22,9.96-36.35c0.25-0.94,0.03-2.02,0.03-3.34
		C180.99,241.08,173.26,240.49,165.05,241.61z M114.24,245.69c2.4-0.99,4.79-1.72,7.39-4.21c-2.32-0.18-3.72-0.47-5.09-0.35
		C114.66,241.3,114.27,242.2,114.24,245.69z"/>
	<path d="M198.26,122.08c-11.15,0-21.5,0.01-31.86-0.04c-0.57,0-1.13-0.52-2.04-0.97c0.14-1.2,0.07-2.5,0.45-3.66
		c5.32-16.49,10.7-32.97,16.1-49.44c0.38-1.17,0.65-2.75,2.28-2.8c2.08-0.07,2.17,1.77,2.52,3.18c2.98,12.21,5.93,24.42,8.88,36.64
		c1.07,4.42,2.11,8.85,3.13,13.29C197.95,119.31,198.02,120.37,198.26,122.08z M192.83,118.14c-0.22-4.58-5.94-30.29-9.14-41.07
		c-0.08-0.26-0.65-0.38-1-0.56c-2.42,4.55-12.93,36.61-13.62,41.64C177.01,118.14,184.91,118.14,192.83,118.14z"/>
	<path d="M238.14,165.59c0.72,0.07,1.75,0.03,2.71,0.28c17.12,4.56,34.24,9.16,51.35,13.77c0.82,0.22,1.67,0.51,2.37,0.97
		c0.47,0.31,0.96,0.97,0.97,1.48c0.01,0.51-0.43,1.27-0.9,1.52c-1.13,0.6-2.36,1.04-3.59,1.4c-16.37,4.86-32.74,9.69-49.12,14.52
		c-1.61,0.47-3.23,1.36-5.26,0c-0.04-0.6-0.3-1.47-0.12-2.22c2.3-9.15,2.78-18.35,1-27.65c-0.2-1.04-0.14-2.13-0.14-3.2
		C237.41,166.3,237.68,166.14,238.14,165.59z M240.88,194.93c0.86,0.06,1.32,0.22,1.71,0.11c13.51-3.91,27.01-7.83,40.5-11.81
		c0.44-0.13,0.71-0.82,1.42-1.7c-5.18-1.45-9.91-2.8-14.66-4.11c-4.59-1.26-9.16-2.59-13.8-3.68c-4.74-1.11-9.26-3.35-14.4-3.26
		C241.39,178.71,241.14,186.63,240.88,194.93z"/>
	<path d="M211.86,129.67c0.88-2.56,2.88-3.47,4.85-4.34c3.36-1.47,6.72-2.95,10.15-4.24c7.26-2.75,14.56-5.4,21.86-8.05
		c1.2-0.44,2.45-0.79,3.71-1.04c0.87-0.17,2.18,1.09,2.15,2.01c-0.03,0.85-0.1,1.74-0.37,2.54c-0.4,1.22-0.9,2.43-1.5,3.57
		c-5.35,10.1-10.73,20.19-16.09,30.29c-0.92,1.73-1.81,3.46-4.42,4.11c-0.54-0.52-1.51-1.1-1.95-1.95
		c-4.12-7.98-9.59-14.83-16.53-20.53C212.92,131.38,212.41,130.39,211.86,129.67z M232.76,148.86c1.57-2.75,2.74-4.77,3.87-6.82
		c1.04-1.88,2.04-3.79,3.04-5.7c1.09-2.1,2.14-4.22,3.24-6.32c0.99-1.91,2.03-3.8,3.04-5.7c1.76-3.32,1.76-3.32,2-6.76
		c-10.2,4.18-20.74,6.95-30.84,12.18c2.99,3.22,5.73,5.91,8.16,8.87C227.71,141.58,229.82,144.81,232.76,148.86z"/>
	<path d="M208.45,233.15c0.74-0.78,1.22-1.53,1.9-1.96c7.4-4.78,13.38-11.04,18.32-18.23c2.91-4.24,5.03-3.04,6.71,0.87
		c4.6,10.75,9.34,21.44,13.92,32.2c0.74,1.75,1.05,3.72,1.31,5.63c0.18,1.28-1.39,2.34-2.7,2.01c-0.62-0.16-1.25-0.36-1.83-0.63
		c-10.75-5.12-21.52-10.21-32.23-15.42C211.97,236.68,209.79,235.97,208.45,233.15z M231.65,214.91c-2.04,2.58-3.7,4.83-5.52,6.93
		c-1.69,1.96-3.55,3.78-5.34,5.66c-1.89,1.99-4.55,3.21-6.19,6c9.63,5.48,19.64,9.49,29.43,13.95c0.26,0.12,0.71-0.2,1.07-0.31
		C244.26,242.77,235.85,222.46,231.65,214.91z"/>
	<path d="M150.73,127.92c-5.03,4.28-9.57,7.61-13.43,11.6c-3.7,3.83-6.7,8.35-10.26,12.89c-0.83-0.65-1.81-1.13-2.34-1.91
		c-0.83-1.24-1.4-2.67-2.02-4.05c-4.15-9.26-8.31-18.51-12.39-27.79c-1.04-2.36-1.96-4.8-2.65-7.28c-0.64-2.27,1.16-3.87,3.34-3.2
		c0.41,0.12,0.82,0.28,1.2,0.47c10.9,5.21,21.82,10.39,32.69,15.67C146.77,125.23,148.49,126.53,150.73,127.92z M143.94,128.29
		c-2.97-1.58-5.37-3-7.89-4.18c-7.45-3.47-14.94-6.84-22.43-10.24c-0.18-0.08-0.46-0.11-0.63-0.03c-0.17,0.08-0.26,0.33-0.54,0.72
		c0.18,0.65,0.3,1.51,0.64,2.26c4.27,9.46,8.57,18.91,12.88,28.36c0.08,0.17,0.28,0.33,0.45,0.39c0.19,0.07,0.43,0.02,0.93,0.02
		c2.38-2.8,4.75-5.86,7.42-8.65C137.58,134.02,140.66,131.37,143.94,128.29z"/>
	<path d="M254.14,266.64c1.41-0.22,2.82-0.4,4.22-0.66c5.04-0.94,6.63-2.63,7.15-7.66c0.19-1.86,0.25-3.74,0.42-6.29
		c0.93,0.94,1.56,1.27,1.67,1.73c0.39,1.68,0.81,3.39,0.84,5.1c0.08,3.73,2.39,5.32,5.53,6.18c2.01,0.55,4.05,0.97,5.96,1.42
		c0.24,1.81-0.96,1.51-1.62,1.66c-1.68,0.36-3.42,0.48-5.09,0.88c-2.53,0.61-4.11,2.23-4.58,4.86c-0.33,1.82-0.69,3.64-1.19,6.27
		c-0.85-1.08-1.39-1.46-1.43-1.88c-0.14-1.5-0.1-3.01-0.14-4.52c-0.06-2.23-1.31-3.71-3.33-4.27c-2.67-0.75-5.42-1.19-8.13-1.76
		C254.32,267.34,254.23,266.99,254.14,266.64z M263.62,266.44c1.39,1.11,2.61,2.09,3.97,3.18c1.14-1.14,1.97-1.97,2.74-2.75
		c-1.1-1.73-2.29-2.73-3.66-3.74C265.54,264.36,264.7,265.27,263.62,266.44z"/>
	<path d="M281.35,244.02c-2.02-7.13-2.03-7.12-9.03-8.53c-0.4-0.08-0.75-0.37-1.53-0.76c2.09-0.59,3.89-1,5.62-1.62
		c1.75-0.62,2.71-1.92,3.05-3.81c0.32-1.78-0.23-3.78,0.77-5.4c1.62,0.23,1.46,1.29,1.42,1.99c-0.22,4.8,2.32,7.09,6.79,7.76
		c0.63,0.09,1.25,0.32,1.86,0.53c0.17,0.06,0.27,0.3,0.74,0.85c-1.51,0.31-2.81,0.57-4.11,0.83c-2.82,0.57-4.64,2.11-5.02,5.1
		C281.78,242,281.54,243.01,281.35,244.02z M283.19,234.9c-0.46-1.69-1.1-3.05-3.06-2.48c-0.5,0.15-1.28,1.09-1.17,1.3
		c0.49,1.01,1.24,1.9,2,2.97C281.94,235.91,282.58,235.39,283.19,234.9z"/>
</g>
<path class="st0" d="M-606.59,499.7c0.27-0.04,0.54-0.08,0.81-0.11c-0.23,0-0.46,0-0.7,0.01
	C-606.49,499.61-606.59,499.7-606.59,499.7z"/>
<g>
	<path d="M-362.05-309.25c-0.17-3.25-0.72-6.91,0.13-10.41c1.45-1.34,3.11-1.17,4.68-1.21c3.84-0.1,7.68-0.12,11.51-0.15
		c17.59-0.13,35.18-0.27,52.78-0.36c3.33-0.02,6.69-0.14,10.06,0.43c1.72,2.71,1.49,5.67,1.51,8.46c0.02,2.01,0.34,3.69,1.39,5.42
		c1.24,2.04,2.28,4.23,3.12,6.47c5.29,14.08,10.07,28.32,13.15,43.06c1.37,6.57,2.33,13.22,3.37,19.85c0.48,3.05,1.39,5.84,3.1,8.46
		c2,3.08,3.59,6.42,5.56,9.52c1.57,2.45,1.07,4.45-0.57,6.56c-4.47,5.77-11.8,8.26-18.83,6.32c-0.15-0.04-0.32-0.07-0.46-0.14
		c-4.67-2.55-9.28-1.65-13.85,0.29c-5.63,2.39-11.32,2.06-16.84-0.02c-3.86-1.45-7.44-1.26-11.19,0.07
		c-2.55,0.91-5.17,1.69-7.81,2.26c-3.69,0.8-7.4,0.53-10.75-1.27c-3.94-2.12-7.94-2.14-12.09-1.05c-0.62,0.16-1.25,0.3-1.85,0.51
		c-5.11,1.76-10.17,1.31-14.94-0.92c-4.39-2.06-8.82-2.56-13.54-1.82c-3.93,0.62-7.62,0.04-10.9-2.5c-1.12-0.87-2.5-1.41-3.76-2.1
		c-0.98-0.53-1.32-1.42-1.06-2.42c0.29-1.07,0.7-2.14,1.22-3.11c3.91-7.27,6.54-14.91,6.71-23.26c3.18-20.44,8.04-40.44,16.13-59.54
		C-365.07-304.18-363.65-306.32-362.05-309.25z M-283.45-307.41c-0.85-0.13-1.33-0.29-1.79-0.27c-6.86,0.38-13.73-0.84-20.59,0.09
		c-0.63,0.09-1.28,0.03-1.92,0.04c-16.32,0.07-32.64,0.14-48.95,0.22c-1.08,0.01-2.16,0.09-3.15,0.14c-0.43,0.8-0.76,1.35-1.02,1.93
		c-3.98,8.75-6.95,17.88-9.73,27.05c-3.44,11.33-5.71,22.96-7.67,34.62c-0.63,3.74-1.67,7.49-0.95,11.59
		c1.17,0.39,2.34,0.83,3.54,1.17c2.77,0.78,5.53,1.62,8.33,2.25c4.21,0.94,8.41,1.98,12.68,2.53c13.35,1.71,26.79,1.88,40.22,1.85
		c7.19-0.01,14.39-0.42,21.57-0.97c9.41-0.72,18.74-2.16,27.89-4.57c0.85-0.22,1.63-0.73,2.33-1.05c-0.35-1.92-0.65-3.47-0.9-5.03
		c-0.99-5.99-1.79-12.02-2.98-17.98c-3.24-16.19-8.48-31.8-14.01-47.32C-281.38-303.33-282.54-305.42-283.45-307.41z
		 M-284.48-312.17c0.31-1.95,0.34-3.95-0.72-6.16c-2.22-0.04-4.44-0.11-6.66-0.1c-15.18,0.01-30.36,0.06-45.54,0.06
		c-6.07,0-12.14-0.13-18.21-0.14c-1.04,0-2.08,0.35-3.25,0.56c0.16,2.53,0.31,4.74,0.47,7.18c1.52,0.08,2.77,0.21,4.01,0.19
		c7.03-0.06,14.06-0.17,21.09-0.25c14.86-0.17,29.72-0.32,44.58-0.5C-287.32-311.34-285.81-310.97-284.48-312.17z M-323.2-221.59
		c-0.42,2.29,0.08,4.64,0.19,6.98c0.11,2.29-0.31,4.68,0.72,7.11c1.47-0.28,2.72-0.43,3.93-0.76c1.84-0.51,3.65-1.13,5.45-1.75
		c3.74-1.28,7.4-1.4,11.17,0.13c2.02,0.82,4.3,1.03,6.49,1.38c0.67,0.11,1.42-0.25,2.32-0.43c-1.2-4.7-2.01-9.2-3.69-13.36
		C-303.53-222.68-319.97-222.26-323.2-221.59z M-327.3-207.44c0.54-5.21,0.25-9.74,0.26-14.22c-3.83-1.01-17.44-1.68-22.05-1.1
		c-0.59,2.2-1.23,4.47-1.81,6.75c-0.6,2.37-2.02,4.59-1.73,7.42c1.06,0,1.85,0.12,2.59-0.02c2.34-0.46,4.64-1.07,6.98-1.53
		c3.98-0.78,7.88-0.83,11.61,1.17C-330.37-208.39-329.13-208.1-327.3-207.44z M-357.43-209.68c2.17-4.29,4.05-10.13,4.47-13.9
		c-2.93-0.5-5.89-0.91-8.81-1.52c-2.92-0.61-5.8-1.41-8.54-2.09c-2.2,2.92-5.23,9.62-6.9,15.19c3.37-0.12,6.68-0.63,9.89-0.26
		C-364.08-211.88-360.94-210.64-357.43-209.68z M-267.03-209.63c-2.86-5.31-4.42-10.68-7.66-15.55c-6.02,1.2-12,1.48-18.18,2.6
		c1.35,4.73,2.6,9.12,3.92,13.74c1.37-0.37,2.46-0.53,3.44-0.94c5.08-2.16,10.12-2.6,15.25-0.08
		C-269.51-209.51-268.48-209.72-267.03-209.63z M-260.41-227.85c-3.65-0.03-6.89,0.94-10.19,2.2c3,4.99,5.85,9.76,8.75,14.5
		c0.21,0.34,0.74,0.47,1.08,0.68c4.5-3.02,4.5-3.02,6.45-6.73C-256.27-220.6-258.31-224.18-260.41-227.85z M-374.59-228.49
		c-1.05-0.4-1.91-0.78-2.8-1.06c-1.04-0.32-2.1-0.56-3.37-0.88c-1.48,5.09-4.27,9.41-5.74,14.5c1.91,1.16,3.65,2.21,5.68,3.45
		C-378.55-217.91-376.42-223.01-374.59-228.49z"/>
</g>
<path d="M-15.81,691.98c1.14-2.21,2.93-2.18,4.35-2.6c4.75-1.4,9.54-2.62,14.33-3.88c18.99-5,37.98-9.99,56.98-14.96
	c1.22-0.32,2.48-0.58,3.73-0.62c0.42-0.01,1.01,0.68,1.24,1.18c0.13,0.28-0.2,1.05-0.52,1.21c-0.98,0.51-2.03,0.93-3.1,1.2
	c-23.36,5.96-46.72,11.91-70.09,17.82C-10.98,691.87-13.08,692.74-15.81,691.98z"/>
<path d="M-70.26,670.07c1.61-0.33,3.09-0.07,4.65,0.55c12.03,4.81,23.59,10.61,35.2,16.31c2.44,1.19,4.91,2.31,7.37,3.46
	c0.43,0.2,0.88,0.38,1.31,0.6c0.76,0.41,1.3,1.01,0.86,1.91c-0.42,0.87-1.29,0.91-2.06,0.62c-1.65-0.61-3.29-1.24-4.87-2
	c-5.19-2.49-10.34-5.04-15.51-7.55c-6.46-3.14-12.86-6.43-19.64-8.86c-1.64-0.59-3.12-1.61-4.71-2.35
	c-1.25-0.59-1.86-1.67-2.44-2.81C-70.12,669.95-70.26,670.07-70.26,670.07z"/>
<path d="M-90.42,650.71c1.85-2.24,3.89-2.34,5.67-2.83c8.16-2.24,16.35-4.35,24.53-6.51c15.28-4.03,30.57-8.05,45.85-12.08
	c0.77-0.2,1.53-0.49,2.31-0.62c0.96-0.16,1.94-0.19,2.44,0.91c0.36,0.79-0.21,1.64-1.42,2.09c-0.75,0.27-1.52,0.48-2.29,0.68
	c-23.2,5.92-46.41,11.84-69.61,17.74c-1.7,0.43-3.42,0.81-5.15,1.09C-88.63,651.27-89.23,650.97-90.42,650.71z"/>
<path d="M-142.59,628.56c0.72,0.25,1.62,0.54,2.49,0.88c12.48,4.93,24.45,10.97,36.47,16.91c2.57,1.27,5.23,2.37,7.79,3.67
	c0.39,0.2,0.74,1.15,0.58,1.55c-0.17,0.42-1.07,0.92-1.47,0.8c-1.97-0.62-3.93-1.31-5.79-2.19c-7.06-3.37-14.04-6.9-21.11-10.24
	c-4.33-2.04-8.8-3.77-13.14-5.78c-2.3-1.06-4.48-2.4-6.66-3.69c-0.24-0.14-0.23-0.87-0.16-1.3
	C-143.56,628.97-143.1,628.85-142.59,628.56z"/>
<g>
	<path d="M634.44,900.03c6.66,0.66,14.61,1.43,22.56,2.25c12.08,1.25,24.15,2.54,36.23,3.82c2.07,0.22,4.15,0.39,6.18,0.82
		c2.31,0.49,3.79,2.39,3.08,4.6c-0.92,2.88-0.08,5.33,0.76,7.9c0.69,2.13,1.26,4.3,2.13,6.36c1.16,2.76,0.97,5.27-0.73,7.7
		c-0.27,0.39-0.44,0.85-0.67,1.27c-7.81,14.31-15.61,28.62-23.44,42.91c-5.45,9.95-10.96,19.87-16.46,29.79
		c-1.35,2.43-2.16,2.83-5.06,2.4c-14.86-2.2-29.72-4.41-44.57-6.67c-4.42-0.67-8.81-1.53-13.21-2.31c-3.14-0.55-5.64-2.21-7.65-4.59
		c-3.47-4.1-6.13-8.57-6.38-14.13c-0.13-2.94,0.45-5.69,1.83-8.31c3.49-6.65,6.89-13.35,10.33-20.02
		c8.29-16.04,16.59-32.08,24.89-48.12c0.22-0.43,0.43-0.86,0.65-1.28C627.46,899.56,627.46,899.56,634.44,900.03z M630.98,905.24
		c-13.09,23.94-25.62,48.01-38.71,72.51c10.81,2.22,21.26,3.39,31.62,5.07c10.38,1.69,20.78,3.24,31.14,4.6
		c0.51-0.82,0.89-1.33,1.18-1.9c5.23-10.25,10.42-20.52,15.68-30.74c6.73-13.07,13.54-26.1,20.27-39.16
		c0.61-1.19,1.66-2.32,1.21-3.96c-0.71-0.16-1.32-0.36-1.94-0.42c-19.7-2.08-39.4-4.16-59.1-6.22
		C632.02,904.99,631.7,905.12,630.98,905.24z M593.42,984.14c0.49,8.13,1.71,10.47,10.38,11.83c0.16,0.02,0.32,0.03,0.48,0.05
		c7.75,1.11,15.49,2.22,23.24,3.34c9.33,1.35,18.65,2.73,27.98,4.06c0.67,0.1,1.39-0.15,2.37-0.28c-1.13-3.53-1.82-6.78-3.43-9.6
		C640.15,990.64,597.46,984.01,593.42,984.14z M698.21,918.03c-13.66,26.36-26.73,51.58-39.83,76.88c1,2.13,1.23,4.61,3.1,6.45
		c0.42-0.46,0.8-0.75,1.01-1.14c12.93-24.25,25.84-48.5,38.74-72.74C700.3,924.57,699.44,921.85,698.21,918.03z"/>
	<path d="M639.9,920.67c-0.94,0.83-1.85,1.7-2.83,2.48c-2.37,1.87-5,2.54-7.93,1.85c-0.38-4.05,0.47-7.08,3.44-12.38
		c0.48-0.11,1.09-0.22,1.7-0.38c4.01-1.05,6.25,2.17,6.01,5.31c-0.08,1.1-0.31,2.19-0.48,3.29L639.9,920.67z M631.57,921.68
		c2.38,0.81,3.51-0.22,4.37-1.28c0.75-0.94,1.19-2.18,1.54-3.36c0.25-0.86-0.72-2.24-1.44-2.15c-0.72,0.09-1.74,0.39-2.01,0.91
		C633.09,917.6,632.43,919.54,631.57,921.68z"/>
	<path d="M662.16,924.64c0.22,1.64,0.48,3.2,0.6,4.77c0.03,0.34-0.52,1.06-0.71,1.03c-0.52-0.08-1.23-0.36-1.42-0.76
		c-0.39-0.85-0.41-1.86-0.73-2.74c-0.45-1.25-2.23-1.5-3.13-0.44c-0.59,0.69-0.99,1.54-1.77,2.78c-0.47-0.89-1.02-1.43-0.92-1.81
		c0.86-3.22,1.76-6.43,2.79-9.59c0.61-1.87,1.82-2.56,3.59-2.44c1.68,0.11,3.05,1.14,3.53,2.72c0.43,1.41,0.45,2.84-0.3,4.16
		C663.24,923.14,662.66,923.9,662.16,924.64z M658.6,923.32c1.2-1,2.17-1.55,2.73-2.38c0.35-0.51,0.18-1.48,0.01-2.19
		c-0.08-0.34-0.65-0.75-1.04-0.79c-0.37-0.05-0.96,0.23-1.15,0.55C658.42,919.72,657.96,921.04,658.6,923.32z"/>
	<path d="M650.86,928.9c-0.57-0.78-1.18-1.63-1.94-2.68c-0.78,0-1.74-0.11-2.66,0.03c-0.92,0.14-1.8,0.54-2.61,0.79
		c-1.03-0.57-1.04-1.48-0.56-2.07c2.58-3.22,5.21-6.4,7.95-9.48c0.87-0.98,2.47-0.47,2.58,0.72c0.4,4.3-0.02,8.49-2.08,12.39
		C651.51,928.71,651.29,928.73,650.86,928.9z M650.45,920.26c-1.37,0.53-2.17,1.39-2.24,2.92
		C650.81,923.24,650.81,923.24,650.45,920.26z"/>
	<path d="M665.69,930.16c0.05-2.37,2.33-3.71,2.81-5.97c-0.31-2.25-3.1-3.88-2.26-6.81c2.42,0.41,2.44,2.77,4.19,3.82
		c1.07-0.89,2.2-1.9,3.42-2.78c0.24-0.18,0.86,0.04,1.23,0.23c0.17,0.09,0.2,0.53,0.23,0.82c0.02,0.14-0.07,0.31-0.16,0.44
		c-2.47,3.49-4.91,7-7.44,10.45C667.15,931.1,666.34,930.96,665.69,930.16z"/>
	<path d="M639.81,920.83c0.83-1.9,1.62-3.81,2.51-5.67c0.15-0.32,0.78-0.64,1.13-0.58c0.32,0.05,0.86,0.68,0.79,0.92
		c-0.92,3.37-1.91,6.73-2.95,10.07c-0.1,0.31-0.73,0.65-1.11,0.65c-0.8-0.01-1.02-0.71-0.94-1.37c0.17-1.41,0.44-2.81,0.67-4.19
		C639.9,920.67,639.81,920.83,639.81,920.83z"/>
</g>
<g>
	<path d="M1422.57-531.43c4.96-1.97,9.53-3.79,14.34-5.71c-0.27-1-0.42-1.91-0.75-2.77c-1.56-4.02-3.21-8.01-4.73-12.05
		c-0.74-1.97-0.29-3.49,0.9-3.65c1.61-0.22,2.25,0.98,2.77,2.17c1.54,3.51,3.02,7.05,4.53,10.58c0.63,1.46,1.26,2.92,1.99,4.6
		c5.93-0.68,11.77-1.35,17.65-2.02c1.12-0.96,0.82-2.29,0.79-3.53c-0.12-4.96-0.29-9.91-0.39-14.87c-0.02-1.1,0.01-2.29,0.4-3.29
		c0.21-0.56,1.18-1.03,1.86-1.12c0.43-0.06,1.25,0.57,1.4,1.04c0.41,1.36,0.72,2.79,0.8,4.21c0.23,4.15,0.32,8.31,0.5,12.46
		c0.07,1.57,0.2,3.14,0.32,4.98c4.78,0.67,9.32,1.31,13.86,1.94c2.82-5.17,5.56-10.2,8.3-15.24c0.38-0.7,0.71-1.44,1.16-2.09
		c0.72-1.04,1.93-1.34,2.94-0.82c0.94,0.49,1.45,1.74,1.06,2.89c-0.25,0.75-0.65,1.45-1.03,2.15c-2.3,4.21-4.61,8.41-6.9,12.62
		c-0.21,0.39-0.31,0.85-0.54,1.52c4.49,1.75,8.92,3.48,13.5,5.27c4.63-3.98,9.22-7.94,13.82-11.87c0.96-0.82,1.94-1.71,3.06-2.25
		c0.55-0.27,1.56-0.01,2.16,0.35c0.92,0.55,1.16,1.67,0.61,2.53c-0.67,1.04-1.59,1.97-2.55,2.78c-4.02,3.4-8.1,6.74-12.26,10.18
		c0.35,0.54,0.5,1.01,0.82,1.22c4.41,2.88,8.85,5.72,13.49,8.7c3.98-1.47,8.15-3.02,12.32-4.55c0.9-0.33,1.8-0.68,2.73-0.84
		c1.01-0.17,1.88,0.18,2.39,1.18c0.5,0.98,0.23,2.36-0.74,2.98c-0.66,0.42-1.42,0.71-2.16,0.99c-2.24,0.86-4.49,1.67-6.73,2.55
		c-1.02,0.4-2,0.9-3.11,1.4c0.9,1.96,2.54,3.07,3.75,4.51c1.42,1.69,1.59,2.4,0.26,4.21c-1.49,2.05-3.23,3.91-5.06,6.11
		c0.47,0.45,0.93,1.06,1.53,1.43c2.17,1.34,4.41,2.6,6.6,3.91c0.68,0.41,1.36,0.85,1.94,1.38c0.86,0.77,0.97,2.22,0.25,3.04
		c-0.72,0.82-1.67,1-2.6,0.47c-3.75-2.12-7.47-4.3-11.53-6.65c-1.96,0.89-3.58,2.95-5.62,4.43c-2.04,1.49-4.05,3.02-6.32,4.72
		c0.77,0.94,1.32,1.67,1.93,2.33c2.73,2.92,5.52,5.79,8.21,8.75c0.73,0.8,1.39,1.78,1.71,2.79c0.19,0.6-0.14,1.68-0.63,2.09
		c-0.48,0.41-1.63,0.59-2.16,0.3c-1.08-0.6-2.03-1.52-2.89-2.44c-3.36-3.63-6.67-7.32-10.16-11.16c-2.68,0.32-4.86,2.08-7.36,2.99
		c-2.38,0.87-4.71,1.87-7.28,2.9c0.31,1.59,1.07,2.8,1.61,4.08c1.53,3.69,3.08,7.38,4.51,11.1c0.39,1.01,0.54,2.16,0.51,3.25
		c-0.01,0.47-0.66,1.17-1.15,1.32c-0.48,0.15-1.36-0.08-1.67-0.46c-0.69-0.85-1.24-1.85-1.64-2.88c-1.63-4.17-3.18-8.36-4.76-12.55
		c-0.33-0.87-0.65-1.75-0.97-2.64c-6.33,0.96-12.42,1.89-18.42,2.8c0,4.99,0.01,9.76,0,14.53c-0.01,2.24-0.02,4.48-0.08,6.71
		c-0.02,0.79-0.17,1.59-0.36,2.36c-0.23,0.91-1.4,1.79-2.17,1.46c-0.65-0.27-1.25-0.91-1.6-1.54c-0.29-0.51-0.24-1.24-0.25-1.88
		c-0.01-7.03-0.01-14.06-0.01-21.38c-0.77-0.22-1.62-0.57-2.52-0.71c-3.63-0.56-7.27-1.06-10.92-1.55c-0.77-0.1-1.56-0.09-2.46-0.13
		c-0.36,0.83-0.69,1.53-0.96,2.26c-1.78,4.79-3.51,9.61-5.34,14.38c-0.51,1.32-1.25,2.58-2.06,3.74c-0.27,0.38-1.2,0.61-1.67,0.45
		c-0.5-0.17-1.13-0.88-1.14-1.36c-0.01-1.08,0.17-2.23,0.55-3.24c1.81-4.78,3.72-9.53,5.57-14.29c0.39-1.01,0.73-2.05,1.11-3.13
		c-5.38-2.15-10.53-4.22-15.75-6.31c-2.92,3.62-5.8,7.23-8.73,10.8c-0.7,0.86-1.47,1.7-2.35,2.37c-0.82,0.63-1.85,0.62-2.65-0.11
		c-0.78-0.71-1-1.69-0.44-2.62c0.65-1.09,1.39-2.14,2.21-3.11c2.6-3.03,5.26-6,8.1-9.23c-1.81-2.37-4.62-3.34-6.78-5.11
		c-2.08-1.71-4.28-3.29-6.42-4.91c-2.93,1.74-5.65,3.41-8.43,4.97c-1.25,0.7-2.58,1.33-3.95,1.68c-0.57,0.14-1.61-0.37-1.95-0.9
		c-0.33-0.52-0.35-1.71,0.02-2.13c0.94-1.04,2.11-1.94,3.32-2.67c2.31-1.4,4.72-2.65,7.22-4.04c-1.37-3.18-5.08-4.71-5.49-8.39
		c1.54-1.81,3.07-3.6,4.76-5.59c-1.86-1.56-3.82-2.21-5.57-3.21c-1.95-1.1-3.94-2.13-5.84-3.3c-0.79-0.49-1.52-1.19-2.03-1.96
		c-0.28-0.42-0.23-1.3,0.04-1.75c0.27-0.45,1.04-0.9,1.53-0.85c1.09,0.12,2.21,0.42,3.21,0.89c4.05,1.89,8.05,3.88,12.34,5.96
		c3.71-2.88,7.72-5.99,11.67-9.05c0.24-1.27-0.67-1.81-1.29-2.47c-2.83-3.05-5.73-6.03-8.5-9.13c-0.82-0.92-1.37-2.12-1.84-3.27
		c-0.37-0.92,0.84-2.02,1.73-1.58c1.12,0.56,2.26,1.2,3.16,2.05c2.8,2.62,5.49,5.36,8.23,8.05
		C1420.1-533.81,1421.25-532.71,1422.57-531.43z M1521.22-509.9c-0.91-1-1.61-1.85-2.4-2.63c-10.85-10.76-23.88-17.53-38.7-20.93
		c-11.65-2.67-23.38-3.55-35.17-0.94c-15.71,3.49-29.24,10.95-40.46,22.52c-0.73,0.75-1.22,1.72-1.84,2.63
		c0.86,0.92,1.48,1.65,2.16,2.32c8.08,7.91,17.21,14.28,27.65,18.69c15.52,6.56,31.53,7.85,47.89,3.88c14-3.4,25.91-10.7,36.4-20.4
		C1518.37-506.26,1519.67-508.1,1521.22-509.9z"/>
	<path d="M1461.88-524.7c4.69,0.09,9,1.55,12.77,4.54c6.29,5,9.19,11.69,9.65,19.58c0.03,0.47-0.03,0.96-0.12,1.43
		c-0.23,1.14-1.31,2.04-2.38,1.96c-1.08-0.08-1.79-0.73-2.01-1.75c-0.29-1.4-0.41-2.84-0.64-4.26c-0.63-3.87-2.13-7.36-4.6-10.41
		c-7.47-9.22-19.95-8.44-26.2,1.62c-1.71,2.76-2.68,5.78-3.09,9c-0.14,1.1-0.31,2.21-0.66,3.26c-0.26,0.78-0.99,1.36-1.86,1.11
		c-0.54-0.15-1.15-0.63-1.4-1.13c-0.33-0.69-0.51-1.54-0.48-2.31c0.4-8.34,3.68-15.14,10.9-19.7
		C1454.81-523.68,1458.19-524.58,1461.88-524.7z"/>
</g>
<g>
	<path d="M1414.62-280.04c-0.45-1.19-0.94-2.35-1.33-3.55c-7.17-22.21-11.32-44.93-11.01-68.32c0.07-5.41,0.77-10.83,1.5-16.21
		c0.65-4.81,3.32-8.56,7.25-11.4c3.28-2.37,7.01-3.78,10.74-5.24c4.61-1.81,9.14-3.79,13.69-5.73c0.88-0.37,1.69-0.9,2.54-1.34
		c2.73-1.4,4.44-3.59,5.1-6.59c0.21-0.94,0.39-1.88,0.66-2.8c1.1-3.77,1.87-4.35,5.7-4.46c0.48-0.01,0.96-0.01,1.44,0
		c6.08,0.06,12.15,0.12,18.23,0.2c1.28,0.02,2.56,0.04,3.82,0.22c1.6,0.22,2.53,1.3,2.88,2.82c0.14,0.61,0.12,1.27,0.11,1.9
		c-0.11,4.14,1.86,7.02,5.49,8.79c3.01,1.47,6.09,2.82,9.15,4.18c3.5,1.56,7.03,3.07,10.54,4.61c0.73,0.32,1.45,0.67,2.16,1.04
		c7.49,4.01,12.25,9.71,13.31,18.6c0.89,7.53,0.93,14.99,0.37,22.48c-0.87,11.81-2.7,23.5-4.82,35.14
		c-1.03,5.66-2.28,11.27-3.44,16.91c-0.16,0.78-0.33,1.56-0.54,2.33c-1.67,6.21-1.91,6.45-8.51,6.45c-25.26,0-50.52-0.03-75.79-0.05
		C1420.87-280.04,1417.85-280.04,1414.62-280.04z M1448.53-401.54c-0.55,0.74-0.68,0.85-0.73,0.99c-0.16,0.45-0.38,0.9-0.42,1.36
		c-0.52,5.88-3.82,9.68-9.02,12.01c-4.37,1.96-8.76,3.88-13.17,5.76c-2.64,1.13-5.38,2.04-8,3.22c-6.21,2.78-9.77,7.4-10.15,14.42
		c-0.56,10.4-0.88,20.8,0.26,31.16c0.84,7.62,2.23,15.18,3.48,22.75c1.5,9.14,4.31,17.96,6.49,26.9c1.79,0.44,3.32,0.53,4.62-0.33
		c1.25-7.12,2.44-14.04,3.67-20.96c1.26-7.04,1.06-14.01-0.99-20.89c-0.91-3.06-1.79-6.14-2.72-9.2c-1.95-6.45-3.09-13.06-3.9-19.74
		c-0.11-0.92-0.05-1.93,0.22-2.8c0.14-0.44,0.9-0.82,1.44-0.95c0.34-0.08,1.01,0.28,1.16,0.61c0.51,1.15,1.07,2.35,1.24,3.59
		c1.29,9.22,3.67,18.17,6.4,27.04c2.55,8.28,2.87,16.65,0.95,25.11c-0.74,3.27-1.42,6.57-1.98,9.88c-0.41,2.45-1.11,4.9-0.9,7.65
		c1.04,0.1,1.81,0.23,2.59,0.23c20.48-0.02,40.96-0.06,61.44-0.11c0.9,0,1.8-0.24,2.88-0.4c-0.2-1.34-0.32-2.44-0.54-3.52
		c-0.96-4.7-1.98-9.38-2.92-14.09c-1.64-8.27-1.79-16.51,0.51-24.71c1.08-3.85,2.01-7.74,3.1-11.58c1.62-5.7,3.09-11.42,3.8-17.32
		c0.13-1.11,0.4-2.21,0.73-3.27c0.12-0.37,0.68-0.92,0.92-0.87c0.52,0.12,1.36,0.55,1.38,0.9c0.18,2.37,0.55,4.81,0.17,7.11
		c-0.8,4.88-1.95,9.71-3.11,14.52c-1.16,4.82-2.58,9.57-3.72,14.39c-1,4.22-1.23,8.51-0.82,12.87c0.82,8.63,2.84,17.02,4.66,25.46
		c0.1,0.44,0.42,0.83,0.69,1.36c1.7,0.25,3.4,0.5,5.11-0.37c0.51-2.11,1.07-4.11,1.48-6.14c3.06-14.89,5.69-29.85,7.31-44.96
		c0.67-6.19,0.93-12.44,1.09-18.67c0.13-4.65-0.53-9.27-2.28-13.64c-2.27-5.68-5.65-10.35-11.53-12.83
		c-3.68-1.55-7.28-3.29-10.92-4.94c-3.2-1.45-6.45-2.8-9.6-4.36c-3.86-1.91-5.98-5.17-6.71-9.38c-0.15-0.88-0.34-1.76-0.54-2.8
		C1463.72-401.24,1456.08-401.39,1448.53-401.54z"/>
	<path d="M1462.37-334.88c0,5.84,0.06,10.47-0.04,15.09c-0.03,1.39-0.45,2.79-0.83,4.15c-0.09,0.34-0.76,0.77-1.1,0.72
		c-0.55-0.08-1.33-0.41-1.51-0.84c-0.41-1.01-0.71-2.14-0.72-3.22c-0.14-10.05-0.23-20.1-0.29-30.14c0-0.77,0.12-1.63,0.48-2.28
		c0.25-0.45,1.01-0.88,1.53-0.86c0.51,0.02,1.28,0.52,1.44,0.97c0.35,1.04,0.48,2.18,0.53,3.28
		C1462.07-343.23,1462.23-338.45,1462.37-334.88z"/>
	<path d="M1468.29-370.97c0.33,0.21,0.88,0.37,1.04,0.71c0.73,1.58,1.39,3.2,2.01,4.83c1.37,3.58,2.91,7.05,5.45,10.01
		c2.09,2.43,4.3,4.69,7.18,6.2c0.7,0.37,1.39,0.79,1.97,1.32c0.62,0.56,0.99,1.45,0.39,2.11c-0.45,0.5-1.41,0.98-1.99,0.84
		c-1.37-0.33-2.76-0.86-3.93-1.63c-7.79-5.11-12.08-12.46-13.46-21.57c-0.11-0.72,0.24-1.53,0.48-2.26
		C1467.5-370.63,1467.91-370.74,1468.29-370.97z"/>
	<path d="M1452.74-369.11c-1.45,8.65-4.39,16.25-11.45,21.63c-1.53,1.17-3.13,2.28-5.16,2.2c-0.5-0.02-1.24-0.53-1.41-0.98
		c-0.17-0.47,0.05-1.29,0.41-1.69c0.52-0.57,1.32-0.87,1.98-1.32c6.14-4.1,10.06-9.66,11.26-17.03c0.23-1.41,0.45-2.86,0.95-4.18
		c0.22-0.58,1.08-1.13,1.74-1.29c0.81-0.19,1.63,0.92,1.68,1.94C1452.76-369.49,1452.74-369.17,1452.74-369.11z"/>
	<path d="M1461.7-302.71c-0.28,1.02-0.44,1.95-0.8,2.79c-0.14,0.32-0.73,0.61-1.12,0.62c-0.4,0.01-1-0.25-1.17-0.57
		c-1.23-2.37-1.03-4.83-0.18-7.26c0.11-0.32,0.71-0.65,1.09-0.66c0.38-0.01,1.04,0.3,1.12,0.6
		C1461.09-305.71,1461.37-304.17,1461.7-302.71z"/>
	<path d="M1505.35-316.21c-1.4,2.37-3.42,1.92-5.21,1.87c-1.23-0.04-2.49-0.39-2.62-2.25
		C1500.09-316.47,1502.57-316.34,1505.35-316.21z"/>
	<path d="M1412.69-315.8c2.68-1.6,3.48-1.71,7.45-1.31C1418.19-314.49,1415.84-315.08,1412.69-315.8z"/>
</g>
<g>
	<path d="M1661.12-468.91c-0.28-1.57-0.77-2.81-0.66-3.99c0.62-6.57-1.26-12.7-3.3-18.76c-2.7-8.03-5.61-15.99-8.57-23.93
		c-2.03-5.43-3.62-11.01-4.16-16.72c-1.27-13.56,2.29-25.64,12.14-35.5c7.11-7.12,15.52-11.72,25.52-13.25
		c3.66-0.56,7.32-0.56,10.98,0.17c10.66,2.14,17.51,9.32,19.08,20.09c0.63,4.3,0.6,8.61,0.06,12.92c-0.16,1.25-0.26,2.51-0.38,3.66
		c1.04,0.76,1.62,0.05,2.23-0.36c4.37-2.97,8.89-5.69,13.83-7.64c5.71-2.26,11.58-3.64,17.78-3.32c9.33,0.48,16.57,4.63,21.29,12.68
		c4.48,7.64,6.45,15.97,5.72,24.85c-0.28,3.39-1.14,6.66-2.83,9.59c-4,6.95-9.31,12.57-16.84,15.8c-5.89,2.53-11.95,4.53-18.14,6.18
		c-14.08,3.74-28.37,6.45-42.77,8.56c-9.39,1.38-18.46,3.78-27.13,7.69C1663.85-469.68,1662.64-469.41,1661.12-468.91z
		 M1664.39-474.43c3.45-1.19,6.28-2.22,9.15-3.16c8.1-2.64,16.52-3.66,24.89-4.93c13.14-1.99,26.07-4.89,38.75-8.8
		c4.72-1.46,9.28-3.44,13.84-5.35c4.06-1.7,7.31-4.54,10.06-7.94c1.1-1.37,2.11-2.81,3.17-4.22c2.07-2.75,3.22-5.88,3.65-9.26
		c0.82-6.48-0.03-12.74-2.65-18.75c-4.3-9.85-13.06-15.12-23.74-14.28c-5.16,0.41-10.1,1.72-14.71,4.03
		c-4.42,2.21-8.71,4.7-13.05,7.09c-1.26,0.69-2.41,1.61-3.71,2.19c-0.95,0.42-2.06,0.45-3.12,0.66c-0.27-0.75-0.58-1.21-0.56-1.64
		c0.09-1.43,0.25-2.86,0.49-4.27c0.9-5.24,1.07-10.5,0.43-15.76c-1.35-11.16-8.96-18.17-20.19-18.69c-0.96-0.04-1.92-0.08-2.88,0.01
		c-12.78,1.12-22.89,7.3-29.97,17.63c-5.35,7.81-7.22,17.05-6.09,26.58c0.65,5.55,1.96,11.02,3.83,16.31
		c2.45,6.93,4.96,13.83,7.48,20.73C1662-489.36,1664.35-482.41,1664.39-474.43z"/>
	<path d="M1691.65-520.75c2.75,0.91,5.29,2.06,7.67,4.06c-1.52,3.74-4.05,6.35-7.61,7.95c-1.38,0.62-2.92-0.32-3.26-1.84
		c-0.14-0.61-0.24-1.27-0.14-1.87C1688.77-515.43,1689.5-518.31,1691.65-520.75z"/>
	<path d="M1686.28-526.43c-2.27,0.05-3.99-1.52-4.09-3.72c-0.1-2.22,1.48-4.06,3.61-4.23c2.36-0.19,4.34,1.63,4.33,3.98
		C1690.13-528.15,1688.51-526.48,1686.28-526.43z"/>
	<path d="M1714.34-517.08c-0.06,2.26-1.69,3.87-3.93,3.86c-2.24,0-3.95-1.62-4.02-3.81c-0.07-2.4,1.78-4.2,4.2-4.09
		C1712.87-521,1714.39-519.37,1714.34-517.08z"/>
</g>
<g>
	<path d="M-534.4,22.94c0.36,0.18,0.87,0.57,1.44,0.72c3.77,0.96,7.25,2.56,10.35,4.88c1.65,1.23,3.4,1.64,5.39,1.54
		c3.35-0.18,6.71-0.32,10.07-0.46c1.12-0.05,2.13,0.05,3.17,0.74c14.41,9.52,28.87,18.97,43.3,28.46c0.25,0.17,0.41,0.48,0.85,1.01
		c-0.16,0.53-0.24,1.33-0.62,1.96c-3.4,5.6-6.85,11.18-10.31,16.75c-0.23,0.38-0.68,0.62-1.24,1.11c-3.98-1.91-7.88-4.07-11.57-6.52
		c-11.72-7.79-23.31-15.78-35.05-23.56c-1.87-1.24-2.53-2.73-2.64-4.74c-0.24-4.3-0.49-8.61-0.74-12.88
		c-4.96-4.09-8.3-5.67-13.86-6.45c-0.62,0.97-1.25,2.06-2,3.06c-1.53,2.04-2.89,4.3-4.75,5.98c-9.07,8.2-19.73,12.24-32.03,11.6
		c-4.32-0.22-8.59-0.88-12.75-2.13c-3.55-1.07-6.87-2.58-9.85-4.84c-1.65-1.26-3.35-2.47-5.12-3.55c-1.49-0.91-3.1-1.63-4.7-2.36
		c-3.84-1.74-7.31,1.63-7.54,4.92c-0.15,2.15,0.4,4.12,1.66,5.88c0.53,0.75,1.06,1.5,1.58,2.24c-0.4,0.58-0.58,1.11-0.94,1.34
		c-2.85,1.77-5.71,3.54-8.63,5.19c-1.77,1-2.92,0.67-4.17-0.88c-0.1-0.12-0.19-0.26-0.27-0.39c-8.81-14.28-2.29-29.54,12.63-33.43
		c4.63-1.21,9.19-0.61,13.76,0.45c2.63,0.61,5.33,1.15,8.01,1.28c6.13,0.29,8.72-2.34,9.56-8.35c0.44-3.12,0.17-6.39-0.15-9.56
		c-0.3-3.01-1.02-5.98-1.68-8.95c-1.71-7.66-1.73-15.22,0.97-22.68c0.15-0.43,0.1-0.93,0.15-1.46c-1.9-1.18-3.85-2.25-5.64-3.54
		c-1.15-0.83-2.09-1.97-3.1-3c-3.89-3.98-6.56-8.65-7.87-14.06c-0.72-2.95-1.32-5.92-1.91-8.9c-0.35-1.77,0.36-3.09,1.96-3.98
		c2.36-1.3,4.46-3.08,7.37-3.94c0.49,0.85,1.01,1.6,1.38,2.41c0.4,0.87,0.59,1.83,0.99,2.69c4.28,9.17,10.15,14.13,21.84,14.21
		c11.11,0.08,19.8,4.41,26.59,12.9c6.29,7.87,9.29,17.08,10.18,26.99c0.9,10-0.13,19.8-3.59,29.29c-0.27,0.75-0.48,1.53-0.69,2.3
		C-534.64,22.34-534.52,22.5-534.4,22.94z M-615.74,46.22c-0.63-2.18-1.28-3.83-1.57-5.53c-0.78-4.55,1.48-8.5,5.6-9.96
		c2.2-0.78,4.4-0.57,6.57,0.24c3.34,1.25,6.27,3.19,9.01,5.41c2.52,2.05,5.34,3.49,8.39,4.53c3.5,1.19,7.08,1.9,10.75,2.32
		c13.15,1.5,24.18-2.94,33.62-11.87c1.88-1.78,3.21-3.94,4.28-6.31c2.86-6.31,4.78-12.9,5.6-19.76c1.12-9.31,0.59-18.52-2.59-27.45
		c-2.12-5.95-5.12-11.39-9.72-15.79c-7.76-7.42-16.91-9.98-27.39-7.43c-1.86,0.45-3.63,1.23-5.48,1.73
		c-0.69,0.19-1.47,0.03-2.18,0.03c-0.06-0.38-0.13-0.55-0.1-0.7c0.37-2.08,3.1-1.54,3.73-3.34c-8.31-4.37-8.31-4.37-15.71-16.73
		c-0.53,0.24-1.12,0.43-1.63,0.74c-1.08,0.66-2.11,1.38-3.22,2.12c0.06,0.74,0.04,1.39,0.19,1.99c0.6,2.48,1.24,4.96,1.89,7.43
		c1.62,6.09,5.16,10.94,9.8,15.05c1.68,1.48,3.58,2.68,5.95,2.53c0.98-0.73,1.8-1.54,2.78-2.01c0.61-0.29,1.7-0.38,2.16-0.02
		c0.8,0.61,0.2,1.44-0.4,1.98c-3.63,3.32-5.13,7.67-5.72,12.36c-0.56,4.46-0.38,8.92,0.5,13.36c0.81,4.07,1.5,8.18,1.92,12.31
		c0.45,4.45,0.53,8.89-1.34,13.2c-1.19,2.75-3.11,4.39-5.84,5.23c-2.8,0.86-5.66,0.98-8.54,0.39c-2.82-0.58-5.63-1.18-8.45-1.75
		c-3.36-0.68-6.69-0.52-9.97,0.42c-10.75,3.09-16.19,13.39-12.87,23.13c0.41,1.21,0.8,2.43,1.28,3.61c0.39,0.99,0.6,2.16,2.2,2.57
		C-620.25,49.02-618.1,47.68-615.74,46.22z M-462.51,60.24c-1.41-1.03-2.28-1.73-3.2-2.34c-12.42-8.15-24.85-16.29-37.27-24.43
		c-0.4-0.26-0.81-0.51-1.2-0.79c-1.09-0.77-2.27-1.08-3.61-0.94c-1.43,0.15-2.87,0.2-4.3,0.28c-2.35,0.14-4.7,0.28-7.16,0.43
		c-0.13,0.88-0.32,1.5-0.29,2.1c0.16,3.98,0.37,7.96,0.57,11.98c1.13,0.83,2.12,1.62,3.17,2.33c10.47,7.05,20.93,14.11,31.44,21.1
		c3.05,2.03,6.23,3.88,9.39,5.76c0.78,0.47,1.69,0.72,2.77,1.17c1.49-2.62,3.17-4.89,4.26-7.5c-1.21-1.13-3.83-0.44-3.47-2.99
		c0.76-0.48,1.59,1.01,2.1-0.32c-0.47-0.94-0.95-1.9-1.38-2.76c1.25-1.59,2.41-1.93,3.92-0.71c-0.49,0.46-0.9,0.84-1.4,1.3
		c0.57,0.85,1.14,1.69,1.93,2.84C-464.92,64.44-463.82,62.53-462.51,60.24z"/>
	<path d="M-557.71-38.6c1.06,0.36,2.18,0.56,3.12,1.08c5.24,2.9,8.64,7.35,10.65,12.93c0.1,0.28,0.14,0.66,0.04,0.93
		c-0.16,0.41-0.4,0.93-0.74,1.08c-0.34,0.15-1.01,0.04-1.26-0.22c-0.53-0.56-0.98-1.25-1.3-1.96c-2.24-4.94-5.56-8.84-10.6-11.11
		c-0.28-0.13-0.62-0.31-0.74-0.56c-0.19-0.38-0.39-0.91-0.27-1.25C-558.68-38.03-558.16-38.24-557.71-38.6z"/>
	<path d="M-511.09,39.27c0.55-0.53,1.1-1.07,1.65-1.6c0.43-0.42,0.87-0.83,1.17-1.12c1.76,0.12,1.5,1.68,2.28,2.37
		c2.94,0.28,3.18,0.34,4.74,1.59c0.58,0.47,1.04,1.09,1.63,1.55c0.42,0.32,1.28-0.14,1.44,0.89c-1.67,1.24-3.37,2.51-5.08,3.79
		c-1.14-1.08,0.13-1.66,0.36-2.44c0.2-0.7,0.32-1.43-0.06-2.42c-0.93,1.15-1.85,2.29-2.88,3.57c-1.47-0.93-0.15-2.06-0.43-3.26
		c-0.71-0.48-1.59-1.07-2.44-1.65c-0.7,0.53-1.3,0.99-2.38,1.8c0.07-1.48,0.12-2.36,0.16-3.24L-511.09,39.27z"/>
	<path d="M-493.36,49.3c0.98-0.54,1.62-0.89,2.3-1.27c0.28,1.97,0.28,1.97-2.09,5.2c-5.01-2.37-5.01-2.37-5.96-3.95
		c0.48-0.79,0.96-0.41,1.53-0.07c0.49,0.29,1.06,0.43,1.64,0.65c0.12-0.52,0.31-0.84,0.22-1.05c-0.17-0.43-0.57-0.78-0.72-1.21
		c-0.55-1.64,0.48-2.87,2.18-2.53c0.47,0.1,0.84,0.75,1.25,1.16c-0.41,0.36-0.82,0.73-1.31,1.17
		C-494.07,47.92-493.79,48.47-493.36,49.3z"/>
	<path d="M-510.92,39.1c-0.87,0.29-1.73,0.67-2.62,0.87c-1.55,0.34-2.76-0.22-3.6-1.58c-0.71-1.14-0.91-2.34-0.13-3.53
		c0.77-1.18,2.36-1.8,3.71-1.43c1.31,0.36,2.25,1.21,2.43,2.58c0.14,1.07,0.03,2.18,0.04,3.27
		C-511.09,39.27-510.92,39.1-510.92,39.1z M-514.4,35.06c-0.55,0.52-1.04,0.77-1.1,1.09c-0.17,0.91,0.47,1.52,1.24,1.6
		c0.36,0.04,1.2-0.81,1.13-1.05C-513.3,36.13-513.89,35.68-514.4,35.06z"/>
	<path d="M-476.86,57.77c0.62-0.12,1.24-0.38,1.85-0.34c1.86,0.12,2.92,1.59,2.29,3.24c-0.61,1.59-1.39,3.12-2.28,5.1
		c-0.52-1.13-0.92-1.98-1.36-2.92c-0.66,0.26-1.33,0.53-1.99,0.79c-0.16-0.31-0.45-0.63-0.38-0.81c0.63-1.74,1.31-3.45,2-5.18
		C-476.73,57.63-476.86,57.77-476.86,57.77z"/>
	<path d="M-479.78,53.77c0.71,0.55,1.41,1.12,2.14,1.63c0.87,0.6,1.27,1.32,0.78,2.36c-0.01,0.01,0.13-0.14,0.12-0.13
		c-0.57-0.08-1.13-0.16-1.7-0.25c-0.16-0.22-0.31-0.43-0.47-0.65c-0.08,0.19-0.17,0.38-0.25,0.57c0.27-0.01,0.54-0.02,0.81-0.03
		c-0.15,0.6-0.31,1.2-0.48,1.86c-0.45,0-0.92-0.02-1.38,0.01c-0.3,0.02-0.6,0.09-1.17,0.18c0.39,0.84,0.75,1.6,1.13,2.43
		c-1.56,1.2-2.09-0.58-3.19-0.68c0.06-0.79-0.06-1.33,0.15-1.68c1.12-1.91,2.32-3.78,3.5-5.66L-479.78,53.77z"/>
	<path d="M-491.82,53.63c1.26,0.45,2.19,0.78,3.27,1.17c0.52-1.59-1.07-1.93-1.34-2.9c-0.23-0.85-0.16-1.59,0.65-2.08
		c1.04-0.63,2.58-0.47,3.02,0.38c0.17,0.34,0.15,1.04-0.08,1.27c-0.48,0.48-0.87,0.82-0.44,1.55c0.77,1.3,0.54,2.49-0.71,3.34
		c-1.12,0.77-2.38,0.4-3.74-1.06C-491.48,54.98-491.52,54.45-491.82,53.63z"/>
	<path d="M-479.79,53.74c-1.15,0.77-2.41,1.43-3.42,2.36c-0.89,0.82-1.5,1.94-2.52,3.32c-0.75-3.12,2.29-4.67,1.34-7.63
		c1.89,0.82,3.26,1.42,4.62,2C-479.78,53.77-479.79,53.74-479.79,53.74z"/>
	<path d="M-468.82,59.67c-0.31,0.15-0.64,0.31-0.98,0.48c-0.1-0.23-0.35-0.58-0.28-0.67c0.24-0.31,0.6-0.52,0.92-0.77
		C-469.06,58.97-468.97,59.24-468.82,59.67z"/>
</g>
<g>
	<path d="M-324.54,582.15c28.99,0.33,51.25,24.44,50.59,52.46c-0.68,28.69-24.24,51.34-53.21,50.43
		c-28.3-0.89-50.48-23.99-49.87-52.75C-376.43,603.99-352.54,581.31-324.54,582.15z M-277.07,633.76
		c0.15-26.8-21.13-48.61-48.23-48.84c-26.21-0.22-48.56,20.4-48.73,48.32c-0.17,27.18,21.39,48.54,48.26,48.82
		C-299,682.33-277.17,660.62-277.07,633.76z"/>
	<path d="M-325.17,675.98c-22.3,0.42-42.77-17.79-42.79-42.52c-0.02-23.49,18.74-42.31,42.25-42.62c24.51-0.32,43,19.68,43.06,42.27
		C-282.59,657.37-302.41,676.14-325.17,675.98z M-365.57,632.87c-0.06,21.85,16.97,40.39,39.87,40.66
		c21.38,0.25,40.15-16.33,40.45-39.47c0.33-25.33-20.13-40.65-39.54-40.97C-345.36,592.77-364.96,608.85-365.57,632.87z"/>
	<path d="M-305.49,619.87c0.1,1.19,0.45,2.07,0.14,2.54c-0.49,0.76-1.36,1.32-2.15,1.84c-3.48,2.28-6.97,4.53-10.48,6.77
		c-1.61,1.03-3.06,2.01-3.88,4.01c-0.92,2.24-3.28,2.83-5.23,1.93c-1.95-0.9-3.04-3.06-1.94-5.24c1.09-2.18,0.93-4.32,0.93-6.53
		c0.02-6.88,0.02-13.76,0.05-20.64c0-1.12,0-2.26,0.25-3.33c0.11-0.48,0.77-1.06,1.29-1.18c0.96-0.23,1.5,0.56,1.6,1.36
		c0.16,1.26,0.14,2.55,0.12,3.82c-0.09,7.2-0.21,14.4-0.31,21.59c-0.01,0.47,0.09,0.94,0.16,1.63c0.85,0.51,1.78,1.08,2.65,1.61
		c0.58-0.24,1.07-0.35,1.46-0.61c3.88-2.55,7.72-5.15,11.61-7.67C-308.17,621.12-307.01,620.65-305.49,619.87z M-325.6,631.13
		c-1.08-0.05-2.09,1.01-2.03,2.13c0.06,1.15,1.04,2.09,2.14,2.07c1.16-0.02,2.08-0.97,2.06-2.12
		C-323.45,632.16-324.47,631.18-325.6,631.13z"/>
</g>
</svg>
