<?xml version="1.0" encoding="utf-8"?>
<!-- Generator: Adobe Illustrator 25.4.1, SVG Export Plug-In . SVG Version: 6.00 Build 0)  -->
<svg version="1.1" xmlns="http://www.w3.org/2000/svg" xmlns:xlink="http://www.w3.org/1999/xlink" x="0px" y="0px"
	 viewBox="0 0 900 900" style="enable-background:new 0 0 900 900;" xml:space="preserve">
<style type="text/css">
	.st0{display:none;}
	.st1{display:inline;}
</style>
<g id="Layer_1" class="st0">
	<g class="st1">
		<path d="M450,572.4c-29.61,0-57.35-15.42-78.11-43.41c-20.43-27.54-31.68-64.09-31.68-102.9c0-16.74,2.1-33.15,6.24-48.78
			l0.98-3.72h3.85c43.62,0,74.41,0.06,99.15,0.11c37.45,0.08,62.18,0.13,98.25-0.11l3.88-0.03l0.99,3.75
			c4.14,15.63,6.23,32.05,6.23,48.78c0,38.81-11.25,75.35-31.68,102.9C507.35,556.99,479.61,572.4,450,572.4z M355.17,383.6
			c-3.29,13.68-4.96,27.95-4.96,42.5c0,75.16,44.76,136.3,99.79,136.3c55.02,0,99.79-61.15,99.79-136.3
			c0-14.54-1.67-28.81-4.96-42.48c-34.02,0.21-58.32,0.17-94.42,0.09C426.42,383.66,396.74,383.6,355.17,383.6z"/>
		<path d="M649.01,701.6c-2.76,0-5-2.24-5-5v-58.47c0-1.21-0.39-29.3-23.01-38.07l-137.59,53.56c-2.57,1-5.47-0.27-6.47-2.85
			c-0.23-0.6-0.34-1.21-0.34-1.82c0-2,1.21-3.89,3.19-4.65l132.89-51.73l-14.75-17.9c-0.04-0.05-0.09-0.11-0.13-0.16
			c-0.47-0.6-11.86-15.01-30.04-7.82l-54.37,40.97c-2.21,1.66-5.34,1.22-7-0.98c-0.68-0.9-1.01-1.96-1.01-3c0-1.52,0.69-3.02,1.99-4
			l50.62-38.15l-11.06-12.81c-0.12-0.14-0.24-0.29-0.35-0.45c-2.38-3.48-10.55-9.84-18.37-10.1c-4.31-0.15-7.88,1.57-10.88,5.23
			l-40.58,72.38c-0.77,1.38-2.15,2.31-3.71,2.51c-1.57,0.21-3.13-0.34-4.23-1.47c-5.91-6.07-23.03-12.29-37.65,0.05
			c-1.14,0.96-2.64,1.36-4.1,1.1c-1.46-0.26-2.73-1.16-3.47-2.45l-40.92-72.1c-2.99-3.67-6.54-5.38-10.88-5.24
			c-7.82,0.26-15.99,6.62-18.37,10.1c-0.11,0.16-0.22,0.31-0.35,0.45l-11.06,12.8l50.62,38.15c1.31,0.98,1.99,2.48,1.99,4
			c0,1.05-0.33,2.1-1.01,3c-1.66,2.21-4.8,2.65-7,0.98l-54.37-40.97c-18.35-7.25-29.56,7.2-30.04,7.82
			c-0.04,0.05-0.08,0.11-0.13,0.16l-14.75,17.9l132.89,51.73c1.98,0.77,3.19,2.66,3.19,4.65c0,0.61-0.11,1.22-0.34,1.82
			c-1,2.57-3.9,3.85-6.47,2.85L279,600.06c-22.62,8.76-23.01,36.86-23.01,38.08v58.46c0,2.76-2.24,5-5,5s-5-2.24-5-5v-58.47
			c0-1.52,0.35-36.76,30.12-47.67l18.2-22.08c5.4-7.06,20.04-17.93,38.9-11.97l12.13-14.04c4.07-5.75,14.69-13.82,26.11-14.2
			c7.63-0.24,14.3,2.97,19.3,9.33c0.15,0.2,0.29,0.41,0.42,0.62l38.34,67.57c14.97-9.47,31.37-6.41,41.4,0.06l37.9-67.6
			c0.13-0.23,0.27-0.44,0.43-0.65c5-6.36,11.7-9.57,19.3-9.33c11.43,0.38,22.04,8.45,26.11,14.2l12.13,14.04
			c18.86-5.96,33.5,4.9,38.9,11.97l18.2,22.08c29.77,10.9,30.12,46.15,30.12,47.67v58.47C654.01,699.36,651.77,701.6,649.01,701.6z"
			/>
		<path d="M450,699.89c-2.76,0-5-2.24-5-5v-23.35c0-2.76,2.24-5,5-5c2.76,0,5,2.24,5,5v23.35C455,697.66,452.76,699.89,450,699.89z"
			/>
		<path d="M450.19,676.54c-0.07,0-0.14,0-0.21,0c-16.35-0.08-30.6-10.24-36.28-25.87c-0.02-0.07-0.05-0.13-0.07-0.2
			c-4.82-15.2-0.73-30.58,10.94-41.14c2.05-1.85,5.21-1.69,7.06,0.36c1.85,2.05,1.69,5.21-0.35,7.06
			c-8.79,7.95-11.76,19.1-8.15,30.6c4.26,11.6,14.81,19.13,26.9,19.19c0.04,0,0.09,0,0.13,0c9.42,0,21.32-5.05,26.7-19.22
			c3.69-11.68,1.03-21.89-7.92-30.36c-2.01-1.9-2.09-5.06-0.19-7.07c1.9-2.01,5.06-2.09,7.07-0.19
			c11.83,11.2,15.47,25.31,10.53,40.79c-0.03,0.08-0.05,0.16-0.08,0.24C480.29,666.66,466.48,676.54,450.19,676.54z M481.6,648.96
			L481.6,648.96L481.6,648.96z"/>
		<path d="M560.54,203.4c2.24,0,4.65,0.64,7.11,2.1c9.2,5.99,6.28,19.4-3.01,22.24l0.11,86.34l0,0.33c3.29,0.39,4.82,1.68,4.82,7.95
			c0.11,9.23-8.21,7.64-8.81,7.95v25.28c0.29,0,0.62-0.01,0.99-0.01c2.9,0,7.82,0.49,7.82,8.79c0,10-7.48,8.49-8.65,8.78H337.13
			c-0.64-0.09-6.75,0.54-6.75-8.78c0-8.35,6.8-8.79,8.23-8.79c0.17,0,0.26,0.01,0.26,0.01l0.12-25.28c-5.72,0-8.61-0.67-8.61-7.95
			c0-7,2.99-7.95,4.82-7.95l-0.09-86.74c-14.1-5.83-8.7-24.25,3.88-24.25c1.36,0,2.8,0.21,4.3,0.68
			c9.75,3.26,11.28,16.81,3.03,22.03l42.03,88.28h12.27l42.26-88.25c-10.59-7.63-4.31-22.74,6.7-22.74c2.33,0,4.88,0.68,7.53,2.25
			c8.88,6.44,5.15,17.4,0,20.45l41.83,88.3h12.33l42.52-88.15C542.87,218.24,549.72,203.4,560.54,203.4 M560.54,193.4
			c-9.58,0-18.08,6.3-21.15,15.67c-2.14,6.53-1.14,13.35,2.48,18.92l-36.72,76.13l-36.13-76.26c2.01-3.28,3.25-7.17,3.43-11.17
			c0.35-7.54-3.1-14.51-9.45-19.12c-0.25-0.18-0.5-0.35-0.76-0.5c-4.08-2.42-8.33-3.65-12.63-3.65c-9.57,0-18.02,6.3-21.05,15.66
			c-2.11,6.54-1.14,13.32,2.42,18.83l-36.46,76.14l-36.21-76.07c2.68-4.22,3.86-9.38,3.22-14.72c-1.06-8.76-6.82-15.9-15.03-18.65
			c-0.07-0.02-0.14-0.05-0.22-0.07c-2.42-0.75-4.86-1.13-7.26-1.13c-10.71,0-19.67,7.5-21.8,18.23c-1.67,8.41,1.43,16.45,7.92,21.65
			l0.08,75.22c-0.21,0.21-0.41,0.43-0.61,0.65c-2.79,3.18-4.21,7.62-4.21,13.2c0,2.49,0,10.09,6.16,14.7
			c0.78,0.59,1.59,1.07,2.41,1.47l-0.05,9.72c-4.92,2.97-8.52,8.39-8.52,16.12c0,11.08,6.32,18.43,16.11,18.76
			c0.21,0.01,0.42,0.02,0.64,0.02h223.79c0.35,0,0.69-0.02,1.04-0.05c12.98-0.24,17.61-9.83,17.61-18.73
			c0-8.71-3.77-13.29-6.94-15.59c-0.62-0.45-1.25-0.84-1.88-1.17v-9.36c1.38-0.71,2.77-1.67,4.05-2.98
			c2.21-2.25,4.82-6.33,4.76-12.96c0-3.52-0.35-8.02-2.94-11.79c-0.56-0.82-1.19-1.55-1.89-2.21l-0.09-74.73
			c4.46-3.53,7.54-8.76,8.38-14.68c1.22-8.65-2.58-16.99-9.92-21.77c-0.11-0.07-0.22-0.14-0.33-0.21
			C568.86,194.59,564.74,193.4,560.54,193.4L560.54,193.4z"/>
		<path d="M450.09,358.47c-0.22,0-0.44,0-0.66-0.01c-12.12-0.24-22.75-7.41-27.52-18.19h-32.54c-4.06,5.1-9.93,8.08-16.28,8.03
			c-6.33-0.03-12.19-2.98-16.17-8.03h-17.93v-10h23.39l1.45,2.44c2.07,3.48,5.55,5.57,9.3,5.58c0.02,0,0.03,0,0.05,0
			c3.74,0,7.13-2.05,9.31-5.63l1.46-2.4h45.14l1.07,3.55c2.63,8.71,10.27,14.45,19.47,14.64c9.38,0.2,16.93-5.35,20.21-14.83
			l1.16-3.36h45.15l1.42,2.62c1.82,3.35,5.35,5.45,9.22,5.49c0.04,0,0.08,0,0.12,0c3.79,0,7.13-2.03,9.16-5.59l1.44-2.52h23.25v10
			h-17.67c-3.97,5.2-9.92,8.15-16.4,8.11c-6.44-0.07-12.41-3.11-16.21-8.11h-32.53C472.72,351.63,462.35,358.47,450.09,358.47z
			 M569.74,309.36c0-2.76-2.24-5-5-5h-22.49c-3.95-4.52-9.43-7.07-15.41-7.08c-0.01,0-0.02,0-0.03,0c-5.89,0-11.5,2.6-15.46,7.08
			h-33.83c-5.19-10.5-15.58-17.19-27.33-17.32c-11.88-0.13-22.23,6.43-27.73,17.32h-33.84c-3.91-4.49-9.54-7.11-15.51-7.11
			c0,0-0.01,0-0.01,0c-6.02,0-11.51,2.56-15.43,7.11H335.2c-2.76,0-5,2.24-5,5s2.24,5,5,5h27.63l1.48-2.24
			c2.05-3.1,5.26-4.87,8.79-4.87c0,0,0,0,0.01,0c3.55,0,6.87,1.82,8.88,4.87l1.48,2.24h45.66l1.24-3.19
			c3.48-8.94,10.87-14.19,19.72-14.13c8.74,0.09,16.37,5.6,19.45,14.03l1.2,3.28h45.69l1.49-2.19c2.12-3.11,5.35-4.89,8.89-4.89
			c0,0,0.01,0,0.02,0c3.52,0.01,6.74,1.78,8.83,4.88l1.49,2.2h27.6C567.51,314.36,569.74,312.12,569.74,309.36z"/>
	</g>
</g>
<g id="Layer_2" class="st0">
	<g class="st1">
		<path d="M591.25,657.03H308.76c-38.49,0-69.8-31.31-69.8-69.8v-242.4c0-38.49,31.31-69.8,69.8-69.8h4.12v-5.04
			c0-17.6,12.81-26.92,25.46-27.02c0.07,0,0.14,0,0.21,0c12.58,0,25.4,9.22,25.69,26.94v5.12h171.53v-5.15
			c0-17.57,13.06-26.76,25.97-26.76c12.62,0,25.39,9.19,25.39,26.76l0,5.15h4.12c38.49,0,69.8,31.31,69.8,69.8v242.4
			C661.04,625.72,629.73,657.03,591.25,657.03z M308.76,285.03c-32.97,0-59.8,26.83-59.8,59.8v242.4c0,32.97,26.83,59.8,59.8,59.8
			h282.49c32.97,0,59.8-26.83,59.8-59.8v-242.4c0-32.97-26.83-59.8-59.8-59.8h-14.12l0-15.15c0-11.58-7.73-16.76-15.39-16.76
			c-7.69,0-15.97,5.24-15.97,16.76v15.15H354.23v-15.04c-0.19-11.75-7.99-17.02-15.68-17.02c-0.05,0-0.09,0-0.14,0
			c-7.73,0.06-15.54,5.35-15.54,17.02v15.04H308.76z"/>
		<path d="M656.04,363.16H243.96v-10h412.09V363.16z M356.14,310.62c3.69-3.35,8.09-9.47,8.09-19.55v-11.04h-10v11.04
			c0,5.08-1.67,9.28-4.82,12.15c-2.82,2.56-6.67,3.98-10.84,3.98c-7.82,0-15.7-4.99-15.7-16.13v-11.04h-10v11.04
			c0,17.15,12.93,26.13,25.7,26.13C345.24,317.2,351.48,314.87,356.14,310.62z M579.04,310.62c3.69-3.35,8.09-9.47,8.09-19.55
			v-11.04h-10v11.04c0,5.08-1.67,9.28-4.82,12.15c-2.82,2.56-6.67,3.98-10.84,3.98c-7.82,0-15.7-4.99-15.7-16.13v-11.04h-10v11.04
			c0,17.15,12.93,26.13,25.7,26.13C568.13,317.2,574.37,314.87,579.04,310.62z"/>
		<path d="M450,579.99c-41.3,0-74.89-33.6-74.89-74.89S408.7,430.2,450,430.2s74.89,33.6,74.89,74.89S491.3,579.99,450,579.99z
			 M450,440.2c-35.78,0-64.89,29.11-64.89,64.89c0,35.78,29.11,64.89,64.89,64.89c35.78,0,64.89-29.11,64.89-64.89
			C514.89,469.31,485.78,440.2,450,440.2z"/>
		<path d="M449.52,387.82c6.04,18.62,24.42,30.43,43.09,30.43c8.78,0,17.63-2.62,25.28-8.37c-8.95,27.31,11.87,57.98,41.35,57.98
			c0.53,0,1.06-0.01,1.59-0.03c0,0,0.01,0,0.01,0c-24.58,17.24-25.18,55.53,0.59,72.36c0,0-0.01,0-0.01,0
			c-0.63-0.03-1.26-0.04-1.89-0.04c-30,0-50.3,30.99-41.17,58.13c0,0,0,0.01,0,0.01c-7.77-5.95-16.85-8.71-25.85-8.71
			c-19,0-37.65,12.28-42.94,32.78c-5.2-21.08-23.46-32.99-42.17-32.99c-9.23,0-18.58,2.91-26.51,9.05
			c10.96-29.01-12.83-58.42-41.99-58.42c-0.13,0-0.26,0-0.39,0c23.9-16.81,24.85-54.93,0.58-72.14c0.09,0,0.18,0,0.27,0
			c28.93,0,51.51-30.01,41-58.91c7.81,5.95,17.23,8.76,26.62,8.76C425.35,417.73,443.58,406.99,449.52,387.82 M560.85,467.83
			L560.85,467.83 M449.53,377.82c-0.02,0-0.04,0-0.06,0c-4.36,0.03-8.2,2.87-9.49,7.04c-4.9,15.8-20.08,22.87-32.95,22.87
			c-7.68,0-14.79-2.32-20.56-6.72c-1.79-1.36-3.92-2.04-6.06-2.04c-2.08,0-4.16,0.65-5.93,1.95c-3.57,2.63-4.99,7.3-3.47,11.47
			c3.76,10.33,2.21,21.55-4.24,30.77c-6.46,9.22-16.68,14.72-27.36,14.72l-0.21,0c-0.02,0-0.04,0-0.06,0c-4.34,0-8.19,2.8-9.52,6.93
			c-1.34,4.15,0.17,8.7,3.73,11.22c8.64,6.13,13.59,16.14,13.56,27.48c-0.02,11.53-5.3,22.12-14.11,28.32
			c-3.58,2.52-5.11,7.07-3.77,11.24c1.33,4.14,5.18,6.94,9.52,6.94c0.03,0,0.06,0,0.09,0l0.3,0c11.2,0,22.25,5.91,28.82,15.42
			c6.14,8.88,7.53,19.62,3.81,29.46c-1.58,4.19-0.19,8.92,3.41,11.58c1.77,1.31,3.86,1.96,5.94,1.96c2.16,0,4.32-0.7,6.12-2.09
			c5.87-4.55,12.92-6.95,20.38-6.95c13.04,0,28.13,7.85,32.46,25.39c1.1,4.45,5.08,7.58,9.66,7.61c0.02,0,0.04,0,0.05,0
			c4.56,0,8.54-3.08,9.68-7.5c3.84-14.88,17.51-25.28,33.25-25.28c7.25,0,14.09,2.3,19.77,6.65c1.79,1.37,3.93,2.06,6.08,2.06
			c1.96,0,3.93-0.58,5.63-1.73c3.56-2.43,5.17-6.87,3.99-11.01c-0.05-0.16-0.1-0.32-0.15-0.48c-3.42-10.19-1.52-21.75,5.08-30.93
			c6.39-8.89,16.09-13.99,26.62-13.99c0.47,0,0.95,0.01,1.43,0.03c0.05,0,0.1,0,0.15,0.01c0.11,0,0.21,0.01,0.32,0.01
			c4.35,0,8.22-2.82,9.54-7c1.35-4.28-0.32-8.93-4.07-11.38c-9.12-5.96-14.46-15.82-14.64-27.07c-0.19-11.52,5.12-22.22,14.2-28.65
			c2.64-1.8,4.38-4.83,4.38-8.27c0-5.43-4.33-9.85-9.73-10c-0.09,0-0.18,0-0.27,0c-0.07,0-0.14,0-0.21,0c-0.08,0-0.17,0-0.25,0.01
			c-0.38,0.01-0.77,0.02-1.15,0.02c-10.43,0-20.12-5.12-26.58-14.03c-6.63-9.15-8.6-20.68-5.27-30.83c1.36-4.15-0.13-8.7-3.68-11.25
			c-1.74-1.25-3.78-1.87-5.82-1.87c-2.12,0-4.24,0.67-6.01,2.01c-5.53,4.16-12.19,6.36-19.26,6.36c-15.28,0-29.09-9.67-33.57-23.51
			C457.7,380.61,453.86,377.82,449.53,377.82L449.53,377.82z"/>
		<path d="M409.74,510.85c-2.76,0-5-2.24-5-5v-6.89c0-2.76,2.24-5,5-5s5,2.24,5,5v6.89C414.74,508.61,412.51,510.85,409.74,510.85z
			 M495.25,505.85v-6.89c0-2.76-2.24-5-5-5s-5,2.24-5,5v6.89c0,2.76,2.24,5,5,5S495.25,508.61,495.25,505.85z M464.47,512.88
			c2.5-1.18,3.57-4.16,2.39-6.66c-1.18-2.5-4.16-3.57-6.66-2.39c-6.66,3.14-14.89,3.23-20.01,0.21c-2.38-1.4-5.44-0.6-6.84,1.78
			c-1.4,2.38-0.6,5.44,1.78,6.84c4.03,2.37,9.06,3.56,14.29,3.56C454.48,516.23,459.74,515.11,464.47,512.88z"/>
	</g>
</g>
<g id="Layer_3">
	<g>
		<g>
			<path d="M306.66,343.32c2.15-9.15,5.1-18.09,8.63-26.8c0.21-0.52,0.42-1.03,0.63-1.55c0.04-0.09,0.75-1.79,0.26-0.63
				c0.36-0.86,0.73-1.71,1.1-2.56c0.97-2.22,1.97-4.43,2.99-6.62c1.99-4.27,3.92-8.58,6.49-12.53c5.14-7.91,9.85-16.17,15.67-23.62
				c-0.62,0.79,0.45-0.54,0.46-0.55c0.33-0.4,0.66-0.8,0.99-1.19c0.66-0.79,1.33-1.57,2.01-2.34c1.45-1.66,2.94-3.28,4.47-4.87
				c2.77-2.88,5.67-5.64,8.67-8.28c1.48-1.3,3-2.57,4.53-3.81c0.38-0.31,0.77-0.62,1.15-0.92c0.16-0.13,1.47-1.13,0.34-0.27
				c0.91-0.7,1.82-1.38,2.75-2.06c3.16-2.31,6.41-4.49,9.74-6.55c6.91-4.28,14.14-8.02,21.58-11.3c0.84-0.37,1.67-0.73,2.51-1.09
				c-1.37,0.58,0.34-0.14,0.48-0.2c0.53-0.22,1.06-0.44,1.6-0.65c2.3-0.93,4.62-1.79,6.97-2.58c4.47-1.52,9.03-2.79,13.63-3.83
				c2.02-0.46,4.04-0.87,6.08-1.23c1.11-0.2,2.22-0.39,3.33-0.56c0.56-0.09,1.11-0.17,1.67-0.25c0.37-0.05,0.74-0.11,1.12-0.16
				c-0.66,0.09-0.64,0.09,0.08,0c4.68-0.54,9.36-0.94,14.07-1.1c9.32-0.31,18.65,0.2,27.9,1.35c0.11,0.01,1.99,0.26,0.69,0.09
				c0.56,0.08,1.11,0.16,1.66,0.25c1.04,0.17,2.07,0.36,3.1,0.56c2.21,0.42,4.41,0.89,6.61,1.41c3.98,0.94,7.93,2.03,11.83,3.28
				c4.01,1.29,7.98,2.74,11.88,4.34c0.18,0.07,1.74,0.73,0.43,0.17c0.46,0.2,0.93,0.4,1.39,0.6c0.93,0.4,1.85,0.82,2.77,1.24
				c1.84,0.84,3.66,1.72,5.47,2.63c7.65,3.84,15.02,8.24,22.11,13.04c3.51,2.38,6.95,4.85,10.33,7.4c0.43,0.32,0.86,0.65,1.28,0.98
				c1.4,1.06-0.78-0.67,0.04,0.03c0.41,0.35,0.83,0.68,1.23,1.03c0.96,0.84,1.88,1.74,2.77,2.65c1.9,1.96,3.68,4.04,5.39,6.17
				c0.23,0.29,0.46,0.58,0.69,0.87c0.08,0.1,0.15,0.2,0.23,0.29c0.39,0.5,0.31,0.39-0.25-0.32c0.1,0.53,1.06,1.4,1.39,1.84
				c1.02,1.38,2.03,2.79,3.01,4.2c7.39,10.65,14,22.01,19.36,33.82c0.27,0.6,0.54,1.19,0.8,1.79c0.13,0.29,0.25,0.58,0.37,0.87
				c-0.78-1.74-0.29-0.7-0.13-0.31c0.45,1.12,0.9,2.25,1.31,3.39c1.08,3.03,2.11,6.1,3.07,9.17c2.82,8.99,4.82,18.22,6.15,27.54
				c-0.01-0.07,0.24,1.76,0.12,0.88c-0.12-0.88,0.12,0.95,0.11,0.88c0.14,1.12,0.27,2.24,0.39,3.36c0.26,2.43,0.48,4.87,0.66,7.3
				c0.34,4.69,0.54,9.39,0.61,14.09c0.14,9.18-0.21,18.37-0.9,27.52c-0.33,4.44-0.75,8.87-1.23,13.3c-0.34,3.13,3,6.13,6,6
				c3.54-0.16,5.64-2.65,6-6c2.02-18.69,2.91-37.56,1.41-56.32c-1.41-17.65-4.92-35.06-11.1-51.67
				c-4.47-12.03-10.9-23.47-17.74-34.28c-3.79-5.98-7.85-11.79-12.31-17.29c-3.91-4.82-8.16-8.78-13.12-12.5
				c-14.11-10.61-29.26-19.62-45.64-26.26c-16.95-6.88-34.83-10.52-53.09-11.33c-19.32-0.86-39.01,1.48-57.31,7.85
				c-16.19,5.64-31.89,13.7-45.65,23.94c-6.92,5.15-13.46,10.78-19.41,17.03c-6.68,7.01-12.39,14.75-17.61,22.89
				c-2.57,4.01-5.06,8.07-7.66,12.05c-2.56,3.92-4.44,8.31-6.41,12.56c-4.1,8.83-7.86,17.86-10.86,27.13
				c-1.43,4.41-2.67,8.88-3.73,13.4c-0.72,3.05,0.95,6.64,4.19,7.38C302.35,348.21,305.89,346.59,306.66,343.32L306.66,343.32z"/>
			<path d="M279.21,370.84c-19.84,32.95-45.97,61.52-66.46,94.04c-19.72,31.31-34.96,66.97-36.22,104.41
				c-1.19,35.45,11.94,70.98,36.36,96.77c23.62,24.95,56.6,38.99,90.12,44.3c38.22,6.05,78.49,5.04,115.56-6.77
				c4.78-1.52,9.47-3.35,14.02-5.46c2.86-1.32,3.79-5.66,2.15-8.21c-1.9-2.94-5.15-3.57-8.21-2.15c-0.56,0.26-1.11,0.51-1.68,0.76
				c0.01-0.01-1.84,0.78-0.82,0.36c-1.13,0.47-2.28,0.91-3.43,1.34c-2.28,0.85-4.6,1.61-6.92,2.32c-4.37,1.34-8.78,2.53-13.23,3.57
				c-4.48,1.05-9,1.95-13.54,2.72c-2.28,0.38-4.56,0.73-6.85,1.05c-1.14,0.16,1.42-0.17-0.5,0.06c-0.6,0.07-1.2,0.15-1.8,0.22
				c-1.4,0.17-2.8,0.33-4.21,0.47c-18.62,1.91-37.46,1.7-56.06-0.35c-0.99-0.11-1.98-0.22-2.96-0.34c-0.59-0.07-1.18-0.14-1.77-0.22
				c-0.07-0.01-2.01-0.27-0.76-0.1c-2.29-0.31-4.57-0.65-6.84-1.02c-4.01-0.66-8-1.43-11.96-2.34c-8.07-1.84-16.02-4.2-23.74-7.16
				c-0.98-0.38-1.96-0.76-2.94-1.16c-0.32-0.13-0.65-0.27-0.97-0.4c-1.62-0.66,1.1,0.48-0.5-0.21c-1.93-0.84-3.84-1.69-5.74-2.6
				c-3.7-1.77-7.34-3.7-10.88-5.78c-3.54-2.08-6.99-4.32-10.33-6.72c-0.71-0.51-1.42-1.03-2.12-1.55c-0.42-0.32-0.84-0.63-1.26-0.95
				c1.05,0.81-0.33-0.27-0.44-0.36c-1.65-1.31-3.27-2.67-4.86-4.07c-3.06-2.7-6-5.55-8.78-8.54c-1.48-1.6-2.92-3.23-4.32-4.9
				c-0.58-0.7-1.16-1.4-1.73-2.11c-0.34-0.43-0.68-0.85-1.01-1.28c0.75,0.97-0.58-0.78-0.71-0.95c-4.96-6.67-9.24-13.84-12.8-21.36
				c-0.46-0.98-0.91-1.96-1.35-2.95c-0.22-0.49-0.43-0.99-0.65-1.49c0.45,1.05-0.02-0.05-0.12-0.31c-0.85-2.08-1.65-4.19-2.4-6.31
				c-1.37-3.91-2.55-7.89-3.54-11.91c-0.99-4.03-1.79-8.11-2.39-12.21c-0.02-0.17-0.26-1.95-0.08-0.55
				c-0.07-0.54-0.14-1.08-0.2-1.61c-0.11-0.9-0.2-1.8-0.29-2.7c-0.21-2.16-0.36-4.33-0.46-6.5c-0.2-4.35-0.18-8.72,0.06-13.07
				c0.12-2.1,0.28-4.2,0.48-6.3c0.1-1.06,0.22-2.11,0.34-3.17c0.06-0.48,0.12-0.96,0.18-1.44c0.09-0.72,0.1-0.77,0.02-0.13
				c0.05-0.38,0.11-0.76,0.16-1.15c1.32-8.96,3.4-17.8,6.09-26.44c1.32-4.24,2.79-8.43,4.38-12.57c0.76-1.98,1.56-3.96,2.38-5.92
				c-0.46,1.11,0.28-0.65,0.3-0.7c0.23-0.53,0.46-1.07,0.69-1.6c0.47-1.06,0.94-2.12,1.42-3.18c3.78-8.27,8.02-16.32,12.61-24.16
				c18.85-32.2,43.89-60.1,64.42-91.16c2.56-3.87,5.04-7.79,7.43-11.76c1.62-2.69,0.69-6.71-2.15-8.21
				C284.52,367.15,280.94,367.97,279.21,370.84L279.21,370.84z"/>
			<path d="M702.67,630.16c12.6-12.33,25.1-24.81,34.77-39.65c9.5-14.57,15.97-30.94,18.44-48.19c4.98-34.78-4.64-70.72-28.18-97.11
				c-22.06-24.73-54.88-39.84-88.02-40.33c-19-0.28-37.64,4.56-55.67,10.04c-9.1,2.77-18.16,5.71-27.32,8.27
				c-8.9,2.49-18.75,4.81-27.37,5.85c-19.89,2.4-39.99,1.05-59.94,2.63c-9.87,0.78-19.76,2.2-29.26,5.05
				c-8.09,2.43-15.96,5.82-23.32,9.98c-30.59,17.27-52.18,47.28-61.8,80.77c-5.17,17.99-7.12,36.99-6.18,55.67
				c1,19.66,4.8,39.44,14.12,56.95c17.23,32.36,49.51,53.32,83.44,64.9c18.78,6.41,38.54,10.52,58.26,12.62
				c20.74,2.2,41.35,0.64,61.54-4.58c34.37-8.89,67.07-24.82,95.37-46.2c7.12-5.38,14.02-11.01,20.76-16.86
				c2.38-2.06,2.27-6.4,0-8.49c-2.53-2.33-5.95-2.2-8.49,0c-12.8,11.12-25.09,20.63-39.71,29.66c-6.87,4.24-13.95,8.15-21.21,11.71
				c-7.87,3.86-14.44,6.68-22.35,9.69c-8.92,3.39-17.98,6.42-27.21,8.83c-9.51,2.48-18.84,4.22-28.3,4.92
				c-19.81,1.46-39.07-1.16-58.27-5.36c-18.06-3.96-35.58-9.5-51.64-17.88c-7.36-3.84-15.18-8.72-21.31-13.5
				c-5.82-4.53-12.23-10.52-17.43-16.49c-2.89-3.32-4.37-5.21-6.82-8.76c-2.33-3.38-4.48-6.89-6.4-10.52
				c-4.12-7.8-6.84-15.67-8.9-24.67c-3.95-17.29-4.64-35.87-2.62-53.94c0.07-0.66,0.16-1.32,0.23-1.99
				c0.01-0.07,0.15-1.16,0.04-0.39c0.15-1.1,0.31-2.2,0.48-3.3c0.36-2.3,0.78-4.6,1.24-6.88c0.9-4.45,2-8.87,3.29-13.22
				c2.58-8.68,5.47-15.94,9.57-23.77c1.96-3.75,4.1-7.4,6.42-10.93c0.96-1.47,1.96-2.92,2.98-4.34c1.48-2.06,2.08-2.85,3.31-4.38
				c4.95-6.16,10.47-11.86,16.49-16.98c0.67-0.57,1.34-1.13,2.02-1.68c0.45-0.37,0.91-0.73,1.37-1.1c0.11-0.09,0.89-0.7,0.17-0.14
				c1.69-1.31,3.43-2.56,5.19-3.76c3.2-2.19,6.52-4.22,9.92-6.08c1.7-0.93,3.43-1.81,5.18-2.64c0.87-0.42,1.75-0.82,2.64-1.22
				c0.35-0.16,0.71-0.31,1.06-0.47c1.26-0.55-0.46,0.17,0.71-0.3c3.71-1.46,7.45-2.79,11.29-3.86c18.37-5.12,37.51-4.75,56.78-5.11
				c9.58-0.18,19.17-0.53,28.69-1.75c9.64-1.24,19.11-3.32,28.48-5.92c17.85-4.94,35.28-11.42,53.44-15.22
				c15.85-3.32,32.52-3.81,47.78-0.41c3.76,0.84,7.48,1.87,11.14,3.08c1.83,0.61,3.65,1.26,5.45,1.95c0.9,0.35,1.8,0.71,2.69,1.08
				c-0.89-0.37,0.02,0.01,0.17,0.07c0.62,0.27,1.24,0.54,1.85,0.82c7.12,3.23,13.91,7.16,20.26,11.73c0.78,0.56,1.55,1.14,2.33,1.72
				c1.48,1.11-0.48-0.38,0.39,0.3c0.38,0.3,0.76,0.6,1.13,0.9c1.5,1.21,2.97,2.46,4.41,3.74c3.02,2.69,5.89,5.55,8.6,8.55
				c1.16,1.29,2.29,2.6,3.39,3.94c0.37,0.45,0.73,0.9,1.09,1.35c0.74,0.92,0.29,0.36,0.13,0.15c0.71,0.91,1.39,1.85,2.07,2.79
				c2.29,3.2,4.41,6.53,6.34,9.96c4.2,7.5,6.75,13.72,9.14,22.08c1.11,3.9,2.02,7.85,2.72,11.84c0.18,1,0.34,2,0.49,3
				c0.06,0.4,0.12,0.8,0.17,1.2c-0.16-1.21,0.09,0.77,0.09,0.82c0.24,2.01,0.42,4.03,0.55,6.06c0.28,4.25,0.32,8.51,0.14,12.77
				c-0.08,1.82-0.2,3.64-0.36,5.46c-0.09,1.01-0.19,2.02-0.31,3.02c-0.07,0.6-0.14,1.21-0.22,1.81c0.14-1.04-0.1,0.64-0.13,0.81
				c-1.24,8.1-3.34,16.08-6.3,23.73c-1.26,3.25-2.83,6.67-4.84,10.43c-2.02,3.77-4.23,7.44-6.6,11c-1.14,1.71-2.32,3.4-3.54,5.06
				c-0.6,0.82-1.21,1.63-1.82,2.44c0.16-0.21,0.57-0.72-0.17,0.22c-0.37,0.47-0.75,0.95-1.12,1.42c-2.57,3.2-5.27,6.3-8.05,9.32
				c-5.62,6.11-11.57,11.91-17.5,17.71c-2.25,2.2-2.37,6.31,0,8.49C696.6,632.37,700.27,632.5,702.67,630.16L702.67,630.16z"/>
			<path d="M310.62,621.36c-4.4-8.47-12.03-15.4-20.16-20.24c-8.01-4.77-16.97-7.56-26.22-8.54c-5.21-0.55-10.37-0.26-15.54,0.51
				c-1.38,0.21-2.91,1.61-3.59,2.76c-0.75,1.29-1.07,3.18-0.6,4.62c0.47,1.45,1.37,2.85,2.76,3.59c1.52,0.8,2.94,0.86,4.62,0.6
				c1.07-0.16-0.32,0.07-0.42,0.05c0.18,0.04,0.63-0.08,0.78-0.1c0.46-0.05,0.91-0.1,1.37-0.14c0.98-0.09,1.96-0.15,2.95-0.18
				c2.03-0.07,4.07-0.02,6.1,0.14c0.46,0.04,0.92,0.08,1.37,0.12c0.4,0.04,2.19,0.33,0.36,0.02c0.97,0.16,1.95,0.3,2.92,0.48
				c2,0.38,3.98,0.87,5.93,1.47c0.88,0.27,1.75,0.56,2.62,0.87c0.49,0.18,0.99,0.36,1.48,0.55c0.18,0.07,0.37,0.14,0.55,0.22
				c1.02,0.41,0.19-0.15-0.16-0.08c0.29-0.06,0.97,0.43,1.26,0.56c0.42,0.19,0.83,0.39,1.25,0.59c0.94,0.46,1.88,0.95,2.79,1.46
				c1.78,0.99,3.5,2.08,5.16,3.26c0.37,0.27,0.74,0.54,1.11,0.81c0.3,0.22,0.74,0.72-0.28-0.22c0.14,0.13,0.31,0.25,0.46,0.37
				c0.82,0.66,1.62,1.34,2.4,2.04c1.75,1.58,3.4,3.28,4.9,5.09c0.18,0.22,0.36,0.45,0.54,0.67c0.53,0.63-0.85-1.17-0.02-0.02
				c0.33,0.46,0.67,0.93,0.99,1.4c0.72,1.07,1.36,2.18,1.96,3.32c1.45,2.79,5.58,3.85,8.21,2.15
				C311.31,627.73,312.17,624.34,310.62,621.36L310.62,621.36z"/>
			<path d="M312.76,497.72c-8.34-15.74-23.99-27.89-41.46-31.61c-6.22-1.32-12.75-1.61-18.9,0.24c-3,0.9-5.2,4.25-4.19,7.38
				c0.98,3.03,4.16,5.16,7.38,4.19c1.09-0.33,2.19-0.54,3.3-0.77c0.85-0.18-1.12,0.1-0.25,0.03c0.22-0.02,0.45-0.05,0.67-0.07
				c0.68-0.06,1.35-0.09,2.03-0.1c1.14-0.02,2.27,0.03,3.4,0.13c0.3,0.03,0.6,0.06,0.91,0.09c0.15,0.01,0.93,0.1,0.11,0.01
				c-0.87-0.1,0.12,0.03,0.33,0.06c0.38,0.06,0.75,0.13,1.12,0.2c2.04,0.39,4.06,0.92,6.04,1.56c0.91,0.29,1.8,0.61,2.69,0.95
				c0.42,0.16,0.83,0.32,1.24,0.49c0.96,0.38-0.27-0.1-0.38-0.16c0.28,0.15,0.58,0.26,0.87,0.39c3.59,1.62,7,3.63,10.18,5.95
				c0.15,0.11,0.31,0.23,0.46,0.34c0.87,0.63-0.29-0.17-0.31-0.25c0.05,0.24,0.97,0.77,1.19,0.95c0.79,0.64,1.55,1.31,2.3,2
				c1.41,1.28,2.75,2.64,4.02,4.06c0.72,0.8,1.42,1.63,2.09,2.47c0.14,0.18,0.72,0.8,0.12,0.14c-0.64-0.71,0.09,0.13,0.22,0.3
				c0.3,0.41,0.6,0.82,0.89,1.24c1.31,1.88,2.49,3.83,3.56,5.85c1.47,2.78,5.56,3.86,8.21,2.15
				C313.43,504.11,314.33,500.69,312.76,497.72L312.76,497.72z"/>
			<path d="M414.55,400.72c-9.21-13.78-22.54-26.14-39.48-28.87c-5.31-0.86-10.43-0.87-15.72,0.12c-3.09,0.58-5.13,4.48-4.19,7.38
				c1.07,3.31,4.07,4.81,7.38,4.19c0.35-0.07,0.95-0.05,1.27-0.22c-0.01,0-1.23,0.14-0.54,0.07c0.21-0.02,0.42-0.05,0.64-0.07
				c0.99-0.1,1.98-0.16,2.98-0.17c0.85-0.01,1.71,0,2.56,0.05c0.5,0.03,0.99,0.06,1.49,0.11c0.21,0.02,0.42,0.04,0.64,0.06
				c0.81,0.08,0.01,0.06-0.32-0.05c0.78,0.26,1.72,0.28,2.53,0.45c0.98,0.21,1.95,0.45,2.91,0.73c0.83,0.24,1.65,0.5,2.46,0.79
				c0.41,0.14,0.81,0.29,1.21,0.45c0.2,0.08,0.4,0.16,0.6,0.24c0.78,0.29-1.34-0.61-0.05-0.02c3.28,1.49,6.38,3.3,9.28,5.45
				c0.15,0.11,0.33,0.29,0.5,0.37c-0.13-0.07-1.06-0.84-0.23-0.17c0.32,0.26,0.65,0.52,0.97,0.79c0.69,0.58,1.37,1.17,2.03,1.78
				c1.33,1.22,2.61,2.49,3.84,3.81c0.71,0.77,1.4,1.55,2.07,2.34c0.6,0.7,1.15,1.67,1.85,2.27c-0.01-0.01-0.7-0.92-0.3-0.39
				c0.17,0.22,0.34,0.44,0.5,0.67c0.29,0.39,0.58,0.78,0.86,1.18c0.65,0.9,1.28,1.82,1.9,2.74c1.74,2.61,5.37,3.98,8.21,2.15
				C414.99,407.25,416.42,403.51,414.55,400.72L414.55,400.72z"/>
			<path d="M397.38,263.94c-16-6.99-32.83-11.26-50.25-12.62c-3.14-0.25-6.14,2.94-6,6c0.16,3.46,2.64,5.74,6,6
				c1.99,0.16,3.98,0.35,5.97,0.58c0.53,0.06,1.07,0.13,1.6,0.2c0.46,0.06,0.31,0.04-0.45-0.06c0.3,0.04,0.61,0.09,0.91,0.13
				c0.91,0.13,1.83,0.27,2.74,0.42c3.95,0.65,7.87,1.46,11.74,2.43c3.88,0.97,7.72,2.1,11.5,3.38c1.89,0.64,3.77,1.32,5.64,2.04
				c0.86,0.33,1.72,0.67,2.57,1.02c0.43,0.17,0.86,0.35,1.28,0.53c-1.47-0.64,0.42,0.19,0.69,0.3c1.53,0.67,2.94,1.07,4.62,0.6
				c1.39-0.38,2.9-1.46,3.59-2.76C400.9,269.56,400.45,265.29,397.38,263.94L397.38,263.94z"/>
			<path d="M536.73,316.44c-9.92-11.65-20.39-23.6-33.97-31.08c-4.04-2.23-8.36-4.04-12.81-5.3c-3.02-0.85-6.66,1.05-7.38,4.19
				c-0.73,3.19,0.96,6.47,4.19,7.38c1.77,0.5,3.51,1.08,5.21,1.77c0.18,0.07,0.36,0.15,0.54,0.22c0.62,0.25-0.55-0.23-0.53-0.22
				c0.38,0.22,0.84,0.37,1.24,0.56c0.82,0.38,1.64,0.79,2.44,1.21c3.23,1.7,6.3,3.7,9.21,5.89c0.16,0.12,0.31,0.25,0.47,0.36
				c0.01,0.01-0.95-0.75-0.44-0.33c0.36,0.29,0.72,0.57,1.08,0.86c0.72,0.58,1.43,1.18,2.13,1.78c1.41,1.21,2.78,2.47,4.13,3.76
				c2.66,2.55,5.21,5.21,7.69,7.94c2.83,3.11,5.57,6.3,8.3,9.5c2.04,2.4,6.41,2.26,8.49,0C539.07,322.37,538.91,319,536.73,316.44
				L536.73,316.44z"/>
			<path d="M538.81,427.36c-3.32-7.07-7.98-13.61-13.56-19.09c-5.84-5.74-13.23-10.61-21.71-10.52c-3.14,0.03-6.15,2.74-6,6
				c0.14,3.22,2.64,6.03,6,6c0.4,0,0.8,0,1.21,0.02c1.52,0.08,0.03,0.13-0.01-0.05c0.01,0.07,2.14,0.47,2.32,0.53
				c0.38,0.11,0.76,0.24,1.13,0.38c0.25,0.09,0.5,0.19,0.75,0.29c-0.23-0.1-0.46-0.19-0.7-0.29c0.28-0.13,1.89,0.96,2.16,1.11
				c0.71,0.41,1.4,0.85,2.07,1.31c0.27,0.19,0.8,0.44,1,0.72c-0.67-0.52-0.75-0.58-0.24-0.18c0.11,0.09,0.21,0.17,0.32,0.26
				c1.34,1.1,2.6,2.28,3.82,3.51c1.2,1.22,2.35,2.48,3.45,3.79c0.27,0.33,0.54,0.66,0.81,0.99c0.13,0.17,0.27,0.33,0.4,0.5
				c-0.46-0.6-0.55-0.72-0.29-0.37c0.51,0.69,1.02,1.37,1.5,2.08c1.99,2.87,3.72,5.9,5.2,9.06c1.34,2.85,5.65,3.8,8.21,2.15
				C539.59,433.68,540.24,430.41,538.81,427.36L538.81,427.36z"/>
			<path d="M412.81,513.87c-0.13-8.04-0.89-16.05-4.15-23.48c-2.69-6.13-7.61-11.87-13.86-14.52c-1.55-0.66-2.92-1.07-4.62-0.6
				c-1.39,0.38-2.9,1.46-3.59,2.76c-1.36,2.57-0.93,6.9,2.15,8.21c1.28,0.54,2.42,1.23,3.58,1.98c1.09,0.71-1.02-0.88-0.03-0.04
				c0.28,0.24,0.57,0.48,0.84,0.73c0.46,0.42,0.9,0.86,1.32,1.32c0.25,0.28,0.5,0.56,0.74,0.85c0.12,0.14,0.24,0.29,0.36,0.44
				c0.28,0.35,0.16,0.19-0.36-0.47c-0.05,0.12,0.96,1.38,1.07,1.56c0.4,0.64,0.78,1.3,1.13,1.97c0.15,0.28,0.29,0.56,0.42,0.85
				c0.1,0.21,0.52,1.44,0.24,0.49c-0.28-0.94,0.04,0.12,0.12,0.33c0.15,0.4,0.3,0.81,0.43,1.21c0.27,0.79,0.5,1.59,0.71,2.4
				c0.42,1.62,0.72,3.25,0.97,4.9c0.12,0.76-0.13-1.19-0.01-0.01c0.05,0.45,0.1,0.91,0.14,1.36c0.08,0.84,0.14,1.67,0.19,2.51
				c0.1,1.75,0.15,3.5,0.18,5.26c0.05,3.14,2.72,6.15,6,6C410.02,519.73,412.87,517.23,412.81,513.87L412.81,513.87z"/>
			<path d="M477.82,615.17c-3.96-14.08-12.82-26.26-24.6-34.84c-3.09-2.25-6.4-4.17-9.87-5.75c-1.51-0.69-2.97-1.06-4.62-0.6
				c-1.39,0.38-2.9,1.46-3.59,2.76c-1.39,2.63-0.9,6.82,2.15,8.21c2.9,1.32,5.69,2.88,8.34,4.67c0.62,0.42,1.23,0.85,1.84,1.3
				c0.18,0.13,1.19,0.9,0.44,0.32c-0.74-0.57,0.37,0.3,0.57,0.46c1.26,1.03,2.48,2.11,3.65,3.24c1.13,1.09,2.21,2.22,3.25,3.39
				c0.54,0.61,1.07,1.23,1.58,1.86c0.24,0.29,0.46,0.6,0.7,0.88c0.02,0.02-0.75-1-0.37-0.47c0.15,0.2,0.3,0.4,0.45,0.6
				c1.89,2.57,3.58,5.29,5.03,8.13c0.4,0.78,0.78,1.57,1.14,2.37c0.11,0.23,0.67,1.54,0.3,0.66c-0.37-0.88,0.17,0.44,0.26,0.67
				c0.68,1.75,1.27,3.53,1.78,5.34c0.85,3.02,4.29,5.19,7.38,4.19C476.71,621.56,478.73,618.41,477.82,615.17L477.82,615.17z"/>
			<path d="M612.69,525.6c1.53-15.75-7.34-32.01-21.17-39.57c-2.75-1.51-6.67-0.77-8.21,2.15c-1.48,2.81-0.79,6.6,2.15,8.21
				c0.75,0.41,1.49,0.85,2.21,1.31c0.69,0.44,1.37,1.14,2.1,1.48c-0.21-0.16-0.42-0.32-0.64-0.49c0.19,0.15,0.38,0.31,0.57,0.46
				c0.33,0.27,0.65,0.56,0.97,0.84c0.59,0.53,1.16,1.08,1.72,1.66c0.6,0.62,1.17,1.25,1.72,1.91c0.23,0.28,0.45,0.58,0.69,0.86
				c-1.14-1.31-0.19-0.23,0.05,0.11c0.96,1.35,1.84,2.76,2.61,4.22c0.4,0.76,0.76,1.54,1.12,2.32c0.49,1.05-0.47-1.24-0.04-0.08
				c0.13,0.34,0.27,0.69,0.39,1.03c0.58,1.61,1.05,3.27,1.4,4.94c0.15,0.71,0.19,1.47,0.38,2.17c-0.48-1.77-0.05-0.3,0,0.23
				c0.03,0.37,0.06,0.73,0.08,1.1c0.1,1.71,0.05,3.43-0.12,5.14c-0.3,3.13,2.98,6.14,6,6C610.2,531.44,612.36,528.96,612.69,525.6
				L612.69,525.6z"/>
			<path d="M656.47,443.15c-3.47-13.01-10.78-25.05-20.83-34.04c-2.34-2.09-6.21-2.48-8.49,0c-2.1,2.29-2.5,6.25,0,8.49
				c2.27,2.03,4.4,4.21,6.37,6.55c0.45,0.54,1.07,1.12,1.41,1.73c-0.7-1.29-0.2-0.26,0.05,0.08c0.24,0.33,0.48,0.65,0.72,0.98
				c0.87,1.21,1.69,2.45,2.47,3.72c1.56,2.54,2.91,5.19,4.14,7.91c0.58,1.3-0.5-1.26,0.03,0.06c0.15,0.38,0.3,0.75,0.45,1.13
				c0.24,0.63,0.48,1.27,0.7,1.91c0.54,1.53,1.01,3.09,1.42,4.66c0.81,3.03,4.31,5.18,7.38,4.19
				C655.39,449.52,657.34,446.4,656.47,443.15L656.47,443.15z"/>
			<path d="M572.36,706.66c3.73-8.79,5.98-17.9,6.57-27.44c0.56-9.04-0.5-18.27-3.02-26.96c-0.88-3.01-4.27-5.2-7.38-4.19
				c-3.06,0.99-5.13,4.15-4.19,7.38c0.58,1.98,1.08,3.98,1.49,6.01c0.21,1.01,0.39,2.03,0.55,3.05c0.06,0.36,0.48,2.29,0.1,0.59
				c0.1,0.42,0.11,0.89,0.16,1.32c0.45,4.1,0.56,8.24,0.33,12.36c-0.06,1.03-0.14,2.06-0.24,3.09c-0.04,0.44-0.09,0.88-0.14,1.32
				c-0.03,0.29-0.07,0.59-0.11,0.88c0.12-0.86,0.13-0.96,0.03-0.28c-0.31,2.04-0.68,4.07-1.14,6.08c-0.47,2.01-1.02,4-1.65,5.96
				c-0.29,0.91-0.61,1.82-0.94,2.72c-0.18,0.48-0.36,0.97-0.55,1.45c-0.11,0.29-0.88,2.14-0.23,0.61c-0.66,1.55-1.07,2.92-0.6,4.62
				c0.38,1.39,1.46,2.9,2.76,3.59C566.72,710.17,571.05,709.75,572.36,706.66L572.36,706.66z"/>
		</g>
	</g>
</g>
</svg>
