<?xml version="1.0" encoding="utf-8"?>
<!-- Generator: Adobe Illustrator 25.4.1, SVG Export Plug-In . SVG Version: 6.00 Build 0)  -->
<svg version="1.1" xmlns="http://www.w3.org/2000/svg" xmlns:xlink="http://www.w3.org/1999/xlink" x="0px" y="0px"
	 viewBox="0 0 900 900" style="enable-background:new 0 0 900 900;" xml:space="preserve">
<style type="text/css">
	.st0{display:none;}
	.st1{display:inline;}
</style>
<g id="Layer_1" class="st0">
	<g class="st1">
		<path d="M450,572.4c-29.61,0-57.35-15.42-78.11-43.41c-20.43-27.54-31.68-64.09-31.68-102.9c0-16.74,2.1-33.15,6.24-48.78
			l0.98-3.72h3.85c43.62,0,74.41,0.06,99.15,0.11c37.45,0.08,62.18,0.13,98.25-0.11l3.88-0.03l0.99,3.75
			c4.14,15.63,6.23,32.05,6.23,48.78c0,38.81-11.25,75.35-31.68,102.9C507.35,556.99,479.61,572.4,450,572.4z M355.17,383.6
			c-3.29,13.68-4.96,27.95-4.96,42.5c0,75.16,44.76,136.3,99.79,136.3c55.02,0,99.79-61.15,99.79-136.3
			c0-14.54-1.67-28.81-4.96-42.48c-34.02,0.21-58.32,0.17-94.42,0.09C426.42,383.66,396.74,383.6,355.17,383.6z"/>
		<path d="M649.01,701.6c-2.76,0-5-2.24-5-5v-58.47c0-1.21-0.39-29.3-23.01-38.07l-137.59,53.56c-2.57,1-5.47-0.27-6.47-2.85
			c-0.23-0.6-0.34-1.21-0.34-1.82c0-2,1.21-3.89,3.19-4.65l132.89-51.73l-14.75-17.9c-0.04-0.05-0.09-0.11-0.13-0.16
			c-0.47-0.6-11.86-15.01-30.04-7.82l-54.37,40.97c-2.21,1.66-5.34,1.22-7-0.98c-0.68-0.9-1.01-1.96-1.01-3c0-1.52,0.69-3.02,1.99-4
			l50.62-38.15l-11.06-12.81c-0.12-0.14-0.24-0.29-0.35-0.45c-2.38-3.48-10.55-9.84-18.37-10.1c-4.31-0.15-7.88,1.57-10.88,5.23
			l-40.58,72.38c-0.77,1.38-2.15,2.31-3.71,2.51c-1.57,0.21-3.13-0.34-4.23-1.47c-5.91-6.07-23.03-12.29-37.65,0.05
			c-1.14,0.96-2.64,1.36-4.1,1.1c-1.46-0.26-2.73-1.16-3.47-2.45l-40.92-72.1c-2.99-3.67-6.54-5.38-10.88-5.24
			c-7.82,0.26-15.99,6.62-18.37,10.1c-0.11,0.16-0.22,0.31-0.35,0.45l-11.06,12.8l50.62,38.15c1.31,0.98,1.99,2.48,1.99,4
			c0,1.05-0.33,2.1-1.01,3c-1.66,2.21-4.8,2.65-7,0.98l-54.37-40.97c-18.35-7.25-29.56,7.2-30.04,7.82
			c-0.04,0.05-0.08,0.11-0.13,0.16l-14.75,17.9l132.89,51.73c1.98,0.77,3.19,2.66,3.19,4.65c0,0.61-0.11,1.22-0.34,1.82
			c-1,2.57-3.9,3.85-6.47,2.85L279,600.06c-22.62,8.76-23.01,36.86-23.01,38.08v58.46c0,2.76-2.24,5-5,5s-5-2.24-5-5v-58.47
			c0-1.52,0.35-36.76,30.12-47.67l18.2-22.08c5.4-7.06,20.04-17.93,38.9-11.97l12.13-14.04c4.07-5.75,14.69-13.82,26.11-14.2
			c7.63-0.24,14.3,2.97,19.3,9.33c0.15,0.2,0.29,0.41,0.42,0.62l38.34,67.57c14.97-9.47,31.37-6.41,41.4,0.06l37.9-67.6
			c0.13-0.23,0.27-0.44,0.43-0.65c5-6.36,11.7-9.57,19.3-9.33c11.43,0.38,22.04,8.45,26.11,14.2l12.13,14.04
			c18.86-5.96,33.5,4.9,38.9,11.97l18.2,22.08c29.77,10.9,30.12,46.15,30.12,47.67v58.47C654.01,699.36,651.77,701.6,649.01,701.6z"
			/>
		<path d="M450,699.89c-2.76,0-5-2.24-5-5v-23.35c0-2.76,2.24-5,5-5c2.76,0,5,2.24,5,5v23.35C455,697.66,452.76,699.89,450,699.89z"
			/>
		<path d="M450.19,676.54c-0.07,0-0.14,0-0.21,0c-16.35-0.08-30.6-10.24-36.28-25.87c-0.02-0.07-0.05-0.13-0.07-0.2
			c-4.82-15.2-0.73-30.58,10.94-41.14c2.05-1.85,5.21-1.69,7.06,0.36c1.85,2.05,1.69,5.21-0.35,7.06
			c-8.79,7.95-11.76,19.1-8.15,30.6c4.26,11.6,14.81,19.13,26.9,19.19c0.04,0,0.09,0,0.13,0c9.42,0,21.32-5.05,26.7-19.22
			c3.69-11.68,1.03-21.89-7.92-30.36c-2.01-1.9-2.09-5.06-0.19-7.07c1.9-2.01,5.06-2.09,7.07-0.19
			c11.83,11.2,15.47,25.31,10.53,40.79c-0.03,0.08-0.05,0.16-0.08,0.24C480.29,666.66,466.48,676.54,450.19,676.54z M481.6,648.96
			L481.6,648.96L481.6,648.96z"/>
		<path d="M560.54,203.4c2.24,0,4.65,0.64,7.11,2.1c9.2,5.99,6.28,19.4-3.01,22.24l0.11,86.34l0,0.33c3.29,0.39,4.82,1.68,4.82,7.95
			c0.11,9.23-8.21,7.64-8.81,7.95v25.28c0.29,0,0.62-0.01,0.99-0.01c2.9,0,7.82,0.49,7.82,8.79c0,10-7.48,8.49-8.65,8.78H337.13
			c-0.64-0.09-6.75,0.54-6.75-8.78c0-8.35,6.8-8.79,8.23-8.79c0.17,0,0.26,0.01,0.26,0.01l0.12-25.28c-5.72,0-8.61-0.67-8.61-7.95
			c0-7,2.99-7.95,4.82-7.95l-0.09-86.74c-14.1-5.83-8.7-24.25,3.88-24.25c1.36,0,2.8,0.21,4.3,0.68
			c9.75,3.26,11.28,16.81,3.03,22.03l42.03,88.28h12.27l42.26-88.25c-10.59-7.63-4.31-22.74,6.7-22.74c2.33,0,4.88,0.68,7.53,2.25
			c8.88,6.44,5.15,17.4,0,20.45l41.83,88.3h12.33l42.52-88.15C542.87,218.24,549.72,203.4,560.54,203.4 M560.54,193.4
			c-9.58,0-18.08,6.3-21.15,15.67c-2.14,6.53-1.14,13.35,2.48,18.92l-36.72,76.13l-36.13-76.26c2.01-3.28,3.25-7.17,3.43-11.17
			c0.35-7.54-3.1-14.51-9.45-19.12c-0.25-0.18-0.5-0.35-0.76-0.5c-4.08-2.42-8.33-3.65-12.63-3.65c-9.57,0-18.02,6.3-21.05,15.66
			c-2.11,6.54-1.14,13.32,2.42,18.83l-36.46,76.14l-36.21-76.07c2.68-4.22,3.86-9.38,3.22-14.72c-1.06-8.76-6.82-15.9-15.03-18.65
			c-0.07-0.02-0.14-0.05-0.22-0.07c-2.42-0.75-4.86-1.13-7.26-1.13c-10.71,0-19.67,7.5-21.8,18.23c-1.67,8.41,1.43,16.45,7.92,21.65
			l0.08,75.22c-0.21,0.21-0.41,0.43-0.61,0.65c-2.79,3.18-4.21,7.62-4.21,13.2c0,2.49,0,10.09,6.16,14.7
			c0.78,0.59,1.59,1.07,2.41,1.47l-0.05,9.72c-4.92,2.97-8.52,8.39-8.52,16.12c0,11.08,6.32,18.43,16.11,18.76
			c0.21,0.01,0.42,0.02,0.64,0.02h223.79c0.35,0,0.69-0.02,1.04-0.05c12.98-0.24,17.61-9.83,17.61-18.73
			c0-8.71-3.77-13.29-6.94-15.59c-0.62-0.45-1.25-0.84-1.88-1.17v-9.36c1.38-0.71,2.77-1.67,4.05-2.98
			c2.21-2.25,4.82-6.33,4.76-12.96c0-3.52-0.35-8.02-2.94-11.79c-0.56-0.82-1.19-1.55-1.89-2.21l-0.09-74.73
			c4.46-3.53,7.54-8.76,8.38-14.68c1.22-8.65-2.58-16.99-9.92-21.77c-0.11-0.07-0.22-0.14-0.33-0.21
			C568.86,194.59,564.74,193.4,560.54,193.4L560.54,193.4z"/>
		<path d="M450.09,358.47c-0.22,0-0.44,0-0.66-0.01c-12.12-0.24-22.75-7.41-27.52-18.19h-32.54c-4.06,5.1-9.93,8.08-16.28,8.03
			c-6.33-0.03-12.19-2.98-16.17-8.03h-17.93v-10h23.39l1.45,2.44c2.07,3.48,5.55,5.57,9.3,5.58c0.02,0,0.03,0,0.05,0
			c3.74,0,7.13-2.05,9.31-5.63l1.46-2.4h45.14l1.07,3.55c2.63,8.71,10.27,14.45,19.47,14.64c9.38,0.2,16.93-5.35,20.21-14.83
			l1.16-3.36h45.15l1.42,2.62c1.82,3.35,5.35,5.45,9.22,5.49c0.04,0,0.08,0,0.12,0c3.79,0,7.13-2.03,9.16-5.59l1.44-2.52h23.25v10
			h-17.67c-3.97,5.2-9.92,8.15-16.4,8.11c-6.44-0.07-12.41-3.11-16.21-8.11h-32.53C472.72,351.63,462.35,358.47,450.09,358.47z
			 M569.74,309.36c0-2.76-2.24-5-5-5h-22.49c-3.95-4.52-9.43-7.07-15.41-7.08c-0.01,0-0.02,0-0.03,0c-5.89,0-11.5,2.6-15.46,7.08
			h-33.83c-5.19-10.5-15.58-17.19-27.33-17.32c-11.88-0.13-22.23,6.43-27.73,17.32h-33.84c-3.91-4.49-9.54-7.11-15.51-7.11
			c0,0-0.01,0-0.01,0c-6.02,0-11.51,2.56-15.43,7.11H335.2c-2.76,0-5,2.24-5,5s2.24,5,5,5h27.63l1.48-2.24
			c2.05-3.1,5.26-4.87,8.79-4.87c0,0,0,0,0.01,0c3.55,0,6.87,1.82,8.88,4.87l1.48,2.24h45.66l1.24-3.19
			c3.48-8.94,10.87-14.19,19.72-14.13c8.74,0.09,16.37,5.6,19.45,14.03l1.2,3.28h45.69l1.49-2.19c2.12-3.11,5.35-4.89,8.89-4.89
			c0,0,0.01,0,0.02,0c3.52,0.01,6.74,1.78,8.83,4.88l1.49,2.2h27.6C567.51,314.36,569.74,312.12,569.74,309.36z"/>
	</g>
</g>
<g id="Layer_2">
	<g>
		<path d="M591.25,657.03H308.76c-38.49,0-69.8-31.31-69.8-69.8v-242.4c0-38.49,31.31-69.8,69.8-69.8h4.12v-5.04
			c0-17.6,12.81-26.92,25.46-27.02c0.07,0,0.14,0,0.21,0c12.58,0,25.4,9.22,25.69,26.94v5.12h171.53v-5.15
			c0-17.57,13.06-26.76,25.97-26.76c12.62,0,25.39,9.19,25.39,26.76l0,5.15h4.12c38.49,0,69.8,31.31,69.8,69.8v242.4
			C661.04,625.72,629.73,657.03,591.25,657.03z M308.76,285.03c-32.97,0-59.8,26.83-59.8,59.8v242.4c0,32.97,26.83,59.8,59.8,59.8
			h282.49c32.97,0,59.8-26.83,59.8-59.8v-242.4c0-32.97-26.83-59.8-59.8-59.8h-14.12l0-15.15c0-11.58-7.73-16.76-15.39-16.76
			c-7.69,0-15.97,5.24-15.97,16.76v15.15H354.23v-15.04c-0.19-11.75-7.99-17.02-15.68-17.02c-0.05,0-0.09,0-0.14,0
			c-7.73,0.06-15.54,5.35-15.54,17.02v15.04H308.76z"/>
		<path d="M656.04,363.16H243.96v-10h412.09V363.16z M356.14,310.62c3.69-3.35,8.09-9.47,8.09-19.55v-11.04h-10v11.04
			c0,5.08-1.67,9.28-4.82,12.15c-2.82,2.56-6.67,3.98-10.84,3.98c-7.82,0-15.7-4.99-15.7-16.13v-11.04h-10v11.04
			c0,17.15,12.93,26.13,25.7,26.13C345.24,317.2,351.48,314.87,356.14,310.62z M579.04,310.62c3.69-3.35,8.09-9.47,8.09-19.55
			v-11.04h-10v11.04c0,5.08-1.67,9.28-4.82,12.15c-2.82,2.56-6.67,3.98-10.84,3.98c-7.82,0-15.7-4.99-15.7-16.13v-11.04h-10v11.04
			c0,17.15,12.93,26.13,25.7,26.13C568.13,317.2,574.37,314.87,579.04,310.62z"/>
		<path d="M450,579.99c-41.3,0-74.89-33.6-74.89-74.89S408.7,430.2,450,430.2s74.89,33.6,74.89,74.89S491.3,579.99,450,579.99z
			 M450,440.2c-35.78,0-64.89,29.11-64.89,64.89c0,35.78,29.11,64.89,64.89,64.89c35.78,0,64.89-29.11,64.89-64.89
			C514.89,469.31,485.78,440.2,450,440.2z"/>
		<path d="M449.52,387.82c6.04,18.62,24.42,30.43,43.09,30.43c8.78,0,17.63-2.62,25.28-8.37c-8.95,27.31,11.87,57.98,41.35,57.98
			c0.53,0,1.06-0.01,1.59-0.03c0,0,0.01,0,0.01,0c-24.58,17.24-25.18,55.53,0.59,72.36c0,0-0.01,0-0.01,0
			c-0.63-0.03-1.26-0.04-1.89-0.04c-30,0-50.3,30.99-41.17,58.13c0,0,0,0.01,0,0.01c-7.77-5.95-16.85-8.71-25.85-8.71
			c-19,0-37.65,12.28-42.94,32.78c-5.2-21.08-23.46-32.99-42.17-32.99c-9.23,0-18.58,2.91-26.51,9.05
			c10.96-29.01-12.83-58.42-41.99-58.42c-0.13,0-0.26,0-0.39,0c23.9-16.81,24.85-54.93,0.58-72.14c0.09,0,0.18,0,0.27,0
			c28.93,0,51.51-30.01,41-58.91c7.81,5.95,17.23,8.76,26.62,8.76C425.35,417.73,443.58,406.99,449.52,387.82 M560.85,467.83
			L560.85,467.83 M449.53,377.82c-0.02,0-0.04,0-0.06,0c-4.36,0.03-8.2,2.87-9.49,7.04c-4.9,15.8-20.08,22.87-32.95,22.87
			c-7.68,0-14.79-2.32-20.56-6.72c-1.79-1.36-3.92-2.04-6.06-2.04c-2.08,0-4.16,0.65-5.93,1.95c-3.57,2.63-4.99,7.3-3.47,11.47
			c3.76,10.33,2.21,21.55-4.24,30.77c-6.46,9.22-16.68,14.72-27.36,14.72l-0.21,0c-0.02,0-0.04,0-0.06,0c-4.34,0-8.19,2.8-9.52,6.93
			c-1.34,4.15,0.17,8.7,3.73,11.22c8.64,6.13,13.59,16.14,13.56,27.48c-0.02,11.53-5.3,22.12-14.11,28.32
			c-3.58,2.52-5.11,7.07-3.77,11.24c1.33,4.14,5.18,6.94,9.52,6.94c0.03,0,0.06,0,0.09,0l0.3,0c11.2,0,22.25,5.91,28.82,15.42
			c6.14,8.88,7.53,19.62,3.81,29.46c-1.58,4.19-0.19,8.92,3.41,11.58c1.77,1.31,3.86,1.96,5.94,1.96c2.16,0,4.32-0.7,6.12-2.09
			c5.87-4.55,12.92-6.95,20.38-6.95c13.04,0,28.13,7.85,32.46,25.39c1.1,4.45,5.08,7.58,9.66,7.61c0.02,0,0.04,0,0.05,0
			c4.56,0,8.54-3.08,9.68-7.5c3.84-14.88,17.51-25.28,33.25-25.28c7.25,0,14.09,2.3,19.77,6.65c1.79,1.37,3.93,2.06,6.08,2.06
			c1.96,0,3.93-0.58,5.63-1.73c3.56-2.43,5.17-6.87,3.99-11.01c-0.05-0.16-0.1-0.32-0.15-0.48c-3.42-10.19-1.52-21.75,5.08-30.93
			c6.39-8.89,16.09-13.99,26.62-13.99c0.47,0,0.95,0.01,1.43,0.03c0.05,0,0.1,0,0.15,0.01c0.11,0,0.21,0.01,0.32,0.01
			c4.35,0,8.22-2.82,9.54-7c1.35-4.28-0.32-8.93-4.07-11.38c-9.12-5.96-14.46-15.82-14.64-27.07c-0.19-11.52,5.12-22.22,14.2-28.65
			c2.64-1.8,4.38-4.83,4.38-8.27c0-5.43-4.33-9.85-9.73-10c-0.09,0-0.18,0-0.27,0c-0.07,0-0.14,0-0.21,0c-0.08,0-0.17,0-0.25,0.01
			c-0.38,0.01-0.77,0.02-1.15,0.02c-10.43,0-20.12-5.12-26.58-14.03c-6.63-9.15-8.6-20.68-5.27-30.83c1.36-4.15-0.13-8.7-3.68-11.25
			c-1.74-1.25-3.78-1.87-5.82-1.87c-2.12,0-4.24,0.67-6.01,2.01c-5.53,4.16-12.19,6.36-19.26,6.36c-15.28,0-29.09-9.67-33.57-23.51
			C457.7,380.61,453.86,377.82,449.53,377.82L449.53,377.82z"/>
		<path d="M409.74,510.85c-2.76,0-5-2.24-5-5v-6.89c0-2.76,2.24-5,5-5s5,2.24,5,5v6.89C414.74,508.61,412.51,510.85,409.74,510.85z
			 M495.25,505.85v-6.89c0-2.76-2.24-5-5-5s-5,2.24-5,5v6.89c0,2.76,2.24,5,5,5S495.25,508.61,495.25,505.85z M464.47,512.88
			c2.5-1.18,3.57-4.16,2.39-6.66c-1.18-2.5-4.16-3.57-6.66-2.39c-6.66,3.14-14.89,3.23-20.01,0.21c-2.38-1.4-5.44-0.6-6.84,1.78
			c-1.4,2.38-0.6,5.44,1.78,6.84c4.03,2.37,9.06,3.56,14.29,3.56C454.48,516.23,459.74,515.11,464.47,512.88z"/>
	</g>
</g>
</svg>
